<svg width="83" height="83" viewBox="0 0 83 83" fill="none" xmlns="http://www.w3.org/2000/svg">
<g clip-path="url(#clip0)">
<path d="M76.4356 16.7141C76.2469 16.0695 75.5731 15.699 74.9272 15.8877C74.2826 16.0758 73.9128 16.7509 74.1008 17.3955C74.3662 18.3029 74.5004 19.2465 74.5004 20.2001C74.5004 21.9707 74.0331 23.7102 73.1484 25.2306C72.2879 26.7092 71.055 27.9548 69.5827 28.8324L69.0735 29.1351C68.705 29.3549 68.4796 29.7513 68.4796 30.18V31.7156H65.6369V26.7731C66.9401 26.2995 67.8761 25.0514 67.8761 23.5854V20.9302C67.8761 19.059 66.3544 17.5367 64.4844 17.5367H64.3584C62.4885 17.5367 60.9668 19.059 60.9668 20.9302V23.5854C60.9668 25.0514 61.9021 26.2995 63.2053 26.7725V31.7156H60.3633V30.18C60.3633 29.7513 60.1372 29.3549 59.7693 29.1351L59.2602 28.8324C57.7873 27.9548 56.5544 26.7092 55.6944 25.2306C54.8098 23.7102 54.3418 21.9707 54.3418 20.2001C54.3418 14.6593 58.8631 10.1519 64.4211 10.1519C67.0592 10.1519 69.5561 11.1657 71.4514 13.0071C71.9326 13.4745 72.7026 13.4631 73.1706 12.9818C73.6386 12.5005 73.6272 11.7305 73.1453 11.2626C70.7941 8.97846 67.6956 7.72021 64.4211 7.72021C57.5226 7.72021 51.9102 13.3187 51.9102 20.2001C51.9102 22.3994 52.4921 24.5619 53.592 26.4534C54.6432 28.26 56.1421 29.7855 57.9317 30.8708V31.9132C57.2851 32.2291 56.838 32.8909 56.838 33.6577V39.217C56.838 40.2871 57.7088 41.1585 58.7789 41.1585H60.5868V42.8676C60.5868 44.034 61.5348 44.9826 62.7012 44.9826H66.1416C67.3074 44.9826 68.2567 44.034 68.2567 42.8676V41.1585H70.0639C71.1341 41.1585 72.0054 40.2871 72.0054 39.217V33.6577C72.0054 32.8909 71.5577 32.2291 70.9112 31.9132V30.8708C72.7007 29.7855 74.1996 28.26 75.2508 26.4534C76.3508 24.5619 76.9327 22.3994 76.9327 20.2001C76.9321 19.016 76.7649 17.8432 76.4356 16.7141ZM63.3984 20.9302C63.3984 20.3996 63.829 19.9683 64.3584 19.9683H64.4844C65.0138 19.9683 65.4444 20.3996 65.4444 20.9302V23.5854C65.4444 24.1161 65.0138 24.5473 64.4844 24.5473H64.3584C63.829 24.5473 63.3984 24.1161 63.3984 23.5854V20.9302ZM65.8244 42.551H63.0178V41.1585H65.8244V42.551ZM69.5732 38.7268H59.2691V34.1472H69.5732V38.7268Z" fill="#FF8310"/>
<path d="M64.4267 6.23108C65.0986 6.23108 65.6425 5.6865 65.6425 5.01526V2.99902C65.6425 2.32716 65.0986 1.7832 64.4267 1.7832C63.7549 1.7832 63.2109 2.32716 63.2109 2.99902V5.01526C63.2109 5.6865 63.7555 6.23108 64.4267 6.23108Z" fill="#FF8310"/>
<path d="M57.0008 6.8734C57.2028 7.3249 57.6461 7.59276 58.1109 7.59276C58.2768 7.59276 58.4458 7.55856 58.6073 7.48701C59.2197 7.21218 59.4945 6.49345 59.2203 5.88048L58.3958 4.03965C58.1216 3.42667 57.4023 3.15248 56.7893 3.42667C56.177 3.70086 55.9021 4.42022 56.177 5.0332L57.0008 6.8734Z" fill="#FF8310"/>
<path d="M50.5849 9.74895L52.0901 11.0946C52.3219 11.3017 52.6119 11.4042 52.9001 11.4042C53.2344 11.4042 53.5669 11.2675 53.8069 10.999C54.2546 10.4981 54.2116 9.72932 53.7113 9.28161L52.206 7.93598C51.7051 7.48828 50.9364 7.53134 50.4893 8.03223C50.0416 8.53249 50.0846 9.30124 50.5849 9.74895Z" fill="#FF8310"/>
<path d="M47.4117 16.3252L49.3361 16.9427C49.4596 16.9819 49.5844 17.0009 49.7078 17.0009C50.222 17.0009 50.6995 16.6723 50.8648 16.1562C51.07 15.5166 50.7179 14.8321 50.0783 14.6269L48.1539 14.0101C47.5143 13.805 46.8297 14.157 46.6246 14.7966C46.42 15.4362 46.7721 16.1207 47.4117 16.3252Z" fill="#FF8310"/>
<path d="M47.0585 23.6305C47.1028 23.6305 47.1465 23.628 47.1915 23.6229L49.2007 23.4044C49.8681 23.3322 50.3506 22.7326 50.2778 22.0645C50.2056 21.3971 49.6066 20.9139 48.9379 20.9874L46.9287 21.2058C46.2606 21.278 45.7787 21.8783 45.8509 22.5458C45.9193 23.1689 46.4461 23.6305 47.0585 23.6305Z" fill="#FF8310"/>
<path d="M48.7561 28.2748C48.1761 28.6123 47.9798 29.357 48.3179 29.9371C48.544 30.3246 48.9512 30.5412 49.3697 30.5412C49.5774 30.5412 49.7877 30.488 49.9808 30.3759L51.726 29.3589C52.3066 29.0208 52.5029 28.2767 52.1648 27.6967C51.8267 27.116 51.0826 26.9197 50.5019 27.2578L48.7561 28.2748Z" fill="#FF8310"/>
<path d="M70.2425 7.48652C70.404 7.55871 70.5724 7.5929 70.739 7.5929C71.2031 7.5929 71.647 7.32504 71.8491 6.87354L72.6735 5.03271C72.9477 4.41974 72.6735 3.70037 72.0606 3.42618C71.4482 3.15199 70.7282 3.42618 70.454 4.03916L69.6302 5.87999C69.3553 6.49297 69.6295 7.21233 70.2425 7.48652Z" fill="#FF8310"/>
<path d="M75.9429 11.4042C76.2311 11.4042 76.5211 11.3017 76.7528 11.0946L78.2581 9.74895C78.7583 9.30124 78.8014 8.53249 78.3537 8.03223C77.906 7.53134 77.1372 7.48828 76.637 7.93598L75.1318 9.28161C74.6315 9.72932 74.5884 10.4981 75.0361 10.999C75.2761 11.2675 75.6092 11.4042 75.9429 11.4042Z" fill="#FF8310"/>
<path d="M77.9842 16.1562C78.1502 16.6723 78.6276 17.0009 79.1418 17.0009C79.2647 17.0009 79.39 16.9819 79.5135 16.9427L81.438 16.3252C82.0769 16.1207 82.429 15.4362 82.2244 14.7966C82.0193 14.157 81.3341 13.805 80.6952 14.0101L78.7707 14.6269C78.1312 14.8321 77.7791 15.5166 77.9842 16.1562Z" fill="#FF8310"/>
<path d="M81.9117 21.2061L79.9024 20.9876C79.2337 20.9129 78.6347 21.3973 78.5618 22.0647C78.4897 22.7328 78.9716 23.3325 79.6396 23.4053L81.6489 23.6238C81.6938 23.6282 81.7382 23.6307 81.7819 23.6307C82.3942 23.6307 82.921 23.1691 82.9888 22.5466C83.0616 21.8786 82.5797 21.2789 81.9117 21.2061Z" fill="#FF8310"/>
<path d="M80.0893 28.2746L78.3441 27.2576C77.764 26.9201 77.0193 27.1157 76.6812 27.6958C76.343 28.2765 76.5393 29.0205 77.12 29.3587L78.8652 30.3757C79.0577 30.4877 79.2686 30.5409 79.4763 30.5409C79.8948 30.5409 80.302 30.3244 80.5281 29.9368C80.8656 29.3568 80.6693 28.6121 80.0893 28.2746Z" fill="#FF8310"/>
<path d="M13.5479 29.8149H25.8789C26.5502 29.8149 27.0948 29.2704 27.0948 28.5991C27.0948 27.9273 26.5502 27.3833 25.8789 27.3833H13.5479C12.876 27.3833 12.332 27.9273 12.332 28.5991C12.332 29.2704 12.8766 29.8149 13.5479 29.8149Z" fill="#FF8310"/>
<path d="M7.86817 60.4092H31.5602C32.2321 60.4092 32.776 59.8652 32.776 59.1934C32.776 58.5221 32.2321 57.9775 31.5602 57.9775H7.86817C7.19693 57.9775 6.65234 58.5221 6.65234 59.1934C6.65234 59.8652 7.19693 60.4092 7.86817 60.4092Z" fill="#FF8310"/>
<path d="M47.5753 47.4441C47.5753 43.468 44.3426 40.2334 40.3697 40.2334C36.3961 40.2334 33.1641 43.468 33.1641 47.4441C33.1641 51.4202 36.3961 54.6548 40.3697 54.6548C44.3426 54.6548 47.5753 51.4202 47.5753 47.4441ZM40.3691 42.665C42.9178 42.665 45.0056 44.6743 45.1367 47.1933C44.941 47.2174 44.7435 47.2326 44.5446 47.2326C41.9959 47.2326 39.9074 45.2227 39.7776 42.7037C39.9714 42.679 40.169 42.665 40.3691 42.665ZM35.5957 47.4441C35.5957 45.9123 36.3208 44.547 37.4441 43.6719C38.0242 47.0692 40.9865 49.6642 44.5446 49.6642C44.5617 49.6642 44.5788 49.663 44.5959 49.663C43.7955 51.1834 42.2023 52.2232 40.3691 52.2232C37.7373 52.2232 35.5957 50.079 35.5957 47.4441Z" fill="#FF8310"/>
<path d="M69.7989 66.6368L63.6432 63.2812C62.8244 62.8348 61.5035 62.4985 60.5707 62.4985H39.4249V58.637C39.7403 58.6522 40.0569 58.6624 40.3748 58.6624C47.6121 58.6624 54.3491 54.7578 57.958 48.4729C58.3227 47.8378 58.3227 47.0481 57.958 46.4117C54.3498 40.1274 47.6121 36.2235 40.3748 36.2235C40.0569 36.2235 39.7403 36.2336 39.4249 36.2482V21.1416C39.4249 20.0246 38.5156 19.1152 37.3985 19.1152H15.0762C14.4043 19.1152 13.8604 19.6598 13.8604 20.3311C13.8604 21.0029 14.4043 21.5469 15.0762 21.5469H36.9933V36.5104C36.1226 36.6585 35.2671 36.8631 34.4299 37.1214V36.0589C34.4299 34.9412 33.5212 34.0325 32.4035 34.0325H7.02137C5.9037 34.0325 4.995 34.9412 4.995 36.0589V52.9961C4.995 54.1132 5.9037 55.0225 7.02137 55.0225H28.8086C31.2435 56.7145 34.036 57.8715 36.9933 58.3755V62.4985H22.3718C21.4441 62.4985 20.6329 62.9988 20.189 63.7422H7.86611C7.19488 63.7422 6.65029 64.2868 6.65029 64.958C6.65029 65.6299 7.19488 66.1739 7.86611 66.1739H19.8293V69.5072H7.86611C7.19488 69.5072 6.65029 70.0512 6.65029 70.7231C6.65029 71.3943 7.19488 71.9389 7.86611 71.9389H19.8483C19.9965 73.1984 21.0711 74.1799 22.3718 74.1799H36.9933V78.8494H2.43164V21.5469H9.24024C9.91211 21.5469 10.4561 21.0029 10.4561 20.3311C10.4561 19.6598 9.91211 19.1152 9.24024 19.1152H2.02637C0.9087 19.1152 0 20.0246 0 21.1416V79.2541C0 80.3718 0.9087 81.2805 2.02637 81.2805H37.3985C38.5156 81.2805 39.4249 80.3718 39.4249 79.2541V74.1799H60.5707C61.5035 74.1799 62.8244 73.843 63.6432 73.3966L69.7996 70.0411C70.5069 69.6548 70.9128 69.0349 70.9128 68.3389C70.9128 67.6436 70.5069 67.023 69.7989 66.6368ZM27.5219 71.7483H22.3718C22.3141 71.7483 22.2609 71.697 22.2609 71.6413V65.0372C22.2609 64.9815 22.3135 64.9302 22.3718 64.9302H27.5219V71.7483ZM7.42664 52.5909V36.4641H31.9983V38.0453C28.1919 39.7785 24.9383 42.6743 22.7929 46.4117C22.4275 47.0481 22.4275 47.8384 22.7929 48.4735C23.6648 49.9927 24.7211 51.3712 25.9223 52.5909H7.42664ZM25.006 47.4426C28.2058 42.0164 34.0753 38.6551 40.3754 38.6551C46.6749 38.6551 52.5444 42.017 55.7448 47.4426C52.5438 52.8682 46.6743 56.2307 40.3754 56.2307C34.0759 56.2307 28.2064 52.8695 25.006 47.4426ZM58.8204 67.1231H53.8204C53.1485 67.1231 52.6045 67.6677 52.6045 68.3389C52.6045 69.0108 53.1485 69.5547 53.8204 69.5547H58.8204V71.7483H29.9535V69.5547H48.1465C48.8178 69.5547 49.3624 69.0108 49.3624 68.3389C49.3624 67.6677 48.8178 67.1231 48.1465 67.1231H29.9535V64.9302H58.8204V67.1231ZM63.8636 70.5071L62.4793 71.262C62.1861 71.4215 61.7004 71.576 61.2521 71.666V65.0119C61.701 65.1024 62.1861 65.2563 62.4793 65.4159L63.8636 66.1707V70.5071ZM66.2952 69.1818V67.4967L67.841 68.3389L66.2952 69.1818Z" fill="#FF8310"/>
</g>
<defs>
<clipPath id="clip0">
<rect width="83" height="83" fill="white"/>
</clipPath>
</defs>
</svg>
