<svg width="83" height="83" viewBox="0 0 83 83" fill="none" xmlns="http://www.w3.org/2000/svg">
<path d="M81.3061 7.35205H1.69388C0.758349 7.35205 0 8.11057 0 9.04593V73.9529C0 74.8885 0.758349 75.6468 1.69388 75.6468H81.3061C82.2415 75.6468 83 74.8885 83 73.9529V9.04593C83 8.11057 82.2415 7.35205 81.3061 7.35205ZM79.6122 10.7398V20.9412H3.38776V10.7398H79.6122ZM3.38776 72.2591V24.3289H79.6122V72.2591H3.38776Z" fill="#FF8310"/>
<path d="M26.4382 32.8506H12.8931C11.9577 32.8506 11.1992 33.6089 11.1992 34.5445V48.2642C11.1992 49.1996 11.9577 49.9581 12.8931 49.9581H26.4382C27.3737 49.9581 28.1321 49.1996 28.1321 48.2642V34.5445C28.1321 33.6089 27.3737 32.8506 26.4382 32.8506ZM24.7443 46.5704H14.587V36.2383H24.7443V46.5704Z" fill="#FF8310"/>
<path d="M34.604 49.9581H48.1485C49.0838 49.9581 49.8423 49.1996 49.8423 48.2642V34.5445C49.8423 33.6089 49.0838 32.8506 48.1485 32.8506H34.604C33.6687 32.8506 32.9102 33.6089 32.9102 34.5445V48.2642C32.9102 49.1998 33.6687 49.9581 34.604 49.9581ZM36.2979 36.2383H46.4546V46.5704H36.2979V36.2383Z" fill="#FF8310"/>
<path d="M56.3111 49.9581H69.8562C70.7917 49.9581 71.55 49.1996 71.55 48.2642V34.5445C71.55 33.6089 70.7917 32.8506 69.8562 32.8506H56.3111C55.3755 32.8506 54.6172 33.6089 54.6172 34.5445V48.2642C54.6172 49.1998 55.3757 49.9581 56.3111 49.9581ZM58.0049 36.2383H68.1623V46.5704H58.0049V36.2383Z" fill="#FF8310"/>
<path d="M26.4382 54.2559H12.8931C11.9577 54.2559 11.1992 55.0142 11.1992 55.9497C11.1992 56.8853 11.9577 57.6436 12.8931 57.6436H26.4382C27.3737 57.6436 28.1321 56.8853 28.1321 55.9497C28.1321 55.0144 27.3737 54.2559 26.4382 54.2559Z" fill="#FF8310"/>
<path d="M26.4382 60.5239H12.8931C11.9577 60.5239 11.1992 61.2823 11.1992 62.2178C11.1992 63.1533 11.9577 63.9117 12.8931 63.9117H26.4382C27.3737 63.9117 28.1321 63.1533 28.1321 62.2178C28.1321 61.2824 27.3737 60.5239 26.4382 60.5239Z" fill="#FF8310"/>
<path d="M48.2736 54.2559H34.729C33.7937 54.2559 33.0352 55.0142 33.0352 55.9497C33.0352 56.8853 33.7937 57.6436 34.729 57.6436H48.2737C49.2093 57.6436 49.9676 56.8853 49.9676 55.9497C49.9674 55.0144 49.2091 54.2559 48.2736 54.2559Z" fill="#FF8310"/>
<path d="M48.2736 60.5239H34.729C33.7937 60.5239 33.0352 61.2823 33.0352 62.2178C33.0352 63.1533 33.7937 63.9117 34.729 63.9117H48.2737C49.2093 63.9117 49.9676 63.1533 49.9676 62.2178C49.9674 61.2824 49.2091 60.5239 48.2736 60.5239Z" fill="#FF8310"/>
<path d="M70.1062 54.2559H56.5611C55.6257 54.2559 54.8672 55.0142 54.8672 55.9497C54.8672 56.8853 55.6257 57.6436 56.5611 57.6436H70.1062C71.0415 57.6436 71.8 56.8853 71.8 55.9497C71.8 55.0144 71.0415 54.2559 70.1062 54.2559Z" fill="#FF8310"/>
<path d="M70.1062 60.5239H56.5611C55.6257 60.5239 54.8672 61.2823 54.8672 62.2178C54.8672 63.1533 55.6257 63.9117 56.5611 63.9117H70.1062C71.0415 63.9117 71.8 63.1533 71.8 62.2178C71.8 61.2824 71.0415 60.5239 70.1062 60.5239Z" fill="#FF8310"/>
<path d="M12.8931 17.4976H13.7295C14.6649 17.4976 15.4234 16.7391 15.4234 15.8037C15.4234 14.8684 14.6649 14.1099 13.7295 14.1099H12.8931C11.9577 14.1099 11.1992 14.8684 11.1992 15.8037C11.1992 16.7391 11.9577 17.4976 12.8931 17.4976Z" fill="#FF8310"/>
<path d="M19.9165 17.4976H20.7525C21.6878 17.4976 22.4463 16.7391 22.4463 15.8037C22.4463 14.8684 21.688 14.1099 20.7525 14.1099H19.9165C18.9812 14.1099 18.2227 14.8684 18.2227 15.8037C18.2227 16.7391 18.9812 17.4976 19.9165 17.4976Z" fill="#FF8310"/>
<path d="M26.9439 17.4976H27.7793C28.7147 17.4976 29.4732 16.7391 29.4732 15.8037C29.4732 14.8684 28.7147 14.1099 27.7793 14.1099H26.9439C26.0085 14.1099 25.25 14.8684 25.25 15.8037C25.25 16.7391 26.0083 17.4976 26.9439 17.4976Z" fill="#FF8310"/>
</svg>
