<svg width="83" height="83" viewBox="0 0 83 83" fill="none" xmlns="http://www.w3.org/2000/svg">
<path d="M76.5156 9.07812H6.48438C5.10912 9.07993 3.7907 9.62704 2.81825 10.5995C1.84579 11.572 1.29868 12.8904 1.29688 14.2656V58.3594C1.29868 59.7346 1.84579 61.053 2.81825 62.0255C3.7907 62.998 5.10912 63.5451 6.48438 63.5469H33.2162L31.4865 68.7344H27.2344C26.8904 68.7344 26.5606 68.871 26.3173 69.1142C26.0741 69.3574 25.9375 69.6873 25.9375 70.0312V72.625H14.2656C13.9217 72.625 13.5918 72.7616 13.3486 73.0048C13.1054 73.2481 12.9688 73.5779 12.9688 73.9219C12.9688 74.2658 13.1054 74.5957 13.3486 74.8389C13.5918 75.0821 13.9217 75.2188 14.2656 75.2188H71.3281C71.6721 75.2188 72.0019 75.0821 72.2452 74.8389C72.4884 74.5957 72.625 74.2658 72.625 73.9219C72.625 73.5779 72.4884 73.2481 72.2452 73.0048C72.0019 72.7616 71.6721 72.625 71.3281 72.625H57.0625V70.0312C57.0625 69.6873 56.9259 69.3574 56.6827 69.1142C56.4394 68.871 56.1096 68.7344 55.7656 68.7344H51.5135L49.7838 63.5469H76.5156C77.8909 63.5451 79.2093 62.998 80.1818 62.0255C81.1542 61.053 81.7013 59.7346 81.7031 58.3594V14.2656C81.7013 12.8904 81.1542 11.572 80.1818 10.5995C79.2093 9.62704 77.8909 9.07993 76.5156 9.07812ZM54.4688 71.3281V72.625H28.5312V71.3281H54.4688ZM34.2213 68.7344L35.951 63.5469H47.049L48.7787 68.7344H34.2213ZM79.1094 58.3594C79.1085 59.047 78.8349 59.7062 78.3487 60.1924C77.8625 60.6787 77.2033 60.9522 76.5156 60.9531H6.48438C5.79675 60.9522 5.13754 60.6787 4.65131 60.1924C4.16508 59.7062 3.89153 59.047 3.89062 58.3594V55.7656H79.1094V58.3594ZM23.2886 41.5L22.8023 53.1719H21.2914L20.8051 41.5H23.2886ZM20.9834 38.9062L21.8491 33.7188H22.2446L23.1103 38.9062H20.9834ZM22.0469 31.125C20.6414 31.125 19.4531 29.3434 19.4531 27.2344C19.4531 25.9035 20.8116 23.9695 22.0436 22.6062C23.1541 23.8382 24.6406 25.8078 24.6406 27.2344C24.6406 29.3434 23.4524 31.125 22.0469 31.125ZM36.1601 28.5312L36.3125 28.8376V29.8281H31.125V28.8376L31.2774 28.5312H36.1601ZM32.5743 25.9375L33.7188 23.6501L34.8632 25.9375H32.5743ZM36.3125 32.4219V53.0098C36.313 53.064 36.3168 53.1181 36.3238 53.1719H31.1137C31.1207 53.1181 31.1245 53.064 31.125 53.0098V32.4219H36.3125ZM47.9844 27.2344H51.875V29.8281H50.5781C50.2342 29.8281 49.9043 29.9648 49.6611 30.208C49.4179 30.4512 49.2812 30.781 49.2812 31.125C49.2812 31.469 49.4179 31.7988 49.6611 32.042C49.9043 32.2852 50.2342 32.4219 50.5781 32.4219H51.875V35.0156H47.9844C47.6404 35.0156 47.3106 35.1523 47.0673 35.3955C46.8241 35.6387 46.6875 35.9685 46.6875 36.3125C46.6875 36.6565 46.8241 36.9863 47.0673 37.2295C47.3106 37.4727 47.6404 37.6094 47.9844 37.6094H51.875V40.2031H50.5781C50.2342 40.2031 49.9043 40.3398 49.6611 40.583C49.4179 40.8262 49.2812 41.156 49.2812 41.5C49.2812 41.844 49.4179 42.1738 49.6611 42.417C49.9043 42.6602 50.2342 42.7969 50.5781 42.7969H51.875V45.3906H47.9844C47.6404 45.3906 47.3106 45.5273 47.0673 45.7705C46.8241 46.0137 46.6875 46.3435 46.6875 46.6875C46.6875 47.0315 46.8241 47.3613 47.0673 47.6045C47.3106 47.8477 47.6404 47.9844 47.9844 47.9844H51.875V53.1719H42.7969V22.0469H51.875V24.6406H47.9844C47.6404 24.6406 47.3106 24.7773 47.0673 25.0205C46.8241 25.2637 46.6875 25.5935 46.6875 25.9375C46.6875 26.2815 46.8241 26.6113 47.0673 26.8545C47.3106 27.0977 47.6404 27.2344 47.9844 27.2344ZM63.5469 42.7969V53.0098C63.5474 53.064 63.5512 53.1181 63.5582 53.1719H58.348C58.3551 53.1181 58.3589 53.064 58.3594 53.0098V42.7969H63.5469ZM58.3594 40.2031V39.2126L60.9531 34.0251L63.5469 39.2126V40.2031H58.3594ZM79.1094 53.1719H66.1293C66.1363 53.1181 66.1401 53.064 66.1406 53.0098V38.9062C66.1404 38.7049 66.0938 38.5063 66.0045 38.3259L62.1138 30.5446C62.0059 30.3293 61.8401 30.1482 61.6352 30.0216C61.4302 29.8951 61.194 29.8281 60.9531 29.8281C60.7122 29.8281 60.4761 29.8951 60.2711 30.0216C60.0661 30.1482 59.9004 30.3293 59.7924 30.5446L55.9018 38.3259C55.8124 38.5063 55.7658 38.7049 55.7656 38.9062V53.0098C55.7661 53.064 55.7699 53.1181 55.777 53.1719H54.4688V20.75C54.4688 20.406 54.3321 20.0762 54.0889 19.833C53.8457 19.5898 53.5158 19.4531 53.1719 19.4531H41.5C41.156 19.4531 40.8262 19.5898 40.583 19.833C40.3398 20.0762 40.2031 20.406 40.2031 20.75V53.1719H38.8949C38.902 53.1181 38.9058 53.064 38.9062 53.0098V28.5312C38.9061 28.3299 38.8595 28.1313 38.7701 27.9509L34.8795 20.1696C34.7715 19.9543 34.6058 19.7732 34.4008 19.6466C34.1958 19.5201 33.9597 19.4531 33.7188 19.4531C33.4778 19.4531 33.2417 19.5201 33.0367 19.6466C32.8317 19.7732 32.666 19.9543 32.558 20.1696L28.6674 27.9509C28.578 28.1313 28.5314 28.3299 28.5312 28.5312V53.0098C28.5317 53.064 28.5355 53.1181 28.5426 53.1719H25.3977L25.9359 40.2566C25.9375 40.2274 25.9359 40.1983 25.9359 40.1675V40.1286C25.9329 40.0829 25.9275 40.0375 25.9197 39.9924V39.9891L24.7201 32.7899C26.2261 31.6535 27.2344 29.5882 27.2344 27.2344C27.2344 23.9014 23.3713 20.2102 22.9304 19.8C22.6901 19.5773 22.3745 19.4535 22.0469 19.4535C21.7192 19.4535 21.4037 19.5773 21.1634 19.8C20.7224 20.2102 16.8594 23.9014 16.8594 27.2344C16.8594 29.5882 17.8677 31.6535 19.3737 32.7899L18.1741 39.9891V39.9924C18.1663 40.0375 18.1609 40.0829 18.1579 40.1286V40.1675C18.1579 40.1983 18.1562 40.2274 18.1579 40.2566L18.6961 53.1719H3.89062V14.2656C3.89153 13.578 4.16508 12.9188 4.65131 12.4326C5.13754 11.9463 5.79675 11.6728 6.48438 11.6719H76.5156C77.2033 11.6728 77.8625 11.9463 78.3487 12.4326C78.8349 12.9188 79.1085 13.578 79.1094 14.2656V53.1719Z" fill="#FF8310"/>
<path d="M15.5625 57.0625H7.78125C7.4373 57.0625 7.10743 57.1991 6.86422 57.4423C6.62101 57.6856 6.48438 58.0154 6.48438 58.3594C6.48438 58.7033 6.62101 59.0332 6.86422 59.2764C7.10743 59.5196 7.4373 59.6562 7.78125 59.6562H15.5625C15.9065 59.6562 16.2363 59.5196 16.4795 59.2764C16.7227 59.0332 16.8594 58.7033 16.8594 58.3594C16.8594 58.0154 16.7227 57.6856 16.4795 57.4423C16.2363 57.1991 15.9065 57.0625 15.5625 57.0625Z" fill="#FF8310"/>
<path d="M20.75 57.0625H19.4531C19.1092 57.0625 18.7793 57.1991 18.5361 57.4423C18.2929 57.6856 18.1562 58.0154 18.1562 58.3594C18.1562 58.7033 18.2929 59.0332 18.5361 59.2764C18.7793 59.5196 19.1092 59.6562 19.4531 59.6562H20.75C21.094 59.6562 21.4238 59.5196 21.667 59.2764C21.9102 59.0332 22.0469 58.7033 22.0469 58.3594C22.0469 58.0154 21.9102 57.6856 21.667 57.4423C21.4238 57.1991 21.094 57.0625 20.75 57.0625Z" fill="#FF8310"/>
<path d="M33.7188 33.7188C33.3748 33.7188 33.0449 33.8554 32.8017 34.0986C32.5585 34.3418 32.4219 34.6717 32.4219 35.0156V49.2812C32.4219 49.6252 32.5585 49.9551 32.8017 50.1983C33.0449 50.4415 33.3748 50.5781 33.7188 50.5781C34.0627 50.5781 34.3926 50.4415 34.6358 50.1983C34.879 49.9551 35.0156 49.6252 35.0156 49.2812V35.0156C35.0156 34.6717 34.879 34.3418 34.6358 34.0986C34.3926 33.8554 34.0627 33.7188 33.7188 33.7188Z" fill="#FF8310"/>
<path d="M60.9531 44.0938C60.6092 44.0938 60.2793 44.2304 60.0361 44.4736C59.7929 44.7168 59.6562 45.0467 59.6562 45.3906V49.2812C59.6562 49.6252 59.7929 49.9551 60.0361 50.1983C60.2793 50.4415 60.6092 50.5781 60.9531 50.5781C61.2971 50.5781 61.6269 50.4415 61.8702 50.1983C62.1134 49.9551 62.25 49.6252 62.25 49.2812V45.3906C62.25 45.0467 62.1134 44.7168 61.8702 44.4736C61.6269 44.2304 61.2971 44.0938 60.9531 44.0938Z" fill="#FF8310"/>
<path d="M7.78125 16.8594H18.1562C18.5002 16.8594 18.8301 16.7227 19.0733 16.4795C19.3165 16.2363 19.4531 15.9065 19.4531 15.5625C19.4531 15.2185 19.3165 14.8887 19.0733 14.6455C18.8301 14.4023 18.5002 14.2656 18.1562 14.2656H7.78125C7.4373 14.2656 7.10743 14.4023 6.86422 14.6455C6.62101 14.8887 6.48438 15.2185 6.48438 15.5625C6.48438 15.9065 6.62101 16.2363 6.86422 16.4795C7.10743 16.7227 7.4373 16.8594 7.78125 16.8594Z" fill="#FF8310"/>
<path d="M7.78125 20.75H10.375C10.719 20.75 11.0488 20.6134 11.292 20.3702C11.5352 20.1269 11.6719 19.7971 11.6719 19.4531C11.6719 19.1092 11.5352 18.7793 11.292 18.5361C11.0488 18.2929 10.719 18.1562 10.375 18.1562H7.78125C7.4373 18.1562 7.10743 18.2929 6.86422 18.5361C6.62101 18.7793 6.48438 19.1092 6.48438 19.4531C6.48438 19.7971 6.62101 20.1269 6.86422 20.3702C7.10743 20.6134 7.4373 20.75 7.78125 20.75Z" fill="#FF8310"/>
<path d="M70.0312 50.5781H75.2188C75.5627 50.5781 75.8926 50.4415 76.1358 50.1983C76.379 49.9551 76.5156 49.6252 76.5156 49.2812C76.5156 48.9373 76.379 48.6074 76.1358 48.3642C75.8926 48.121 75.5627 47.9844 75.2188 47.9844H70.0312C69.6873 47.9844 69.3574 48.121 69.1142 48.3642C68.871 48.6074 68.7344 48.9373 68.7344 49.2812C68.7344 49.6252 68.871 49.9551 69.1142 50.1983C69.3574 50.4415 69.6873 50.5781 70.0312 50.5781Z" fill="#FF8310"/>
<path d="M73.9219 46.6875H75.2188C75.5627 46.6875 75.8926 46.5509 76.1358 46.3077C76.379 46.0644 76.5156 45.7346 76.5156 45.3906C76.5156 45.0467 76.379 44.7168 76.1358 44.4736C75.8926 44.2304 75.5627 44.0938 75.2188 44.0938H73.9219C73.5779 44.0938 73.2481 44.2304 73.0048 44.4736C72.7616 44.7168 72.625 45.0467 72.625 45.3906C72.625 45.7346 72.7616 46.0644 73.0048 46.3077C73.2481 46.5509 73.5779 46.6875 73.9219 46.6875Z" fill="#FF8310"/>
</svg>
