<svg width="83" height="83" viewBox="0 0 83 83" fill="none" xmlns="http://www.w3.org/2000/svg">
<path d="M47.9844 70.0312H45.3906V57.3219C45.3906 56.9779 45.254 56.6481 45.0108 56.4048C44.7676 56.1616 44.4377 56.025 44.0938 56.025C43.7498 56.025 43.4199 56.1616 43.1767 56.4048C42.9335 56.6481 42.7969 56.9779 42.7969 57.3219V70.0312H9.07812V44.0938H19.8681C20.2121 44.0938 20.5419 43.9571 20.7852 43.7139C21.0284 43.4707 21.165 43.1408 21.165 42.7969C21.165 42.4529 21.0284 42.1231 20.7852 41.8798C20.5419 41.6366 20.2121 41.5 19.8681 41.5H7.78125C7.4373 41.5 7.10743 41.6366 6.86422 41.8798C6.62101 42.1231 6.48438 42.4529 6.48438 42.7969V70.0312H3.89062C3.54667 70.0312 3.21681 70.1679 2.9736 70.4111C2.73038 70.6543 2.59375 70.9842 2.59375 71.3281V73.9219C2.59375 75.6416 3.27692 77.291 4.49298 78.507C5.70904 79.7231 7.35836 80.4062 9.07812 80.4062H42.7969C44.5166 80.4062 46.166 79.7231 47.382 78.507C48.5981 77.291 49.2812 75.6416 49.2812 73.9219V71.3281C49.2812 70.9842 49.1446 70.6543 48.9014 70.4111C48.6582 70.1679 48.3283 70.0312 47.9844 70.0312ZM46.6875 73.9219C46.6875 74.9537 46.2776 75.9433 45.548 76.673C44.8183 77.4026 43.8287 77.8125 42.7969 77.8125H40.2031V76.5156C40.2031 76.1717 40.0665 75.8418 39.8233 75.5986C39.5801 75.3554 39.2502 75.2188 38.9062 75.2188C38.5623 75.2188 38.2324 75.3554 37.9892 75.5986C37.746 75.8418 37.6094 76.1717 37.6094 76.5156V77.8125H14.2656V76.5156C14.2656 76.1717 14.129 75.8418 13.8858 75.5986C13.6426 75.3554 13.3127 75.2188 12.9688 75.2188C12.6248 75.2188 12.2949 75.3554 12.0517 75.5986C11.8085 75.8418 11.6719 76.1717 11.6719 76.5156V77.8125H9.07812C8.04627 77.8125 7.05667 77.4026 6.32704 76.673C5.5974 75.9433 5.1875 74.9537 5.1875 73.9219V72.625H46.6875V73.9219Z" fill="#FF8310"/>
<path d="M70.0312 10.375H72.625C72.969 10.375 73.2988 10.2384 73.542 9.99515C73.7852 9.75194 73.9219 9.42208 73.9219 9.07812C73.9219 8.73417 73.7852 8.40431 73.542 8.1611C73.2988 7.91788 72.969 7.78125 72.625 7.78125H70.0312C68.9994 7.78125 68.0098 8.19115 67.2802 8.92079C66.5505 9.65042 66.1406 10.64 66.1406 11.6719V12.9688H64.8438C64.4998 12.9688 64.1699 13.1054 63.9267 13.3486C63.6835 13.5918 63.5469 13.9217 63.5469 14.2656C63.5469 14.6096 63.6835 14.9394 63.9267 15.1827C64.1699 15.4259 64.4998 15.5625 64.8438 15.5625H66.1406V19.4531C66.1406 19.7971 66.2773 20.1269 66.5205 20.3702C66.7637 20.6134 67.0935 20.75 67.4375 20.75C67.7815 20.75 68.1113 20.6134 68.3545 20.3702C68.5977 20.1269 68.7344 19.7971 68.7344 19.4531V15.5625H70.0312C70.3752 15.5625 70.7051 15.4259 70.9483 15.1827C71.1915 14.9394 71.3281 14.6096 71.3281 14.2656C71.3281 13.9217 71.1915 13.5918 70.9483 13.3486C70.7051 13.1054 70.3752 12.9688 70.0312 12.9688H68.7344V11.6719C68.7344 11.3279 68.871 10.9981 69.1142 10.7548C69.3574 10.5116 69.6873 10.375 70.0312 10.375Z" fill="#FF8310"/>
<path d="M76.5156 2.59375H60.9531C59.9213 2.59375 58.9317 3.00365 58.202 3.73329C57.4724 4.46292 57.0625 5.45252 57.0625 6.48438V9.07812C57.0625 9.42208 57.1991 9.75194 57.4423 9.99515C57.6856 10.2384 58.0154 10.375 58.3594 10.375C58.7033 10.375 59.0332 10.2384 59.2764 9.99515C59.5196 9.75194 59.6562 9.42208 59.6562 9.07812V6.48438C59.6562 6.14042 59.7929 5.81056 60.0361 5.56735C60.2793 5.32413 60.6092 5.1875 60.9531 5.1875H76.5156C76.8596 5.1875 77.1894 5.32413 77.4327 5.56735C77.6759 5.81056 77.8125 6.14042 77.8125 6.48438V22.0469C77.8125 22.3908 77.6759 22.7207 77.4327 22.9639C77.1894 23.2071 76.8596 23.3438 76.5156 23.3438H60.9531C60.6092 23.3438 60.2793 23.2071 60.0361 22.9639C59.7929 22.7207 59.6562 22.3908 59.6562 22.0469V14.2656C59.6562 13.9217 59.5196 13.5918 59.2764 13.3486C59.0332 13.1054 58.7033 12.9688 58.3594 12.9688C58.0154 12.9688 57.6856 13.1054 57.4423 13.3486C57.1991 13.5918 57.0625 13.9217 57.0625 14.2656V22.0469C57.0625 23.0787 57.4724 24.0683 58.202 24.798C58.9317 25.5276 59.9213 25.9375 60.9531 25.9375H76.5156C77.5475 25.9375 78.5371 25.5276 79.2667 24.798C79.9963 24.0683 80.4062 23.0787 80.4062 22.0469V6.48438C80.4062 5.45252 79.9963 4.46292 79.2667 3.73329C78.5371 3.00365 77.5475 2.59375 76.5156 2.59375Z" fill="#FF8310"/>
<path d="M63.5469 54.4687C63.5469 55.4947 63.8511 56.4977 64.4211 57.3508C64.9911 58.2038 65.8013 58.8687 66.7492 59.2614C67.6971 59.654 68.7402 59.7567 69.7464 59.5566C70.7527 59.3564 71.677 58.8623 72.4025 58.1369C73.128 57.4114 73.6221 56.4871 73.8222 55.4808C74.0224 54.4745 73.9197 53.4315 73.527 52.4836C73.1344 51.5357 72.4695 50.7255 71.6164 50.1555C70.7634 49.5855 69.7604 49.2812 68.7344 49.2812C67.3586 49.2812 66.0391 49.8278 65.0663 50.8006C64.0934 51.7735 63.5469 53.0929 63.5469 54.4687ZM71.3282 54.4687C71.3282 54.9817 71.176 55.4832 70.891 55.9098C70.606 56.3363 70.2009 56.6687 69.727 56.8651C69.253 57.0614 68.7315 57.1127 68.2284 57.0127C67.7252 56.9126 67.2631 56.6656 66.9003 56.3028C66.5376 55.9401 66.2906 55.4779 66.1905 54.9748C66.0904 54.4716 66.1418 53.9501 66.3381 53.4762C66.5344 53.0022 66.8668 52.5971 67.2934 52.3121C67.7199 52.0271 68.2214 51.875 68.7344 51.875C69.4223 51.875 70.082 52.1483 70.5685 52.6347C71.0549 53.1211 71.3282 53.7808 71.3282 54.4687Z" fill="#FF8310"/>
<path d="M76.5156 42.7969H60.9531C59.9213 42.7969 58.9317 43.2068 58.202 43.9364C57.4724 44.666 57.0625 45.6556 57.0625 46.6875V62.25C57.0625 63.2819 57.4724 64.2715 58.202 65.0011C58.9317 65.7307 59.9213 66.1406 60.9531 66.1406H76.5156C77.5475 66.1406 78.5371 65.7307 79.2667 65.0011C79.9963 64.2715 80.4062 63.2819 80.4062 62.25V59.6562C80.4062 59.3123 80.2696 58.9824 80.0264 58.7392C79.7832 58.496 79.4533 58.3594 79.1094 58.3594C78.7654 58.3594 78.4356 58.496 78.1923 58.7392C77.9491 58.9824 77.8125 59.3123 77.8125 59.6562V62.25C77.8125 62.594 77.6759 62.9238 77.4327 63.167C77.1894 63.4102 76.8596 63.5469 76.5156 63.5469H60.9531C60.6092 63.5469 60.2793 63.4102 60.0361 63.167C59.7929 62.9238 59.6562 62.594 59.6562 62.25V46.6875C59.6562 46.3435 59.7929 46.0137 60.0361 45.7705C60.2793 45.5273 60.6092 45.3906 60.9531 45.3906H76.5156C76.8596 45.3906 77.1894 45.5273 77.4327 45.7705C77.6759 46.0137 77.8125 46.3435 77.8125 46.6875V54.4688C77.8125 54.8127 77.9491 55.1426 78.1923 55.3858C78.4356 55.629 78.7654 55.7656 79.1094 55.7656C79.4533 55.7656 79.7832 55.629 80.0264 55.3858C80.2696 55.1426 80.4062 54.8127 80.4062 54.4688V46.6875C80.4062 45.6556 79.9963 44.666 79.2667 43.9364C78.5371 43.2068 77.5475 42.7969 76.5156 42.7969Z" fill="#FF8310"/>
<path d="M31.7345 17.9612C31.9409 18.0891 32.1791 18.1565 32.4219 18.1557C32.6249 18.1545 32.8248 18.1057 33.0055 18.0131L40.7867 14.1225C40.9992 14.0136 41.1774 13.8483 41.3019 13.6446C41.4264 13.441 41.4923 13.2069 41.4923 12.9682C41.4923 12.7296 41.4264 12.4955 41.3019 12.2919C41.1774 12.0882 40.9992 11.9229 40.7867 11.814L33.0055 7.9234C32.808 7.82392 32.5885 7.77655 32.3676 7.7858C32.1467 7.79506 31.9319 7.86062 31.7435 7.97626C31.555 8.09191 31.3993 8.2538 31.2911 8.44656C31.1828 8.63932 31.1257 8.85655 31.125 9.07762V16.8589C31.1246 17.0793 31.1803 17.2961 31.2869 17.489C31.3936 17.6819 31.5476 17.8444 31.7345 17.9612ZM33.7188 11.1786L37.2981 12.9682L33.7188 14.7579V11.1786Z" fill="#FF8310"/>
<path d="M35.0156 24.6406C37.3241 24.6406 39.5807 23.9561 41.5002 22.6736C43.4196 21.391 44.9156 19.5681 45.799 17.4354C46.6824 15.3026 46.9136 12.9558 46.4632 10.6917C46.0129 8.42756 44.9012 6.34783 43.2689 4.71549C41.6365 3.08315 39.5568 1.97151 37.2927 1.52115C35.0286 1.07079 32.6817 1.30193 30.549 2.18535C28.4162 3.06877 26.5933 4.56478 25.3108 6.48421C24.0283 8.40364 23.3438 10.6603 23.3438 12.9688C23.3438 16.0643 24.5735 19.0331 26.7624 21.222C28.9513 23.4109 31.9201 24.6406 35.0156 24.6406ZM35.0156 3.89063C36.8111 3.89063 38.5663 4.42305 40.0592 5.42057C41.552 6.41809 42.7156 7.8359 43.4027 9.49471C44.0898 11.1535 44.2696 12.9788 43.9193 14.7398C43.569 16.5008 42.7044 18.1184 41.4348 19.388C40.1652 20.6576 38.5477 21.5222 36.7867 21.8724C35.0257 22.2227 33.2004 22.043 31.5416 21.3559C29.8828 20.6687 28.465 19.5052 27.4674 18.0123C26.4699 16.5194 25.9375 14.7642 25.9375 12.9688C25.9375 10.5611 26.8939 8.25203 28.5964 6.54955C30.2989 4.84707 32.608 3.89063 35.0156 3.89063Z" fill="#FF8310"/>
<path d="M47.9844 29.8281C48.1857 29.8281 48.3843 29.7813 48.5643 29.6912C48.7444 29.6012 48.9011 29.4704 49.0219 29.3094L52.9125 24.1219C53.1188 23.8467 53.2074 23.5008 53.1588 23.1603C53.1101 22.8199 52.9282 22.5126 52.6531 22.3063C52.3779 22.0999 52.032 22.0113 51.6916 22.0599C51.3511 22.1086 51.0438 22.2905 50.8375 22.5656L46.9469 27.7531C46.7405 28.0283 46.6519 28.3742 46.7005 28.7147C46.7492 29.0552 46.9311 29.3624 47.2063 29.5688C47.4307 29.7371 47.7038 29.8281 47.9844 29.8281Z" fill="#FF8310"/>
<path d="M50.8375 34.4969C50.9583 34.6579 51.1149 34.7887 51.295 34.8787C51.4751 34.9688 51.6737 35.0156 51.875 35.0156C52.1556 35.0156 52.4286 34.9246 52.6531 34.7563L57.8406 30.8656C58.1157 30.6593 58.2977 30.352 58.3463 30.0115C58.3949 29.671 58.3063 29.3252 58.1 29.05C57.8936 28.7748 57.5864 28.5929 57.2459 28.5443C56.9054 28.4956 56.5595 28.5843 56.2843 28.7906L51.0969 32.6813C50.8217 32.8876 50.6398 33.1949 50.5912 33.5354C50.5425 33.8758 50.6311 34.2217 50.8375 34.4969Z" fill="#FF8310"/>
<path d="M63.5463 37.3503C63.5155 37.1783 63.4502 37.0144 63.3545 36.8683C63.2588 36.7222 63.1345 36.5969 62.9892 36.5C62.8438 36.4031 62.6804 36.3366 62.5087 36.3044C62.337 36.2722 62.1606 36.2751 61.9901 36.3128L55.5057 37.6096C55.3354 37.6267 55.1701 37.6771 55.0193 37.758C54.8684 37.8389 54.735 37.9487 54.6266 38.0812C54.4078 38.3487 54.3041 38.6922 54.3385 39.0362C54.3729 39.3801 54.5425 39.6963 54.81 39.9152C55.0776 40.1341 55.4211 40.2378 55.7651 40.2034H56.0244L62.5088 38.9065C62.6807 38.8757 62.8447 38.8104 62.9908 38.7147C63.1369 38.619 63.2621 38.4947 63.359 38.3494C63.4559 38.204 63.5224 38.0406 63.5546 37.8689C63.5868 37.6972 63.584 37.5208 63.5463 37.3503Z" fill="#FF8310"/>
<path d="M3.89062 37.6094H19.4531C19.7971 37.6094 20.1269 37.4727 20.3702 37.2295C20.6134 36.9863 20.75 36.6565 20.75 36.3125V15.5625C20.75 15.2185 20.6134 14.8887 20.3702 14.6455C20.1269 14.4023 19.7971 14.2656 19.4531 14.2656H3.89062C3.54667 14.2656 3.21681 14.4023 2.9736 14.6455C2.73038 14.8887 2.59375 15.2185 2.59375 15.5625V36.3125C2.59375 36.6565 2.73038 36.9863 2.9736 37.2295C3.21681 37.4727 3.54667 37.6094 3.89062 37.6094ZM5.1875 16.8594H18.1562V35.0156H5.1875V16.8594Z" fill="#FF8310"/>
<path d="M14.2656 19.4531H11.6719C11.3279 19.4531 10.9981 19.5898 10.7548 19.833C10.5116 20.0762 10.375 20.406 10.375 20.75C10.375 21.094 10.5116 21.4238 10.7548 21.667C10.9981 21.9102 11.3279 22.0469 11.6719 22.0469H14.2656C14.6096 22.0469 14.9394 21.9102 15.1827 21.667C15.4259 21.4238 15.5625 21.094 15.5625 20.75C15.5625 20.406 15.4259 20.0762 15.1827 19.833C14.9394 19.5898 14.6096 19.4531 14.2656 19.4531Z" fill="#FF8310"/>
<path d="M14.2656 24.6406H9.07812C8.73417 24.6406 8.40431 24.7773 8.1611 25.0205C7.91788 25.2637 7.78125 25.5935 7.78125 25.9375C7.78125 26.2815 7.91788 26.6113 8.1611 26.8545C8.40431 27.0977 8.73417 27.2344 9.07812 27.2344H14.2656C14.6096 27.2344 14.9394 27.0977 15.1827 26.8545C15.4259 26.6113 15.5625 26.2815 15.5625 25.9375C15.5625 25.5935 15.4259 25.2637 15.1827 25.0205C14.9394 24.7773 14.6096 24.6406 14.2656 24.6406Z" fill="#FF8310"/>
<path d="M14.2656 29.8281H9.07812C8.73417 29.8281 8.40431 29.9648 8.1611 30.208C7.91788 30.4512 7.78125 30.781 7.78125 31.125C7.78125 31.469 7.91788 31.7988 8.1611 32.042C8.40431 32.2852 8.73417 32.4219 9.07812 32.4219H14.2656C14.6096 32.4219 14.9394 32.2852 15.1827 32.042C15.4259 31.7988 15.5625 31.469 15.5625 31.125C15.5625 30.781 15.4259 30.4512 15.1827 30.208C14.9394 29.9648 14.6096 29.8281 14.2656 29.8281Z" fill="#FF8310"/>
<path d="M46.846 37.2202C46.7608 37.0721 46.6473 36.9421 46.5119 36.8378C46.3766 36.7335 46.222 36.6569 46.057 36.6123C45.892 36.5678 45.7199 36.5562 45.5504 36.5781C45.3809 36.6001 45.2174 36.6552 45.0692 36.7404C44.9211 36.8255 44.7911 36.939 44.6868 37.0744C44.5825 37.2098 44.5059 37.3644 44.4613 37.5294C44.4168 37.6944 44.4052 37.8665 44.4271 38.036C44.4491 38.2055 44.5042 38.3689 44.5894 38.5171L50.3086 48.4123L29.5586 56.1935C29.5586 56.1935 29.5586 56.1935 29.4678 56.1935H29.3641L25.9922 58.1388L23.7486 59.4357C23.4532 59.6065 23.1271 59.7173 22.7888 59.7618C22.4506 59.8063 22.1069 59.7836 21.7774 59.6951C21.1154 59.5163 20.5512 59.0826 20.2081 58.489L17.6144 54.0018C17.3093 53.4147 17.24 52.7332 17.4208 52.0968C17.6016 51.4603 18.0188 50.917 18.5871 50.578L23.0742 47.9843L26.3164 53.5998C26.4307 53.7977 26.5952 53.9619 26.7933 54.0757C26.9915 54.1896 27.2162 54.2491 27.4447 54.2482C27.6728 54.2491 27.8971 54.1898 28.095 54.0764C28.2928 53.9629 28.4573 53.7993 28.5717 53.602C28.6861 53.4047 28.7465 53.1807 28.7467 52.9526C28.747 52.7245 28.687 52.5004 28.573 52.3029L25.2271 46.5188L41.5028 33.0962L42.0346 34.017C42.1197 34.1651 42.2332 34.2951 42.3686 34.3994C42.504 34.5037 42.6586 34.5803 42.8235 34.6248C42.9885 34.6694 43.1607 34.681 43.3301 34.6591C43.4996 34.6371 43.6631 34.582 43.8113 34.4968C43.9594 34.4116 44.0894 34.2981 44.1937 34.1628C44.298 34.0274 44.3746 33.8728 44.4192 33.7078C44.4637 33.5428 44.4753 33.3707 44.4534 33.2012C44.4314 33.0317 44.3763 32.8682 44.2911 32.7201L42.9942 30.4765C42.8992 30.314 42.7699 30.1741 42.6154 30.0667C42.4609 29.9592 42.2848 29.8866 42.0994 29.854C41.913 29.8189 41.7212 29.825 41.5374 29.8721C41.3537 29.9191 41.1825 30.0059 41.036 30.1263L22.8797 45.0923L17.355 48.2826C16.3636 48.8601 15.5916 49.7499 15.1598 50.813C14.728 51.876 14.6608 53.0522 14.9688 54.1574L13.6719 54.8966C13.0037 55.2804 12.4645 55.8539 12.1226 56.5444C11.7808 57.235 11.6516 58.0115 11.7517 58.7755C11.8517 59.5396 12.1763 60.2567 12.6844 60.836C13.1925 61.4153 13.8612 61.8307 14.6056 62.0295C14.9357 62.1169 15.2758 62.1605 15.6172 62.1591C16.2995 62.1563 16.9695 61.9776 17.5625 61.6404L18.8594 60.9012C19.4824 61.5447 20.2659 62.0103 21.1289 62.2499C21.5721 62.3739 22.0305 62.435 22.4906 62.4315C23.4022 62.4336 24.2978 62.1918 25.0844 61.7312L26.2127 61.0827L28.8064 65.5829C29.3219 66.4741 30.1696 67.1247 31.1638 67.392C32.158 67.6594 33.2177 67.5219 34.1106 67.0095C34.5537 66.7542 34.942 66.4141 35.2535 66.0087C35.565 65.6032 35.7935 65.1404 35.926 64.6465C36.0585 64.1527 36.0924 63.6376 36.0257 63.1307C35.9589 62.6238 35.793 62.135 35.5372 61.6923L33.1769 57.5812L52.63 50.2798C52.8064 50.2135 52.9663 50.1095 53.0984 49.9751C53.2306 49.8407 53.3318 49.6791 53.3952 49.5016C53.4583 49.3262 53.4829 49.1393 53.4672 48.9535C53.4515 48.7678 53.396 48.5876 53.3044 48.4252L46.846 37.2202ZM16.2138 59.3838C16.0661 59.4692 15.903 59.5246 15.7339 59.5469C15.5648 59.5691 15.3929 59.5578 15.2281 59.5135C14.8959 59.4272 14.6114 59.2127 14.4371 58.917C14.3517 58.7693 14.2963 58.6062 14.274 58.4371C14.2518 58.2679 14.2631 58.0961 14.3074 57.9313C14.3516 57.7657 14.4283 57.6105 14.5329 57.4748C14.6376 57.339 14.7681 57.2253 14.9169 57.1402L16.0452 56.4918L17.3421 58.7354L16.2138 59.3838ZM33.2806 63.0151C33.366 63.1628 33.4214 63.3258 33.4437 63.495C33.4659 63.6641 33.4546 63.836 33.4103 64.0007C33.3178 64.3304 33.0987 64.6101 32.8008 64.7788C32.5046 64.949 32.1532 64.9954 31.8229 64.908C31.4927 64.8206 31.2103 64.6064 31.0371 64.312L28.4433 59.8118L30.5961 58.5798H30.6999L33.2806 63.0151Z" fill="#FF8310"/>
</svg>
