<svg id="not_found_solid_III" data-name="not found/solid_III" xmlns="http://www.w3.org/2000/svg" width="1547.139" height="735.654" viewBox="0 0 1547.139 735.654">
  <defs>
    <style>
      .cls-1 {
        fill: #5d21d1;
      }

      .cls-2, .cls-5 {
        fill: #fff;
      }

      .cls-3 {
        fill: #ff8310;
      }

      .cls-4 {
        fill: #7456f1;
      }

      .cls-5 {
        stroke: #7456f1;
        stroke-width: 6px;
      }

      .cls-6 {
        fill: none;
        stroke: #fff;
        stroke-width: 30px;
      }
    </style>
  </defs>
  <g id="not_found_solid_III-2" data-name="not found/solid_III" transform="translate(-73.031 -55.746)">
    <g id="not_found_solid_III-3" data-name="not found_solid_III">
      <g id="folders_bg" transform="translate(195 497)">
        <g id="folder_III_1_" transform="translate(71)">
          <rect id="Rectangle" class="cls-1" width="290" height="72.6" transform="translate(73.34 0.846) rotate(90)"/>
          <rect id="Rectangle-2" data-name="Rectangle" class="cls-2" width="135" height="39" transform="translate(54.617 25.49) rotate(90)"/>
          <rect id="Rectangle-3" data-name="Rectangle" class="cls-3" width="12.6" height="39" transform="translate(54.598 166.171) rotate(90)"/>
          <path id="Oval" class="cls-2" d="M16.7,33.4A16.7,16.7,0,0,1,4.892,4.892,16.7,16.7,0,0,1,28.509,28.509,16.59,16.59,0,0,1,16.7,33.4ZM16.7,6a10.7,10.7,0,1,0,7.566,3.134A10.712,10.712,0,0,0,16.7,6Z" transform="translate(17.7 224.3)"/>
          <path id="Path" class="cls-3" d="M31.9,0a3,3,0,0,1,.176,5.995L31.9,6H3A3,3,0,0,1,2.824.005L3,0Z" transform="translate(18.2 54.6)"/>
          <path id="Path-2" data-name="Path" class="cls-3" d="M31.9,0a3,3,0,0,1,.176,5.995L31.9,6H3A3,3,0,0,1,2.824.005L3,0Z" transform="translate(18.2 69.5)"/>
          <path id="Path-3" data-name="Path" class="cls-3" d="M31.9,0a3,3,0,0,1,.176,5.995L31.9,6H3A3,3,0,0,1,2.824.005L3,0Z" transform="translate(18.2 84.4)"/>
        </g>
        <g id="folder_II_2_" transform="translate(144 1)">
          <rect id="Rectangle-4" data-name="Rectangle" class="cls-1" width="290" height="72.6" transform="translate(72.606 0.074) rotate(90)"/>
          <rect id="Rectangle-5" data-name="Rectangle" class="cls-2" width="135" height="39" transform="translate(53.884 24.818) rotate(90)"/>
          <rect id="Rectangle-6" data-name="Rectangle" class="cls-4" width="12.6" height="39" transform="translate(53.865 165.499) rotate(90)"/>
          <path id="Oval-2" data-name="Oval" class="cls-2" d="M16.7,33.4A16.7,16.7,0,0,1,4.892,4.892,16.7,16.7,0,0,1,28.509,28.509,16.59,16.59,0,0,1,16.7,33.4ZM16.7,6a10.7,10.7,0,1,0,7.566,3.134A10.712,10.712,0,0,0,16.7,6Z" transform="translate(16.9 223.6)"/>
          <path id="Path-4" data-name="Path" class="cls-4" d="M32,0a3,3,0,0,1,.176,5.995L32,6H3A3,3,0,0,1,2.824.005L3,0Z" transform="translate(17 115.8)"/>
          <path id="Path-5" data-name="Path" class="cls-4" d="M32,0a3,3,0,0,1,.176,5.995L32,6H3A3,3,0,0,1,2.824.005L3,0Z" transform="translate(17 39)"/>
          <path id="Path-6" data-name="Path" class="cls-4" d="M32,0a3,3,0,0,1,.176,5.995L32,6H3A3,3,0,0,1,2.824.005L3,0Z" transform="translate(17 130.6)"/>
          <path id="Path-7" data-name="Path" class="cls-4" d="M32,0a3,3,0,0,1,.176,5.995L32,6H3A3,3,0,0,1,2.824.005L3,0Z" transform="translate(17 145.5)"/>
        </g>
        <g id="folder_2_" transform="translate(0 1)">
          <rect id="Rectangle-7" data-name="Rectangle" class="cls-1" width="290" height="72.6" transform="translate(72.786 0.095) rotate(90)"/>
          <rect id="Rectangle-8" data-name="Rectangle" class="cls-2" width="135" height="39" transform="translate(54.063 24.839) rotate(90)"/>
          <rect id="Rectangle-9" data-name="Rectangle" class="cls-3" width="12.6" height="39" transform="translate(54.045 165.42) rotate(90)"/>
          <path id="Oval-3" data-name="Oval" class="cls-2" d="M16.7,33.4A16.7,16.7,0,0,1,4.892,4.892,16.7,16.7,0,0,1,28.509,28.509,16.59,16.59,0,0,1,16.7,33.4ZM16.7,6a10.7,10.7,0,1,0,7.566,3.134A10.712,10.712,0,0,0,16.7,6Z" transform="translate(17.1 223.6)"/>
          <path id="Path-8" data-name="Path" class="cls-4" d="M31.9,0a3,3,0,0,1,.176,5.995L31.9,6H3A3,3,0,0,1,2.824.005L3,0Z" transform="translate(17.2 115.8)"/>
          <path id="Path-9" data-name="Path" class="cls-4" d="M31.9,0a3,3,0,0,1,.176,5.995L31.9,6H3A3,3,0,0,1,2.824.005L3,0Z" transform="translate(17.2 39)"/>
          <path id="Path-10" data-name="Path" class="cls-4" d="M31.9,0a3,3,0,0,1,.176,5.995L31.9,6H3A3,3,0,0,1,2.824.005L3,0Z" transform="translate(17.2 130.6)"/>
          <path id="Path-11" data-name="Path" class="cls-4" d="M31.9,0a3,3,0,0,1,.176,5.995L31.9,6H3A3,3,0,0,1,2.824.005L3,0Z" transform="translate(17.2 145.5)"/>
        </g>
      </g>
      <g id="man" transform="translate(202)">
        <g id="hands" transform="translate(0 317)">
          <g id="hand_II">
            <path id="Path-12" data-name="Path" class="cls-2" d="M42.392,67.6a47.174,47.174,0,0,0-10.7-32.2c-12.5-15.2-12.6-24.8-19.6-32-7-7.3-18.1-3.9-8.1,20.7s14.3,34.7,14.3,34.7Z" transform="translate(104.008 20.402)"/>
            <path id="Path_2_" class="cls-4" d="M45.4,73.625h0a3,3,0,0,1-1.031-.184l-24.1-8.8A3.013,3.013,0,0,1,18.533,63l-1.306-3.1-2.891-6.946c-1.3-3.149-2.69-6.51-4.117-9.99l-6-14.709C-.661,16.26-1.315,7.507,2.322,2.941A7.505,7.505,0,0,1,8.366,0c3,0,6.239,1.579,8.878,4.332,2.39,2.459,4.1,5.052,6.291,9.569l2.586,5.45c.853,1.768,1.58,3.191,2.357,4.612a78.936,78.936,0,0,0,8.533,12.555A50.381,50.381,0,0,1,40.426,41.2a50.539,50.539,0,0,1,7.2,18.176,45.414,45.414,0,0,1,.809,10.808c-.006.1-.012.2-.018.287l0,.031-.037.44A2.994,2.994,0,0,1,45.4,73.625ZM8.517,6.026a1.839,1.839,0,0,0-1.5.654c-.973,1.222-1.281,3.538-.889,6.7A52.508,52.508,0,0,0,9.772,25.994l.384.944c2.361,5.806,4.567,11.2,6.556,16.04l3.952,9.571,2.884,6.9,18.892,6.9-.013-.247a44.44,44.44,0,0,0-.6-5.074l-.1-.552a44.564,44.564,0,0,0-6.344-16.031,44.257,44.257,0,0,0-3.007-4.118,84.821,84.821,0,0,1-9.162-13.487c-.915-1.673-1.784-3.387-2.82-5.557-.062-.13-.242-.511-.476-1.008l0-.006c-.582-1.235-1.462-3.1-1.777-3.747l-.447-.908A26.57,26.57,0,0,0,12.928,8.5l-.2-.208A6.627,6.627,0,0,0,8.517,6.026Z" transform="translate(101.007 17.377)"/>
            <path id="Path-13" data-name="Path" class="cls-2" d="M0,.031c1.1,0,69.2-3.5,77.3,64" transform="translate(89.2 53.269)"/>
            <path id="Path_2_2" data-name="Path_2_" class="cls-4" d="M17.947.963a89.519,89.519,0,0,1,25.36,7.369C65.234,18.585,79.773,37.459,83.279,66.676a3,3,0,0,1-5.957.715C74.071,40.3,60.873,23.17,40.765,13.767A83.6,83.6,0,0,0,17.1,6.9a83.432,83.432,0,0,0-12.975-.9L3,6.033A3,3,0,0,1,2.824.039l.692-.02A88.444,88.444,0,0,1,17.947.963Z" transform="translate(86.2 50.267)"/>
            <path id="Path-14" data-name="Path" class="cls-2" d="M132.124,162.327s-8.4-49.8-19.5-67.1-35.8-16-35.8-16-62.8-55.7-71.9-65.7c-9.1-10.1-5.6-19.7,10.6-8.5s65.1,46.6,65.1,46.6,81.4-27.6,94.7,50.6l15,46.4Z" transform="translate(3.076 25.673)"/>
            <path id="Path_2_3" data-name="Path_2_" class="cls-4" d="M135.138,168.357a2.99,2.99,0,0,1-2.954-2.5l-.4-2.261-.58-3.136c-.193-1.022-.4-2.1-.633-3.29l-.521-2.615c-1.816-9-3.758-17.378-5.772-24.889-3.786-14.123-7.542-24.146-11.164-29.788A29.3,29.3,0,0,0,99.239,88.744,46.9,46.9,0,0,0,87.1,85.633a49.474,49.474,0,0,0-5.985-.4c-.3,0-.6,0-.885.012l-.445.012a3.005,3.005,0,0,1-1.934-.755L64.727,72.814c-6.56-5.859-12.8-11.452-18.536-16.622L41.333,51.81,36.5,47.434c-16.544-15-26.781-24.581-30.426-28.479l-.36-.391A23.178,23.178,0,0,1,.453,9.783c-.834-2.926-.511-5.452.935-7.307A6.512,6.512,0,0,1,6.816,0a15.761,15.761,0,0,1,5.76,1.3A38.826,38.826,0,0,1,19.5,5.082l.745.507c5.107,3.531,13.918,9.779,26.191,18.572L61.558,35.021c4.3,3.092,8.682,6.254,13.038,9.4l9.588,6.927.549-.161,1.163-.326c1.981-.541,4.087-1.046,6.26-1.5A110.9,110.9,0,0,1,114.783,46.9a84.968,84.968,0,0,1,17.751,1.805,64.194,64.194,0,0,1,17.6,6.438A54.7,54.7,0,0,1,164.369,66.43a62.441,62.441,0,0,1,10.5,16.38,91.142,91.142,0,0,1,6.393,21.734l14.933,46.19a3,3,0,0,1-1.993,3.8l-.174.046-58.2,13.7A3.018,3.018,0,0,1,135.138,168.357ZM6.915,6.028a2.581,2.581,0,0,0-.57.056.545.545,0,0,0-.224.079c-.344.442-.171,1.607.452,3.039a20.776,20.776,0,0,0,3.588,5.335C13.461,18.165,24.4,28.4,42.688,44.945l9.162,8.268c4.316,3.884,8.845,7.946,13.459,12.073l5.125,4.579,10.52,9.367.741,0a55.157,55.157,0,0,1,5.573.374l.575.069A52.891,52.891,0,0,1,101.536,83.2a35.176,35.176,0,0,1,16.63,13.436,68.29,68.29,0,0,1,5.88,12.3c1.861,4.891,3.75,10.828,5.615,17.645l.414,1.528c2.044,7.621,4.015,16.119,5.858,25.256.4,1.987.795,4,1.169,5.981l.438,2.36,51.945-12.226-14-43.3c-.022-.068-.042-.138-.059-.208l-.044-.211a85.931,85.931,0,0,0-5.8-20.1,56.685,56.685,0,0,0-9.475-15.006,48.8,48.8,0,0,0-12.864-10.251,58.2,58.2,0,0,0-15.966-5.83,78.955,78.955,0,0,0-16.487-1.668,104.936,104.936,0,0,0-21.4,2.322c-2.264.473-4.446,1-6.485,1.576l-.388.111c-.286.082-.513.148-.715.209l-.632.193-.562.18a3,3,0,0,1-2.723-.411L61.751,42.553c-3.381-2.435-6.38-4.593-9.168-6.6l-5.345-3.839L35.312,23.58c-7.128-5.089-12.743-9.064-16.689-11.814l-2.2-1.52a25.678,25.678,0,0,0-8.273-4.07A6.15,6.15,0,0,0,6.915,6.028Z" transform="translate(0.058 22.643)"/>
            <path id="Path-15" data-name="Path" class="cls-2" d="M38.742,98.6s-32.2-71.7-37.1-85.2,1.7-20.6,12.7-2.7,35.9,59.4,35.9,59.4" transform="translate(40.158 3.897)"/>
            <path id="Path_2_4" data-name="Path_2_" class="cls-4" d="M3.685.639C8.344-1.726,13.936,2.58,19.666,11.772L21.4,14.6c1.925,3.146,4.224,6.922,6.847,11.247l7.269,12.012c3.429,5.677,7.039,11.666,10.686,17.727L55.828,71.6a3,3,0,0,1-5.046,3.241l-.115-.18L42.159,60.5c-2.922-4.856-5.829-9.682-8.647-14.354L22.069,27.227c-2.875-4.736-5.322-8.749-7.269-11.917-2.449-3.985-4.718-6.753-6.611-8.239a5.85,5.85,0,0,0-1.61-.962l-.132-.04L6.4,6.057l-.046.1a5.121,5.121,0,0,0-.335,1.779,19.911,19.911,0,0,0,1.29,7.02l.162.458c1.654,4.556,6.6,16.21,13.936,32.975l4.229,9.631,3.553,8.048c2.106,4.761,4.264,9.621,6.437,14.5l8.862,19.835a3,3,0,1,1-5.473,2.458l-5.512-12.32L29.049,80.541c-2.366-5.321-4.706-10.6-6.974-15.736L16.713,52.619C8.873,34.727,3.61,22.352,1.836,17.463-.991,9.675-.688,2.86,3.685.639Z" transform="translate(37.144 0.861)"/>
            <path id="Path-16" data-name="Path" class="cls-2" d="M2.6,90.089S0,28.589,0,16.689c0-19.6,11.8-25.2,14.8,1.2,2,17.7,4.3,50.2,4.3,50.2" transform="translate(73.2 6.611)"/>
            <path id="Path_2_5" data-name="Path_2_" class="cls-4" d="M8.785.092C14.992-.935,19.134,6.731,20.727,20.1l.054.463q.263,2.331.543,5.083l.161,1.6c.381,3.834.779,8.166,1.189,12.905.529,6.113,1.055,12.621,1.558,19.165l.564,7.49.3,4.079a3,3,0,0,1-5.968.6l-.022-.244-.578-7.857L18.1,57.824c-.4-5.212-.823-10.378-1.244-15.312L16.436,37.7c-.259-2.916-.512-5.656-.758-8.193l-.323-3.248c-.184-1.812-.363-3.487-.536-5.017C14.146,15.317,13,10.91,11.572,8.226a6.221,6.221,0,0,0-1.55-2.057l-.136-.1c-.087-.057-.113-.063-.12-.062a1.569,1.569,0,0,0-.65.51A8.552,8.552,0,0,0,7.674,9.026,29.667,29.667,0,0,0,6,19.7l.007,1.184c.046,4.467.32,13.506.771,25.98l.363,9.773L7.3,60.748c.142,3.687.289,7.437.439,11.194L8.6,92.975a3,3,0,0,1-5.982.429l-.042-.87-.377-9.1c-.2-4.961-.406-10-.6-15L1.145,56.867.592,41.731C.212,30.808,0,23.163,0,19.7,0,9.1,3.253,1.007,8.785.092Z" transform="translate(70.2 3.599)"/>
          </g>
          <g id="hand" transform="translate(952)">
            <path id="Path-17" data-name="Path" class="cls-2" d="M.09,67.554a47.174,47.174,0,0,1,10.7-32.2c12.5-15.2,12.6-24.8,19.6-32s18.1-3.9,8.1,20.7-14.3,34.7-14.3,34.7Z" transform="translate(50.01 20.446)"/>
            <path id="Path_2_6" data-name="Path_2_" class="cls-4" d="M3.093,73.58A2.994,2.994,0,0,1,.112,70.894c-.011-.107-.033-.347-.057-.759l-.021-.419a46.51,46.51,0,0,1,.83-10.389A50.245,50.245,0,0,1,11.478,36.472a79.038,79.038,0,0,0,8.533-12.555c.863-1.579,1.686-3.2,2.668-5.261l.381-.807c.282-.6.672-1.427,1.035-2.193L25.2,13.349a32.917,32.917,0,0,1,6.043-9.062A12.879,12.879,0,0,1,40.118,0a7.516,7.516,0,0,1,6.044,2.929c1.81,2.263,2.569,5.564,2.257,9.812a53.033,53.033,0,0,1-4.145,15.468C40.61,37.223,37.3,45.313,34.422,52.255l-2.994,7.2-1.472,3.5A3.014,3.014,0,0,1,28.224,64.6l-24.1,8.8A3,3,0,0,1,3.093,73.58ZM39.967,6.025c-1.3,0-2.911.891-4.421,2.444a26.52,26.52,0,0,0-4.749,7.1l-.5,1.023L27.768,21.92c-.892,1.85-1.661,3.354-2.493,4.875a84.79,84.79,0,0,1-9.163,13.487A45.224,45.224,0,0,0,6.062,66.059l-.014.246,18.892-6.9,2.669-6.386,2.963-7.162c1.349-3.274,2.815-6.847,4.481-10.922l3.858-9.473a51.052,51.052,0,0,0,3.47-12.27c.363-3.07.05-5.323-.9-6.515A1.851,1.851,0,0,0,39.967,6.025Z" transform="translate(47.005 17.422)"/>
            <path id="Path-18" data-name="Path" class="cls-2" d="M77.3.031c-1.1,0-69.2-3.5-77.3,64" transform="translate(30 53.269)"/>
            <path id="Path_2_7" data-name="Path_2_" class="cls-4" d="M65.354.963A89.3,89.3,0,0,1,79.272.009L80.3.033a3,3,0,0,1,.176,5.995l-.176.005c-.073,0-.509-.013-.655-.016A82.574,82.574,0,0,0,66.2,6.9a83.6,83.6,0,0,0-23.662,6.864C22.428,23.17,9.229,40.3,5.979,67.391a3,3,0,0,1-5.957-.715C3.528,37.459,18.067,18.585,39.994,8.332A89.519,89.519,0,0,1,65.354.963Z" transform="translate(27 50.267)"/>
            <path id="Path-19" data-name="Path" class="cls-2" d="M58.2,162.327s8.4-49.8,19.5-67.1,35.8-16,35.8-16,62.8-55.7,71.9-65.7c9.1-10.1,5.6-19.7-10.6-8.5s-65.1,46.6-65.1,46.6-81.4-27.6-94.7,50.6l-15,46.4Z" transform="translate(3.1 25.673)"/>
            <path id="Path_2_8" data-name="Path_2_" class="cls-4" d="M61.2,168.357a3.021,3.021,0,0,1-.691-.081l-58.2-13.7a3,3,0,0,1-2.167-3.843l14.935-46.2.133-.76a90.2,90.2,0,0,1,6.374-21.223A62.35,62.35,0,0,1,31.921,66.489,54.679,54.679,0,0,1,45.857,55.345a63.635,63.635,0,0,1,17.187-6.468l.765-.167A84.966,84.966,0,0,1,81.56,46.9a110.914,110.914,0,0,1,22.626,2.453c2.407.5,4.721,1.066,6.878,1.672l.279.079.815.237,15.2-10.976c4.282-3.087,7.805-5.623,11.087-7.983l7.161-5.144L157,19.085c6.228-4.447,11.361-8.087,15.256-10.82l3.839-2.676a41.142,41.142,0,0,1,7.351-4.157A16.138,16.138,0,0,1,189.526,0a6.513,6.513,0,0,1,5.429,2.476c1.445,1.855,1.768,4.382.933,7.309a23.222,23.222,0,0,1-5.269,8.792c-3.169,3.482-12.822,12.555-28.693,26.968L153.4,53.259c-5.648,5.1-11.828,10.648-18.37,16.5l-5.13,4.584-11.347,10.1-.23.194a3.018,3.018,0,0,1-1.825.619c-.052,0-.106,0-.158,0l-.562-.015c-.179,0-.365,0-.552,0a49.467,49.467,0,0,0-5.986.4A46.9,46.9,0,0,0,97.1,88.744,29.308,29.308,0,0,0,83.226,99.877c-3.491,5.441-7.113,14.97-10.766,28.322l-.4,1.466c-2.012,7.506-3.954,15.88-5.773,24.889-.463,2.294-.9,4.545-1.3,6.689l-.432,2.352-.4,2.261A2.99,2.99,0,0,1,61.2,168.357ZM81.553,52.908a78.958,78.958,0,0,0-16.487,1.668A58.2,58.2,0,0,0,49.1,60.406,48.8,48.8,0,0,0,36.236,70.658,56.686,56.686,0,0,0,26.76,85.664a85.936,85.936,0,0,0-5.8,20.1,3.038,3.038,0,0,1-.1.419l-14,43.3L58.8,161.708l.146-.787c.291-1.574.605-3.225.935-4.906l.527-2.649c1.846-9.143,3.817-17.64,5.859-25.256,1.931-7.2,3.887-13.461,5.812-18.6a69.852,69.852,0,0,1,6.1-12.875A35.183,35.183,0,0,1,94.807,83.2,52.891,52.891,0,0,1,108.5,79.68a55.736,55.736,0,0,1,6.577-.446h.311l13.939-12.42c5.885-5.259,11.54-10.332,16.808-15.078l4.851-4.377,4.789-4.333c16.232-14.717,26.3-24.129,29.931-27.974l.465-.5a20.841,20.841,0,0,0,3.6-5.345c.624-1.433.8-2.6.454-3.041-.006-.008-.022-.021-.092-.044L190,6.084a2.579,2.579,0,0,0-.57-.056,6.16,6.16,0,0,0-1.241.148c-2.245.471-5.246,1.975-8.681,4.349-3.949,2.731-10.165,7.123-18.476,13.055L143.76,35.956c-4.488,3.226-9.316,6.7-14.76,10.628l-13.488,9.742-1.223.877a3,3,0,0,1-2.551.3c-.038-.014-.1-.034-.205-.068l-.988-.305c-.379-.113-.74-.218-1.1-.32l-.58-.16c-1.859-.508-3.845-.984-5.9-1.416A104.932,104.932,0,0,0,81.553,52.908Z" transform="translate(0.099 22.643)"/>
            <path id="Path-20" data-name="Path" class="cls-2" d="M11.5,98.6S43.7,26.9,48.6,13.4C53.4-.1,46.9-7.2,35.9,10.7S0,70.1,0,70.1" transform="translate(106.1 3.897)"/>
            <path id="Path_2_9" data-name="Path_2_" class="cls-4" d="M36.344,12.169C42.166,2.7,47.824-1.764,52.539.643c4.274,2.181,4.648,8.789,2.013,16.443l-.132.377c-1.879,5.176-7.668,18.746-16.287,38.37l-2.027,4.608-2.9,6.574c-2.941,6.653-5.991,13.519-9.051,20.383l-6.917,15.47a3,3,0,1,1-5.473-2.458L17.271,88.1l5.466-12.274c2.019-4.545,4.014-9.048,5.956-13.446l6.116-13.908c7.356-16.81,12.315-28.492,13.965-33.04a20.766,20.766,0,0,0,1.417-7.49A5.647,5.647,0,0,0,49.909,6.3l-.1-.235-.023.008a4.865,4.865,0,0,0-1.517.837l-.212.163a31.437,31.437,0,0,0-6.33,7.8l-.272.438c-1.714,2.788-3.814,6.23-6.253,10.244l-9.33,15.407-8.5,14.094L5.573,74.684A3,3,0,0,1,.339,71.756l.12-.21,6.3-10.492L14.4,48.363l11-18.223C29.9,22.717,33.611,16.618,36.344,12.169Z" transform="translate(103.1 0.86)"/>
            <path id="Path-21" data-name="Path" class="cls-2" d="M16.5,90.089s2.6-61.5,2.6-73.4c0-19.6-11.8-25.2-14.8,1.2-2,17.7-4.3,50.2-4.3,50.2" transform="translate(104.2 6.611)"/>
            <path id="Path_2_10" data-name="Path_2_" class="cls-4" d="M4.319,20.563l.11-.922C6.061,6.555,10.18-.923,16.315.092c5.455.9,8.693,8.781,8.783,19.163v1.017c-.026,4.564-.339,14.812-.87,29.287l-.377,10.036-.344,8.831c-.148,3.748-.3,7.523-.451,11.269L22.5,93.228a3,3,0,0,1-6-.077l.032-.869.377-9.1.454-11.241.492-12.578.626-16.957c.383-10.938.6-18.7.618-22.341V19.7A29.667,29.667,0,0,0,17.426,9.026a8.552,8.552,0,0,0-1.441-2.505,1.569,1.569,0,0,0-.65-.51l-.021,0a1.351,1.351,0,0,0-.236.153,6.221,6.221,0,0,0-1.55,2.057c-1.378,2.6-2.5,6.809-3.181,12.444l-.067.568q-.26,2.3-.537,5.019L9.422,29.5c-.328,3.384-.669,7.126-1.019,11.168C7.928,46.156,7.456,51.961,7,57.824l-.6,7.929-.406,5.56A3,3,0,1,1,.008,70.89l.524-7.147.186-2.458C1.216,54.737,1.738,48.189,2.267,42L2.774,36.2c.259-2.892.512-5.605.759-8.116l.243-2.432Q4.056,22.9,4.319,20.563Z" transform="translate(101.2 3.599)"/>
          </g>
        </g>
        <g id="hoodie" transform="translate(102 288)">
          <path id="Path-22" data-name="Path" class="cls-3" d="M929.219,189.463c1.3-15.3-.7-21.4-.7-21.4-35.2,3.7-63.4-29.9-63.4-29.9s-3.4,3.8-12.8,16c-9.5,12.2-27.4-1.6-38.1,15.9-8.6,14.2-39,88.4-50.4,116.3-34.5-102.6-78.9-154.7-151.3-167.8-9.4-57.2-50.2-129.8-212.4-117.1-100.8,18.2-131.6,69.8-124.6,124.3h-.5s-65.3-.9-101.8,107.7c-10.7-25.2-21.6-49.9-26.2-57.6-10.6-17.5-46.9-9.7-56.4-21.8-9.5-12.2-12.8-16-12.8-16s-28.2,33.6-63.4,29.9c0,0-2,6.1-.7,21.4s-17.3,17.1-13.1,37.1c4.1,20,69.7,199.5,69.7,199.5,6.2,16.7,14.3,68.9,48.2,70.7a1.352,1.352,0,0,0,1.2.9c53.7-.2,710.2.4,710.2.4a16.643,16.643,0,0,0,.1-2.1c29.2-6.9,36.8-54.2,42.7-70,0,0,65.5-179.4,69.7-199.5C946.519,206.463,927.919,204.763,929.219,189.463Z" transform="translate(0.781 0.837)"/>
          <path id="welt" class="cls-4" d="M87.8,51.6c2.5-16-.6-22-.6-22C55.1,36.6,25.4,0,25.4,0s-4,3.5-13.6,17C7.9,22.4,4,23,0,24.1c13.3,43.4,75.9,49.4,97.7,50C96,64.7,85.9,63.8,87.8,51.6Z" transform="translate(842.5 136.2)"/>
          <path id="welt_1_" class="cls-4" d="M10.4,51.7c-2.5-16,.7-22.1.7-22.1C43.2,36.6,72.9,0,72.9,0s4.8.5,14.5,14c3.9,5.4,10.5,10,14.5,11.1C88.6,68.5,21.8,74.4,0,74.9,1.6,65.6,12.3,63.9,10.4,51.7Z" transform="translate(3.7 136.2)"/>
          <path id="shape_3_" class="cls-4" d="M57.7,0C38.2,4,17.9,14.3,0,34.1,16.7,58.2,74.9,140.3,182.2,157.7a8.17,8.17,0,0,0-.5-2.2C122.2,131.1,64,63.2,57.7,0Z" transform="translate(218.3 123.3)"/>
          <path id="shape_II" class="cls-4" d="M28.7,0c3.7,22.2,2.7,42.2,2.2,54C29.2,92.9,11.8,120.1.8,139.5L0,159.4c45.4-10.7,81-94.7,87.1-136C71,14.5,68.1,8,28.7,0Z" transform="translate(584.6 119)"/>
          <g id="lines_2_" transform="translate(171 237)">
            <path id="Path-23" data-name="Path" class="cls-4" d="M2,.539A4,4,0,0,1,7.351,1.815l.257.433.808,1.419q.519.919,1.142,2.035l1.462,2.643q1.694,3.084,3.591,6.646l.422.8C20.69,26.458,26.349,37.852,31.633,49.5,36.724,60.732,41.2,71.626,44.9,81.98c5.816,16.3,9.517,30.757,10.686,42.939a4,4,0,1,1-7.963.764c-1.1-11.424-4.644-25.284-10.257-41.014-3.614-10.129-8.01-20.822-13.015-31.86-4.885-10.773-10.1-21.333-15.336-31.291L7.963,19.534c-1.954-3.686-3.769-7.018-5.4-9.937L1.451,7.605l-.912-1.6A4,4,0,0,1,2,.539Z" transform="translate(217.899 15.899)"/>
            <path id="Path-24" data-name="Path" class="cls-4" d="M21.057.144A4,4,0,0,1,23.9,4.861L23.181,7.6l-.615,2.394q-.478,1.887-1.005,4.04l-.176.724c-1.861,7.662-3.723,16.039-5.461,24.853-3,15.214-5.305,30.1-6.644,44.029-1.479,15.392-1.713,29.007-.5,40.339a4,4,0,0,1-7.955.848c-1.273-11.938-1.03-26.066.5-41.952C2.683,68.652,5.028,53.517,8.075,38.062c1.658-8.409,3.427-16.424,5.2-23.816l.333-1.379c.481-1.98.937-3.81,1.363-5.477l.56-2.171.606-2.279A4,4,0,0,1,21.057.144Z" transform="translate(387.703 11.299)"/>
            <path id="Path-25" data-name="Path" class="cls-4" d="M2.177.116A3,3,0,0,1,5.832,2.009l.053.168c.085.3,7.8,16.833,18.731,40.128L35.885,66.3l18.03,38.326a3,3,0,0,1-5.428,2.556L30.455,68.849,11.986,29.5C4.147,12.763.291,4.438.116,3.825A3,3,0,0,1,2.177.116Z" transform="translate(-2.601 -3.001)"/>
            <path id="Path-26" data-name="Path" class="cls-4" d="M33.1,1.508a3,3,0,0,1,5.291,2.824l-.086.161-32.7,57A3,3,0,0,1,.312,58.669L.4,58.508Z" transform="translate(560.399 49.499)"/>
            <path id="Path-27" data-name="Path" class="cls-4" d="M49.747,0A3,3,0,0,1,52.6,3.147l-.057.945-.1,1.394q-.044.564-.1,1.189c-.238,2.765-.574,5.843-1.023,9.155a174.886,174.886,0,0,1-5.959,27.82c-3.648,11.832-8.444,21.688-14.6,28.918C23.251,81.382,13.943,85.991,2.866,85.5A3,3,0,0,1,3.134,79.5c17.059.761,28.968-13.224,36.491-37.621a169.033,169.033,0,0,0,5.747-26.858c.4-2.92.7-5.649.925-8.128l.065-.736q.06-.7.107-1.316l.13-1.923,0-.068A3,3,0,0,1,49.571,0Z" transform="translate(92.1 179.7)"/>
          </g>
        </g>
        <path id="shirt_1_" class="cls-2" d="M222.2,388.67c-8.9-68.7-18.3-170.4-3.8-213.4,22.9-67.7,14-152.8-1.5-165.1S30.7.17,30.7.17L0,10.77s116.9,108.6,151.5,306.7c5.4,31.1,9.1,55.5,11.5,74.6" transform="translate(434.4 398.33)"/>
        <path id="neck_1_" class="cls-2" d="M28,0,25.5,43.3,0,60.9s66.8,46.3,126.5,115.3c0,0,36.7-25.9,45.2-108l-19.2-3-92-54.5Z" transform="translate(463.7 341)"/>
        <path id="neck_2_" class="cls-4" d="M129.5,182.2h0a3,3,0,0,1-2.271-1.037c-5.5-6.354-11.3-12.8-17.258-19.149a775.962,775.962,0,0,0-74.758-69.6C27.408,86.036,19.727,80,12.386,74.475l-1.8-1.348c-2.117-1.58-4.118-3.051-5.946-4.373L3.13,67.668l-2-1.417A3,3,0,0,1,1.3,61.433L25.589,44.665,28.005,2.829A3,3,0,0,1,31.938.152l32.5,10.7a3.068,3.068,0,0,1,.59.268l91.5,54.205,18.63,2.912a3,3,0,0,1,2.533,3.1l-.013.176c-3.184,30.751-10.608,57.254-22.064,78.775a117.87,117.87,0,0,1-16.568,24.041,69.784,69.784,0,0,1-5.561,5.5c-.771.674-1.492,1.264-2.03,1.663l-.23.167A2.981,2.981,0,0,1,129.5,182.2ZM33.77,7.072l-2.275,39.4a2.98,2.98,0,0,1-1.291,2.3L8.224,63.941l.99.719c.989.719,2.014,1.472,3.047,2.236l1.915,1.423C21.455,73.753,29.09,79.71,36.867,86.026l2.146,1.748a781.93,781.93,0,0,1,75.338,70.139c5.315,5.67,10.53,11.43,15.5,17.12l1.919,2.207c-.571-.66-1.2-1.382-1.919-2.207l.444-.4c1.258-1.145,2.57-2.454,3.9-3.889l.424-.462a111.816,111.816,0,0,0,15.705-22.817c10.641-19.987,17.706-44.54,21-72.976l.086-.768-16.371-2.558a2.993,2.993,0,0,1-.865-.274l-.2-.109L62.249,16.448,33.77,7.072h0Z" transform="translate(460.7 337.998)"/>
        <g id="head_1_" transform="translate(426)">
          <path id="ear_1_" class="cls-2" d="M30.2.7S-9.2,6.1,2,41.2s52.5,9.2,52.5,9.2L42.8,0Z" transform="translate(6.596 261.2)"/>
          <path id="ear_2_" class="cls-4" d="M28.618,65.6c-6.369,0-11.829-1.674-16.227-4.975C7.8,57.185,4.368,51.965,2.181,45.112c-2.839-8.9-2.9-16.808-.193-23.51C4.529,15.318,9.48,10.139,16.7,6.208A51.392,51.392,0,0,1,27.731,1.837a45.169,45.169,0,0,1,4.7-1.049l.406-.059c.085-.011.163-.019.24-.023l12.6-.7c.056,0,.112,0,.168,0a2.986,2.986,0,0,1,2.921,2.322l11.7,50.4a3,3,0,0,1-1.328,3.219c-.3.187-1.155.711-2.684,1.536l-.7.374c-1.992,1.049-4.064,2.029-6.157,2.913a56.382,56.382,0,0,1-19.577,4.811C29.546,65.594,29.076,65.6,28.618,65.6ZM43.486,6.135l-9.951.553-.158.026-.68.122-.6.119c-.9.185-1.834.411-2.787.671a45.34,45.34,0,0,0-9.738,3.853,31.215,31.215,0,0,0-7.424,5.462A21.28,21.28,0,0,0,7.521,23.95,22.593,22.593,0,0,0,6,32.676,36.974,36.974,0,0,0,7.9,43.288C11.4,54.266,18.173,59.6,28.6,59.6c.39,0,.789-.008,1.189-.022a50.471,50.471,0,0,0,17.465-4.343c2.166-.914,4.3-1.937,6.342-3.039l.516-.283Z" transform="translate(3.561 258.2)"/>
          <path id="face_1_" class="cls-2" d="M91.8,2.641c10.3-2.1,81.1-15.1,95.8,44.5s13.9,127.3,10.8,158.6-141.3,33.2-149.3,31.4-18.3-9.9-18.3-9.9l-29.3-90.7S-19,25.241,91.8,2.641Z" transform="translate(38.805 119.059)"/>
          <path id="face_2_" class="cls-4" d="M63.985,243.682h0c-6.434,0-10.772-.211-12.547-.61a29.341,29.341,0,0,1-5.061-1.7,56.246,56.246,0,0,1-6.589-3.429c-1.846-1.107-3.719-2.336-5.568-3.654-.4-.284-.738-.53-1.037-.751l-.615-.457-.626-.479a2.985,2.985,0,0,1-1-1.436l-29.3-90.7a2.854,2.854,0,0,1-.1-.379c-.034-.184-.08-.457-.13-.77l-.15-.99c-.15-1.038-.29-2.141-.416-3.278l-.086-.8C.349,130.3.1,126.131.025,121.854A142.668,142.668,0,0,1,5.211,80.249,112.954,112.954,0,0,1,15.569,55.294,99.758,99.758,0,0,1,31.826,33.976,101.394,101.394,0,0,1,44.263,23.45a110.411,110.411,0,0,1,14.509-8.77A128.078,128.078,0,0,1,75.4,7.741,155.825,155.825,0,0,1,94.2,2.705,134.352,134.352,0,0,1,111.833.338c3.2-.224,6.382-.338,9.458-.338A109.759,109.759,0,0,1,141.6,1.81,79.853,79.853,0,0,1,159.9,7.476a60.189,60.189,0,0,1,15.01,9.668A56.549,56.549,0,0,1,186.241,31.05a69.674,69.674,0,0,1,7.268,18.376A405.976,405.976,0,0,1,201.6,93c1.98,14.925,3.347,30.714,4.064,46.928,1.09,24.66.621,49.852-1.286,69.116A14.623,14.623,0,0,1,202.3,215.2a21.65,21.65,0,0,1-4.864,5.434,41.617,41.617,0,0,1-7.5,4.774,80.958,80.958,0,0,1-10.008,4.178l-1.079.369c-11.883,4-27.942,7.241-47.73,9.627l-2.184.258A649.083,649.083,0,0,1,63.985,243.682ZM121.286,6c-2.936,0-5.976.109-9.033.323A128.51,128.51,0,0,0,95.4,8.584a149.978,149.978,0,0,0-17.969,4.8,122.155,122.155,0,0,0-15.837,6.59,104.486,104.486,0,0,0-13.768,8.3,95.428,95.428,0,0,0-11.761,9.945A93.783,93.783,0,0,0,20.761,58.3a106.973,106.973,0,0,0-9.779,23.587,136.713,136.713,0,0,0-4.958,39.857c.078,4.374.343,8.626.789,12.638.139,1.243.289,2.407.447,3.458l.028.187.127.791,28.946,89.6.686.507.654.471c1.726,1.23,3.467,2.372,5.172,3.395a50.391,50.391,0,0,0,5.873,3.064,23.347,23.347,0,0,0,4.008,1.356,68.528,68.528,0,0,0,10.7.494c7.939,0,18.844-.353,29.92-.969,8.875-.493,22.127-1.391,34.859-2.865l1.264-.148c10.372-1.231,19.842-2.72,28.145-4.426a159.342,159.342,0,0,0,21.474-5.784c5.992-2.156,10.666-4.51,13.891-7,3.3-2.549,5.12-5.265,5.4-8.071.9-9.058,1.492-19.908,1.721-31.378.242-12.109.088-24.518-.459-36.882-.708-16.021-2.058-31.618-4.012-46.36a400.057,400.057,0,0,0-7.979-42.966,63.615,63.615,0,0,0-6.575-16.689A50.75,50.75,0,0,0,170.86,21.59a54.271,54.271,0,0,0-13.635-8.737A73.915,73.915,0,0,0,140.489,7.7,103.783,103.783,0,0,0,121.286,6Z" transform="translate(35.804 116.055)"/>
          <path id="beard" class="cls-5" d="M21.485,0C28.4,5.9,48.948,42.2,54.927,59.6c0,0,39.327-20.2,97.8-28.6,0,0,32.041-3.3,45.212-.8,0,0,4.017,63.8-18.4,99.9S101.353,164,73.609,147.5C45.772,131,40.541,122.1,32.321,101.7S0,4.5,0,4.5Z" transform="translate(40.825 253.3)"/>
          <path id="Trazado_18" data-name="Trazado 18" class="cls-6" d="M58.187,244.372l37.255,71.534,75.711-27.652,47.262-3.5a158.134,158.134,0,0,1,17.528-1.36"/>
          <path id="nose_1_" class="cls-4" d="M6.707.1a4,4,0,0,1,4.742,2.805l.051.2L24,57.607a4,4,0,0,1-2.8,4.741L21,62.4,4.9,66.1a4,4,0,0,1-1.991-7.746l.2-.051,12.2-2.8L3.7,4.9A4,4,0,0,1,6.507.153Z" transform="translate(179.099 240.599)"/>
          <ellipse id="eye_II_2_" class="cls-4" cx="5.6" cy="8.8" rx="5.6" ry="8.8" transform="translate(200.555 249.659) rotate(-6.379)"/>
          <ellipse id="eye_2_" class="cls-4" cx="5.6" cy="8.8" rx="5.6" ry="8.8" transform="translate(147.25 253.16) rotate(-6.379)"/>
          <path id="brow_II_1_" class="cls-4" d="M26.421,0A4,4,0,0,1,30.5,3.921c.171,8.671-5.25,14.492-13.785,17.846a43.552,43.552,0,0,1-8.521,2.326l-.675.112c-1.418.225-2.546.343-3.274.388a4,4,0,0,1-.689-7.968l.541-.045c.121-.011.267-.026.437-.044.69-.075,1.465-.182,2.3-.326a35.722,35.722,0,0,0,6.95-1.888c5.633-2.213,8.677-5.4,8.714-9.95l0-.292A4,4,0,0,1,26.421,0Z" transform="translate(153.793 248.415) rotate(180)"/>
          <path id="brow_1_" class="cls-4" d="M5.362.824A24.43,24.43,0,0,1,15.823.375a16.073,16.073,0,0,1,12.156,9.963,4,4,0,1,1-7.356,3.144A8.121,8.121,0,0,0,14.307,8.23a16.773,16.773,0,0,0-7.033.363c-.418.1-.8.211-1.15.318l-.358.116-.3.106A4,4,0,0,1,2.537,1.687,23.246,23.246,0,0,1,5.362.824Z" transform="translate(195.699 203.19)"/>
          <path id="mouth_2_" class="cls-4" d="M22.257,24.384h0A26.239,26.239,0,0,1,8.718,21.09,20.233,20.233,0,0,1,.688,12.112,5.881,5.881,0,0,1,.921,6.173C2.588,3.514,6.256,1.8,10.266,1.8c.186,0,.376,0,.563.011,1.839.086,3.678.13,5.466.13A92.77,92.77,0,0,0,34.4.264l.282-.053a13.758,13.758,0,0,1,2.4-.21A12.562,12.562,0,0,1,44.1,2.033a6.575,6.575,0,0,1,3.092,5.414l0,.3a13.553,13.553,0,0,1-4.845,10.773c-3.4,2.919-8.486,4.793-15.114,5.57A43.542,43.542,0,0,1,22.257,24.384ZM10.23,7.8A6.08,6.08,0,0,0,6.5,8.887c-.441.362-.484.466-.4.635l.133.276a14.377,14.377,0,0,0,5.821,6.3,20.322,20.322,0,0,0,10.1,2.3,38.392,38.392,0,0,0,4.38-.267c5.292-.621,9.039-1.842,11.456-3.735a8.015,8.015,0,0,0,3.193-6.886l-.111-.145a3.172,3.172,0,0,0-1.072-.75A7.089,7.089,0,0,0,37.065,6a7.616,7.616,0,0,0-1.489.145A98.7,98.7,0,0,1,16.3,7.939c-1.877,0-3.806-.046-5.735-.136C10.455,7.8,10.342,7.8,10.23,7.8Z" transform="translate(146.712 323.895)"/>
          <path id="hair" class="cls-4" d="M39.893,281.691s-19.1-22.2-32.9-48.7c-13-24.9-6.1-64.36,15.4-82.36,18-15.1,225.381-74.477,225.381-74.477s32.966,80.441-15.434,97.841c-53.1,19.2-115.272,31.085-136.172,22.085C111.267,200.68,124.093,273.991,39.893,281.691Z" transform="translate(-4.044 -20.408)"/>
        </g>
      </g>
      <g id="folders_1_" transform="translate(840 640)">
        <g id="folder_II_1_" transform="translate(0 72)">
          <rect id="Rectangle-10" data-name="Rectangle" class="cls-4" width="307.403" height="72.601" transform="translate(307.771 72.773) rotate(179.728)"/>
          <rect id="Rectangle-11" data-name="Rectangle" class="cls-2" width="135.002" height="39" transform="translate(303.02 54.305) rotate(179.728)"/>
          <rect id="Rectangle-12" data-name="Rectangle" class="cls-3" width="12.6" height="39" transform="translate(162.359 54.951) rotate(179.728)"/>
          <path id="Oval-4" data-name="Oval" class="cls-2" d="M16.7,33.4A16.7,16.7,0,0,1,4.892,4.892,16.7,16.7,0,0,1,28.509,28.509,16.59,16.59,0,0,1,16.7,33.4ZM16.7,6a10.7,10.7,0,1,0,7.566,3.134A10.712,10.712,0,0,0,16.7,6Z" transform="translate(52.1 20.3)"/>
          <path id="Path-28" data-name="Path" class="cls-3" d="M2.979,0A3,3,0,0,1,5.994,2.8L6,2.979l.2,29A3,3,0,0,1,.206,32.2L.2,32.021l-.2-29A3,3,0,0,1,2.979,0Z" transform="translate(267.7 18)"/>
          <path id="Path-29" data-name="Path" class="cls-3" d="M2.99,0a3,3,0,0,1,3,2.813L6,2.99l.1,28.9a3,3,0,0,1-5.994.2L.1,31.91,0,3.01A3,3,0,0,1,2.99,0Z" transform="translate(252.9 18.1)"/>
          <path id="Path-30" data-name="Path" class="cls-3" d="M2.99,0a3,3,0,0,1,3,2.813L6,2.99l.1,28.9a3,3,0,0,1-5.994.2L.1,31.91,0,3.01A3,3,0,0,1,2.99,0Z" transform="translate(238 18.2)"/>
        </g>
        <g id="folder_1_" transform="translate(53)">
          <rect id="Rectangle-13" data-name="Rectangle" class="cls-4" width="290" height="76.3" transform="translate(290.353 76.481) rotate(180)"/>
          <rect id="Rectangle-14" data-name="Rectangle" class="cls-2" width="135" height="39" transform="translate(265.632 54.024) rotate(180)"/>
          <rect id="Rectangle-15" data-name="Rectangle" class="cls-3" width="12.6" height="39" transform="translate(124.969 54.024) rotate(180)"/>
          <path id="Oval-5" data-name="Oval" class="cls-2" d="M16.7,33.4A16.7,16.7,0,0,1,4.892,4.892,16.7,16.7,0,0,1,28.509,28.509,16.59,16.59,0,0,1,16.7,33.4ZM16.7,6a10.7,10.7,0,1,0,7.566,3.134A10.712,10.712,0,0,0,16.7,6Z" transform="translate(33.5 17.1)"/>
          <path id="Path-31" data-name="Path" class="cls-3" d="M3,0A3,3,0,0,1,5.995,2.824L6,3V31.9a3,3,0,0,1-5.995.176L0,31.9V3A3,3,0,0,1,3,0Z" transform="translate(168.7 17.2)"/>
          <path id="Path-32" data-name="Path" class="cls-3" d="M3,0A3,3,0,0,1,5.995,2.824L6,3V31.9a3,3,0,0,1-5.995.176L0,31.9V3A3,3,0,0,1,3,0Z" transform="translate(245.4 17.2)"/>
          <path id="Path-33" data-name="Path" class="cls-3" d="M3,0A3,3,0,0,1,5.995,2.824L6,3V31.9a3,3,0,0,1-5.995.176L0,31.9V3A3,3,0,0,1,3,0Z" transform="translate(153.8 17.2)"/>
          <path id="Path-34" data-name="Path" class="cls-3" d="M3,0A3,3,0,0,1,5.995,2.824L6,3V31.9a3,3,0,0,1-5.995.176L0,31.9V3A3,3,0,0,1,3,0Z" transform="translate(139 17.2)"/>
        </g>
      </g>
      <g id="pile_of_files" transform="translate(1113 532)">
        <rect id="Rectangle-16" data-name="Rectangle" class="cls-1" width="359.1" height="253.3" transform="translate(15.5 2.4)"/>
        <path id="Path-35" data-name="Path" class="cls-4" d="M.5,0V257.2" transform="translate(216.5)"/>
        <path id="Path_2_11" data-name="Path_2_" class="cls-2" d="M6,0V257.2H0V0Z" transform="translate(214)"/>
        <path id="Path-36" data-name="Path" class="cls-4" d="M0,.5H162.5" transform="translate(168.7 29.9)"/>
        <path id="Path_2_12" data-name="Path_2_" class="cls-2" d="M165.5,0a3,3,0,0,1,.176,5.995L165.5,6H3A3,3,0,0,1,2.824.005L3,0Z" transform="translate(165.7 27.4)"/>
        <path id="Path-37" data-name="Path" class="cls-4" d="M0,.5H104.4" transform="translate(267 120.9)"/>
        <path id="Path_2_13" data-name="Path_2_" class="cls-2" d="M107.4,0a3,3,0,0,1,.176,5.995L107.4,6H3A3,3,0,0,1,2.824.005L3,0Z" transform="translate(264 118.4)"/>
        <path id="Path-38" data-name="Path" class="cls-4" d="M0,.5H203.6" transform="translate(152.4 205.8)"/>
        <path id="Path_2_14" data-name="Path_2_" class="cls-2" d="M206.6,0a3,3,0,0,1,.176,5.995L206.6,6H3A3,3,0,0,1,2.824.005L3,0Z" transform="translate(149.4 203.3)"/>
        <path id="Path-39" data-name="Path" class="cls-4" d="M105.2.5H0" transform="translate(75.7 98.2)"/>
        <path id="Path_2_15" data-name="Path_2_" class="cls-2" d="M108.2,0a3,3,0,0,1,.176,5.995L108.2,6H3A3,3,0,0,1,2.824.005L3,0Z" transform="translate(72.7 95.7)"/>
        <path id="Path-40" data-name="Path" class="cls-4" d="M0,.5H63.8" transform="translate(15.9 58.4)"/>
        <path id="Path_2_16" data-name="Path_2_" class="cls-2" d="M66.8,0a3,3,0,0,1,.176,5.995L66.8,6H3A3,3,0,0,1,2.824.005L3,0Z" transform="translate(12.9 55.9)"/>
        <path id="Path-41" data-name="Path" class="cls-4" d="M0,.5H124.8" transform="translate(15.5 175.4)"/>
        <path id="Path_2_17" data-name="Path_2_" class="cls-2" d="M127.8,0a3,3,0,0,1,.176,5.995L127.8,6H3A3,3,0,0,1,2.824.005L3,0Z" transform="translate(12.5 172.9)"/>
        <path id="Path-42" data-name="Path" class="cls-1" d="M11.707,0c-26.8,10.6.8,28.2.8,28.2s6.9-20,42.3-28.2Z" transform="translate(3.293 59.3)"/>
        <path id="Path_2_18" data-name="Path_2_" class="cls-2" d="M15.513,34.2h0a2.987,2.987,0,0,1-1.608-.472c-.254-.162-.811-.528-1.687-1.17l-.455-.338A46.9,46.9,0,0,1,7.17,28.3a27.334,27.334,0,0,1-5.811-7.712A12.769,12.769,0,0,1,.222,12.6a12.823,12.823,0,0,1,4.1-6.934,29.747,29.747,0,0,1,9.3-5.458A2.975,2.975,0,0,1,14.719,0h43.1A2.9,2.9,0,0,1,60.8,2.659a2.9,2.9,0,0,1-2.3,3.264C47.435,8.484,38.133,12.481,30.849,17.8A42.7,42.7,0,0,0,20.711,27.953a25.956,25.956,0,0,0-1.9,3.21c-.231.47-.354.763-.407.9l-.109.288A2.991,2.991,0,0,1,15.513,34.2ZM15.3,6l-.272.113C9.784,8.306,6.8,10.819,6.148,13.582l-.039.18a7.369,7.369,0,0,0,.969,4.79,22.316,22.316,0,0,0,4.282,5.457c.868.847,1.821,1.69,2.834,2.5l.216.171.172-.289c.271-.453.562-.913.865-1.367l.317-.471a48.67,48.67,0,0,1,11.547-11.6A68.4,68.4,0,0,1,39.148,6.084L39.334,6Z" transform="translate(0.282 56.3)"/>
        <path id="Path-43" data-name="Path" class="cls-1" d="M43.1,0c26.8,10.6-.8,28.2-.8,28.2S35.4,8.2,0,0C4.7.1,43.1,0,43.1,0Z" transform="translate(332.6 121)"/>
        <path id="Path_2_19" data-name="Path_2_" class="cls-2" d="M45.307,34.2h0a3,3,0,0,1-2.84-2.023l-.019-.052c-.026-.07-.106-.272-.276-.634l-.157-.329a26.05,26.05,0,0,0-1.9-3.21A42.718,42.718,0,0,0,29.971,17.8C22.687,12.481,13.386,8.485,2.325,5.923a2.9,2.9,0,0,1-2.3-3.261A3.084,3.084,0,0,1,.9.813,2.9,2.9,0,0,1,2.988,0h.079c.519.011,1.479.02,2.776.026L25.71.039,46.094,0H46.1a2.987,2.987,0,0,1,1.1.211,29.748,29.748,0,0,1,9.3,5.458A12.823,12.823,0,0,1,60.6,12.6a12.769,12.769,0,0,1-1.137,7.989A27.334,27.334,0,0,1,53.651,28.3a47.014,47.014,0,0,1-4.594,3.918c-.788.591-1.386,1.006-1.749,1.25l-.392.257A2.988,2.988,0,0,1,45.307,34.2ZM45.523,6l-23.942.041.924.429a68.246,68.246,0,0,1,10.479,6.1l.526.38a48.657,48.657,0,0,1,11.547,11.6c.423.617.821,1.235,1.182,1.837l.171.289.217-.171c.8-.642,1.567-1.308,2.285-1.98l.55-.524a22.32,22.32,0,0,0,4.282-5.457,7.373,7.373,0,0,0,.969-4.79c-.558-2.833-3.559-5.407-8.92-7.649Z" transform="translate(329.598 118)"/>
        <path id="Path-44" data-name="Path" class="cls-1" d="M97.256,0s-62.2,11.7-60.7,48.4c0,0-49.9-18.3-33.1-48.4Z" transform="translate(12.544 176.1)"/>
        <path id="Path_2_20" data-name="Path_2_" class="cls-2" d="M39.566,54.4h0a3.008,3.008,0,0,1-1.037-.186c-.186-.068-.721-.269-1.679-.662l-.492-.2c-1.219-.51-2.493-1.078-3.785-1.686A96.05,96.05,0,0,1,19.6,44.338a63.852,63.852,0,0,1-9.863-8.1,38.472,38.472,0,0,1-6.714-9.077,25.6,25.6,0,0,1-3.017-12.5A28.331,28.331,0,0,1,3.842,1.538,3,3,0,0,1,6.462,0h93.8a2.924,2.924,0,0,1,2.128.835,3.074,3.074,0,0,1,.859,1.887,3.073,3.073,0,0,1-.5,2.013,2.924,2.924,0,0,1-1.937,1.213l-1.191.246-.108.024L99,6.331l-1.362.313c-1.945.46-3.978.992-6.043,1.583a128.762,128.762,0,0,0-20.4,7.646c-9.489,4.573-16.726,9.8-21.51,15.533a31.617,31.617,0,0,0-5.522,9.382,27.235,27.235,0,0,0-1.61,10.489,2.966,2.966,0,0,1-.828,2.2A3.02,3.02,0,0,1,39.566,54.4ZM8.281,6,8.1,6.389A21.3,21.3,0,0,0,6,15.251a19.49,19.49,0,0,0,1.915,8.39,30.258,30.258,0,0,0,5.613,7.933,57.412,57.412,0,0,0,8.991,7.489l.452.309a90.129,90.129,0,0,0,12.161,6.864c.377.177.736.343,1.069.495l.475.214.057-.571c1.525-14.226,12.041-26.206,31.256-35.608l.612-.3c3.115-1.5,6.437-2.92,9.873-4.219L79.135,6H8.281Z" transform="translate(9.538 173.1)"/>
      </g>
      <path id="line_2_" class="cls-4" d="M1543.483,0a3.839,3.839,0,0,1,3.655,4,3.861,3.861,0,0,1-3.473,4l-.182,0H3.655A3.839,3.839,0,0,1,0,4,3.861,3.861,0,0,1,3.473,0l.182,0Z" transform="translate(73.031 783.4)"/>
    </g>
  </g>
</svg>
