<svg id="search_outline_II" data-name="search/outline_II" xmlns="http://www.w3.org/2000/svg" width="1637.561" height="840.823" viewBox="0 0 1637.561 840.823">
  <defs>
    <style>
      .cls-1 {
        fill: #7456f1;
      }

      .cls-2 {
        fill: #ff8310;
      }

      .cls-3 {
        fill: none;
        stroke: #fff;
        stroke-width: 30px;
      }
    </style>
  </defs>
  <g id="search_outline_II-2" data-name="search/outline_II" transform="translate(0 2.023)">
    <g id="search_outline_II-3" data-name="search_outline_II">
      <g id="shape_5_" transform="translate(554 483)">
        <path id="Path" class="cls-1" d="M480.2,46.4h-26a14.51,14.51,0,0,1-14.5-14.5V0L399.4,9.8l10.8,42.4c11.4,155.2-193.1,172.2-200.8,4.1L82.7,87.3v-.1L0,105.2,55.1,325.1l114.8-27.7c15.8,30.6,27.4,51.8,27.4,51.8H551.6Z" transform="translate(0.4 0.6)"/>
      </g>
      <g id="flower_II_1_" transform="translate(78 24)">
        <g id="leaves_6_">
          <g id="Group">
            <path id="Path-2" data-name="Path" class="cls-2" d="M7.82,0c30.931.387,58.849,4.4,84,11.719a3,3,0,1,1-1.677,5.761C66.372,10.559,40.029,6.655,10.879,6.052l-.749-.015-.151.683C9.44,9.174,8.9,12.035,8.4,15.273a209.537,209.537,0,0,0,4.984,86.546,3,3,0,0,1-5.793,1.561,215.562,215.562,0,0,1-5.262-88.1l.144-.935c.524-3.361,1.086-6.343,1.65-8.915l.167-.749q.123-.54.237-1.017l.324-1.3q.026-.1.045-.167A3,3,0,0,1,7.82,0Z" transform="translate(52.418 167)"/>
            <path id="Path-3" data-name="Path" class="cls-2" d="M4.168,2.473a3,3,0,1,1,5.906,1.055,256.266,256.266,0,0,0,.593,94.208,3,3,0,0,1-5.893,1.129A262.258,262.258,0,0,1,4.168,2.473Z" transform="translate(136.078 178.299)"/>
            <path id="Path-4" data-name="Path" class="cls-2" d="M96.054,1.012A3,3,0,0,1,99.7.345l.488.263q.576.314,1.351.75l.906.516q1.633.937,3.591,2.119l.565.343c5.423,3.3,11.458,7.283,17.952,11.954a345.445,345.445,0,0,1,54.368,48.658A325.361,325.361,0,0,1,208.6,103.039a3,3,0,0,1-5,3.322,319.371,319.371,0,0,0-29.135-37.389A339.484,339.484,0,0,0,121.046,21.16c-6.063-4.361-11.71-8.1-16.808-11.235l-.761-.465q-1.94-1.181-3.563-2.118l-.958-.549-.011.012C46.862,66.143,16.934,124.77,6.274,182.268l-.32,1.76a3,3,0,0,1-5.906-1.055C10.726,123.194,41.742,62.371,96.054,1.012Z" transform="translate(140.199 -2.2)"/>
            <path id="Path-5" data-name="Path" class="cls-2" d="M107.765,11.855c35.063-14.736,75.8-16.148,122.511-1.906a3,3,0,0,1,2.113,3.142l-.06.605-.146,1.313-.17,1.408c-.2,1.587-.443,3.365-.737,5.321-1.025,6.813-2.441,14.4-4.313,22.563a301.844,301.844,0,0,1-24.284,68.47,3,3,0,0,1-5.356-2.7,295.942,295.942,0,0,0,23.791-67.105c1.836-8.011,3.225-15.448,4.228-22.115l.2-1.365q.241-1.666.429-3.127l.171-1.379-.334-.1C182.008,2.038,143.937,3.46,111.1,16.965l-1.014.422C82.386,29.03,59.328,48.909,40.525,74.734a242.309,242.309,0,0,0-26.765,47.5c-2.416,5.667-4.414,10.925-6.016,15.638l-.359,1.068q-.519,1.559-.921,2.859l-.348,1.144-.224.771a3,3,0,1,1-5.785-1.593l.255-.882q.1-.353.232-.769l.28-.9q.513-1.634,1.188-3.626c1.65-4.851,3.7-10.249,6.178-16.059A248.24,248.24,0,0,1,35.675,71.2C55.08,44.551,78.962,23.961,107.765,11.855Z" transform="translate(397.599 218.181)"/>
            <path id="Path-6" data-name="Path" class="cls-2" d="M182.254.43A3,3,0,0,1,185.838.8l.326.308.649.627q1.007.984,2.28,2.294l.368.381c2.83,2.937,5.978,6.421,9.363,10.443a288.6,288.6,0,0,1,28.3,40.393,304.111,304.111,0,0,1,24.51,53.17,3,3,0,0,1-5.666,1.974A298.126,298.126,0,0,0,221.94,58.265a282.627,282.627,0,0,0-27.706-39.552l-1.225-1.444c-2.629-3.074-5.094-5.8-7.351-8.16l-.517-.539q-.536-.557-1.026-1.054l-.745-.75-1.129.687C132.23,37.963,92.808,72.1,63.106,109.31l-.916,1.152C35.3,144.435,16.847,180.486,5.881,218.041a3,3,0,1,1-5.759-1.682C24.132,134.135,82.383,60.534,182.254.43Z" transform="translate(272.699 10.3)"/>
            <path id="Path-7" data-name="Path" class="cls-2" d="M169.792,1.085c35.912,43.283,56.584,84.528,63.841,123.669a3,3,0,0,1-5.9,1.094c-6.918-37.314-26.467-76.787-60.46-118.382l-.623-.76-1.127.543Q164.3,7.84,162.9,8.533l-1.143.571-1.783.9c-5.11,2.6-10.72,5.6-16.715,8.992A442.989,442.989,0,0,0,87.115,56.468C50.868,85.084,24.7,116.3,12.89,149.486-1.669,190.4,6.378,232.38,41.5,275.3a3,3,0,0,1-4.643,3.8C.428,234.583-8.04,190.407,7.237,147.474,19.488,113.047,46.344,81.011,83.4,51.758A448.9,448.9,0,0,1,140.31,13.774l2.128-1.2C148.421,9.233,154,6.283,159.071,3.741l1.165-.582q1.707-.848,3.167-1.551l1.256-.6,1.584-.739A3,3,0,0,1,169.792,1.085Z" transform="translate(231.117 136.1)"/>
            <path id="Path-8" data-name="Path" class="cls-2" d="M2.737,1.039C70.1-4.891,130.5,14.828,183.629,53.515a356.028,356.028,0,0,1,55.537,50.536,367.155,367.155,0,0,1,31.428,40.308,3,3,0,1,1-4.986,3.337,361.2,361.2,0,0,0-30.913-39.645,350.07,350.07,0,0,0-54.6-49.686C128.073,20.483,69.073,1.222,3.263,7.016a3,3,0,1,1-.526-5.977Z" transform="translate(60 267.373)"/>
            <path id="Path-9" data-name="Path" class="cls-2" d="M64.843.011a3,3,0,0,1,.516,5.978A290.716,290.716,0,0,0,8.543,16.965l-1.372.406.572,1.183q.364.747.764,1.55l.835,1.659c3.049,6,6.761,12.684,11.151,19.892a350.753,350.753,0,0,0,46.491,60.453,302.5,302.5,0,0,0,59.49,48.339,3,3,0,1,1-3.144,5.11,308.467,308.467,0,0,1-60.672-49.292A356.705,356.705,0,0,1,15.368,44.775C10.9,37.432,7.11,30.61,3.994,24.481l-.581-1.15q-.988-1.97-1.782-3.64l-.438-.927Q.947,18.241.744,17.8L.273,16.749l-.025-.057a3,3,0,0,1,1.868-4.059A300.324,300.324,0,0,1,64.843.011Z" transform="translate(-2.101 268.4)"/>
          </g>
        </g>
        <path id="pot_4_" class="cls-1" d="M56.3,0A17.511,17.511,0,0,1,73.8,17.172l0,.328V70.4A17.511,17.511,0,0,1,56.628,87.9l-.328,0H32.894L17.925,153.666a3,3,0,0,1-3.418,2.294l-.173-.034a3,3,0,0,1-2.294-3.418l.034-.173,15.5-68.1a3,3,0,0,1,2.744-2.329L30.5,81.9H56.3A11.511,11.511,0,0,0,67.8,70.692l0-.292V17.5A11.511,11.511,0,0,0,56.592,6L56.3,6H3A3,3,0,0,1,2.824.005L3,0Z" transform="translate(501 410.2)"/>
        <path id="pot_3_" class="cls-1" d="M247.7,0a3,3,0,0,1,.176,5.995L247.7,6H17.5A11.511,11.511,0,0,0,6,17.208L6,17.5V70.4A11.511,11.511,0,0,0,17.208,81.9l.292,0H41.6a3,3,0,0,1,2.88,2.158l.046.176,71.9,315.8a3,3,0,0,1-5.806,1.5l-.044-.171L39.206,87.9H17.5A17.511,17.511,0,0,1,0,70.729L0,70.4V17.5A17.511,17.511,0,0,1,17.172,0L17.5,0Z" transform="translate(118 410.3)"/>
      </g>
      <g id="guy_1_" transform="translate(324 114)">
        <g id="arm_2_" transform="translate(0 224)">
          <path id="arm_4_" class="cls-1" d="M130.606.349l.187.108,262.2,164.1a3,3,0,0,1-1.008,5.486l-9.507,1.917q-5.12,1.042-11.252,2.306l-11.108,2.305c-13.535,2.824-28.161,5.932-43.651,9.292-55.3,11.993-110.594,24.784-162.371,37.871l-3.782.958c-51.45,13.062-96.571,25.723-133.584,37.727l-3.722,1.214q-4.616,1.514-9.046,3.01a3,3,0,1,1-1.92-5.684l3.594-1.207q4.529-1.512,9.244-3.041l2.7-.872c36.638-11.789,80.936-24.187,131.259-36.963,51.677-13.119,106.95-25.952,162.307-38L318.9,179.2c15.981-3.455,31.006-6.636,44.823-9.5l14.931-3.076,4.767-.971L128.662,6.2l-3.656.854q-2.363.556-5.165,1.226l-3.483.837c-7.078,1.709-14.818,3.624-23.08,5.726-27.535,7-55.23,14.633-81.3,22.623a3,3,0,1,1-1.758-5.737c25.123-7.7,51.735-15.062,78.262-21.855L91.8,9.03C100.545,6.805,108.709,4.788,116.128,3l6.29-1.5L128.535.075A3,3,0,0,1,130.606.349Z" transform="translate(183.699 232.7)"/>
          <path id="forearm_1_" class="cls-1" d="M213.658,3.695c16.886-5.556,33.949-4.943,51.161,2.5l12.737,5.626c39.791,17.619,60.17,27.584,74.036,37.223l.418.292c9.138,6.408,14.093,12.045,14.411,17.592.369,6.436-5.242,11.047-16.224,14.259l-.481.139c-14.409,4.1-36.579,16.533-64.234,35.274q-9.112,6.175-18.8,13.107c-15.367,10.992-30.981,22.773-46.023,34.554l-2.745,2.155q-4.954,3.9-9.295,7.378l-3.279,2.636-3.239,2.624.025,3.987.019,4.314c.081,22.478-.072,47.772-.617,72.04l-.128,5.39c-.727,28.878-1.96,51.472-3.8,65.582l-.13.971a390.975,390.975,0,0,1-18.451,76.719,3,3,0,0,1-5.646-2.03,385.162,385.162,0,0,0,17.964-74.109l.313-2.324c1.874-14.332,3.12-37.864,3.831-67.995l.105-4.685c.5-23.487.642-47.831.564-69.538l-.053-9.708a3,3,0,0,1,1.095-2.344l3.464-2.818,1.9-1.53c4.035-3.249,8.558-6.846,13.484-10.71l.928-.728c15.107-11.832,30.788-23.663,46.232-34.711q9.726-6.957,18.921-13.193l2.52-1.7c26.438-17.765,47.783-29.676,62.515-34.107l1.794-.525c8.264-2.474,11.642-5.287,11.485-8.029-.177-3.093-4.151-7.613-11.866-13.023l-.814-.565c-12.879-8.87-32-18.309-67.944-34.3l-16.728-7.4c-16.072-7.123-31.83-7.764-47.549-2.592-19.472,6.392-32.421,15.084-46.66,31.675l-.528.618c-12.692,14.928-24.4,32.646-54.359,81.322l-2.833,4.606-.074.114C57.26,207.006,21.209,296.405,9.737,372.081-1.008,442.97,11.823,490.654,43,495.987A3,3,0,0,1,41.99,501.9C6.3,495.8-7.377,444.952,3.8,371.182,15.3,295.366,51.078,206.165,104.49,126.762l1.6-2.365,4.571-7.428c28.533-46.306,40.159-63.848,52.714-78.7l.4-.473C178.932,19.972,192.891,10.512,213.658,3.695Z" transform="translate(-2.796 -2.044)"/>
        </g>
        <g id="head_2_" transform="translate(242)">
          <path id="Path-10" data-name="Path" class="cls-1" d="M3.77,0l.176.007A3,3,0,0,1,6.743,3.2c-2.7,40.969,2.2,96.163,10.956,143.153a3,3,0,0,1-5.9,1.1C2.959,100.008-1.984,44.342.756,2.8A3,3,0,0,1,3.77,0Z" transform="translate(149.351 193.5)"/>
          <path id="ear_4_" class="cls-1" d="M10.412,2.735A3,3,0,0,1,13.666.012c9.285.824,18.156,3.466,25.146,8.7C48.557,16.009,53.158,27.4,51.074,43.1c-1.89,14.072-8.945,22.858-19.909,26.741-8.287,2.935-18.2,2.9-28.749.8a3,3,0,1,1,1.17-5.885c9.586,1.905,18.487,1.938,25.576-.573,8.831-3.128,14.374-10.03,15.965-21.879,1.8-13.578-1.93-22.815-9.912-28.791C29.272,9.064,21.41,6.722,13.135,5.988A3,3,0,0,1,10.412,2.735Z" transform="translate(387.299 245.6)"/>
          <path id="neck_4_" class="cls-1" d="M185.76.094a3,3,0,0,1,3.6,2l.048.17,16.3,64a3,3,0,0,1,.085.521c2.684,36.536-6.291,67.488-24.768,90.2A98.038,98.038,0,0,1,41.13,169.927C18.751,150.805,4.2,121.578.019,84.335a3,3,0,1,1,5.963-.669c4.014,35.781,17.869,63.6,39.046,81.7A91.369,91.369,0,0,0,113.269,187a92.3,92.3,0,0,0,63.1-33.808c17.3-21.269,25.842-50.331,23.512-84.923l-.056-.788L183.593,3.741a3,3,0,0,1,2-3.6Z" transform="translate(195.8 354.899)"/>
          <path id="beard_1_" class="cls-1" d="M103.26,212.965h0a95.639,95.639,0,0,1-33.049-5.488A69.874,69.874,0,0,1,44.055,190.8,108.683,108.683,0,0,1,28.822,170.69,173.668,173.668,0,0,1,16.41,145.066,272.318,272.318,0,0,1,3.436,100.526C2.4,95.489,1.509,90.554.794,85.858l-.087-.575C.564,84.332.437,83.45.329,82.66L.173,81.483.019,80.235A2.994,2.994,0,0,1,1.96,77.086c5.354-1.978,13.894-3.878,25.384-5.648l1.717-.261c6.018-.9,12.655-1.741,19.729-2.5,1.622-.175,3.255-.344,4.853-.5l2.577-.249,2.429-.217c8.376-.42,16.862-.634,25.222-.634a482.545,482.545,0,0,1,73.519,5.556c7.439,1.15,14.466,2.435,20.886,3.82l.629.136c.869.19,1.638.362,2.351.525l1.348.312.729-4.253c.94-5.57,2.1-12.715,3.442-21.237l1.338-8.544c1.045-6.715,2.131-13.777,3.227-20.989l.978-6.449,2.012-13.388A3,3,0,0,1,197.3,0c.08,0,.162,0,.242.01l43.8,3.5a3,3,0,0,1,2.728,3.434L242.4,17.92l-1.667,10.842c-2.225,14.39-4.351,27.794-6.318,39.838l-.768,4.684-1.163,7c-3.5,20.9-6.194,35.495-8.019,43.366l-.354,1.495a145.231,145.231,0,0,1-5.427,18.264,70.2,70.2,0,0,1-7.5,14.535,88.5,88.5,0,0,1-11.57,13.582c-4.489,4.414-10.091,9.309-17.63,15.4-8.08,6.532-18.532,12.345-30.227,16.811a142.03,142.03,0,0,1-36.752,8.656C111.036,212.775,107.084,212.965,103.26,212.965ZM58.957,73.7l-1.178.108-2.8.265c-1.762.172-3.627.364-5.544.571l-1.806.2c-6.984.775-13.5,1.627-19.371,2.532A165.1,165.1,0,0,0,6.671,81.835l-.382.118.194,1.373.242,1.627c.7,4.6,1.573,9.431,2.588,14.362a266.2,266.2,0,0,0,12.68,43.553c7.332,18.634,16.2,33.348,26.352,43.735a63.986,63.986,0,0,0,24.114,15.3,89.794,89.794,0,0,0,30.81,5.062c3.634,0,7.393-.181,11.175-.539a136,136,0,0,0,35.078-8.25c11.15-4.246,21.072-9.748,28.694-15.909a219.654,219.654,0,0,0,18.263-16.2,82.892,82.892,0,0,0,11.079-13.575l.242-.384c4.382-6.992,6.949-13.822,10.171-27.067l.512-2.13c1.817-7.673,4.586-22.627,8.229-44.448l1.274-7.695,1.684-10.347c1.38-8.555,2.843-17.8,4.35-27.484l1.348-8.713,2.288-14.987-37.8-3.021-.382,2.548-2.525,16.683c-.753,4.941-1.516,9.909-2.268,14.767l-.95,6.117-1.473,9.366c-1.552,9.785-2.828,17.547-3.794,23.071l-.509,2.869A3,3,0,0,1,184.222,84l-.679-.175-1.6-.393c-1.5-.36-3.16-.736-4.932-1.118l-.854-.183c-6.069-1.29-12.692-2.492-19.685-3.573a476.556,476.556,0,0,0-72.6-5.485c-8.249,0-16.621.21-24.883.624h-.03Z" transform="translate(156.2 252.5)"/>
          <path id="nose_2_" class="cls-1" d="M7.4.005A4,4,0,0,1,11.2,4l-.005.2L8.283,62.705,24.966,57.3a4,4,0,0,1,4.97,2.377l.068.194a4,4,0,0,1-2.377,4.97l-.194.068-22.2,7.2A4,4,0,0,1,0,68.287L.005,68.1l3.2-64.3A4,4,0,0,1,7.2,0Z" transform="translate(204 291.2)"/>
          <path id="brow_5_" class="cls-1" d="M3.156.855A33.478,33.478,0,0,1,29.528,5.708a34.34,34.34,0,0,1,4.88,3.913l.409.4a19.784,19.784,0,0,1,1.412,1.549,4,4,0,1,1-6.256,4.986,14.776,14.776,0,0,0-1.128-1.189,26.379,26.379,0,0,0-3.743-3,25.551,25.551,0,0,0-20.256-3.7A4,4,0,1,1,3.156.855Z" transform="translate(245.899 237.935)"/>
          <path id="brow_4_" class="cls-1" d="M14.066.5A28.83,28.83,0,0,1,25.8.732l.622.138c.993.229,1.767.454,2.274.628a4,4,0,0,1-2.4,7.63l-.432-.135-.214-.062c-.44-.125-.949-.253-1.514-.372a21.165,21.165,0,0,0-8.471-.223,10.109,10.109,0,0,0-7.938,6.788A4,4,0,0,1,.27,12.241,18.052,18.052,0,0,1,14.066.5Z" transform="translate(168.699 223.218)"/>
          <path id="mouth_2_" class="cls-1" d="M27.364.635c-3.5-4.8-37.6,19.1-24.3,21.3C16.364,24.035,34.864,10.935,27.364.635Z" transform="translate(256.536 371.165)"/>
          <path id="Trazado_17" data-name="Trazado 17" class="cls-3" d="M230.777,321.715l111.81,14.427,15.028-96.781"/>
          <g id="Grupo_6" data-name="Grupo 6" transform="translate(25.154 -6.032) rotate(-16)">
            <path id="hair" class="cls-1" d="M255.581,335.478s23.984-28.052,41.313-61.538c16.324-31.464,7.661-81.326-19.337-104.071C254.954,150.789,16.75,67.914,16.75,67.914S-27.2,179.3,33.573,201.283c66.678,24.261,148.217,50.526,174.461,39.154C189.073,246.249,174,343.865,255.581,335.478Z" transform="translate(35.531 25.521)"/>
          </g>
        </g>
        <g id="binoculars_1_" transform="translate(157 243)">
          <path id="Path-11" data-name="Path" class="cls-2" d="M20.8,123.3,150.3,79.5s17.3-6.6,16.7-29.1-28.9-30.9-28.9-30.9L0,0Z" transform="translate(205.1 1.1)"/>
          <path id="Path-12" data-name="Path" class="cls-2" d="M20.8,123.3,150.3,79.5s17.3-6.6,16.7-29.1-28.9-30.9-28.9-30.9L71.3,23.9,0,0Z" transform="translate(66.5 1.1)"/>
          <circle id="Oval" class="cls-1" cx="63.9" cy="63.9" r="63.9" transform="translate(139.9 0.6)"/>
          <circle id="Oval-2" data-name="Oval" class="cls-1" cx="63.9" cy="63.9" r="63.9" transform="translate(0.3 1.5)"/>
        </g>
        <g id="fingers_4_" transform="translate(214 199)">
          <path id="Path-13" data-name="Path" class="cls-1" d="M50.9,4.241l1.266-.266C67.575.789,82.965-.656,89.233.282c7.8,1.136,9.345,8.547,4.175,15.712C88.349,23,77.807,29.571,63.279,34.019a3,3,0,1,1-1.757-5.737c13.376-4.1,22.819-9.977,27.021-15.8,2.786-3.861,2.454-5.8-.031-6.24l-.155-.025c-5.5-.822-20.623.62-35.607,3.765l-.6.127C32.869,14.217,15.926,20.473,4.734,28.4a3,3,0,0,1-3.468-4.9C13.245,15.019,30.892,8.5,50.9,4.241Z" transform="translate(44.3 -2.65)"/>
          <path id="Path-14" data-name="Path" class="cls-1" d="M2.286,1.358c14.478-3.55,34.473.04,56.658,8.631l.775.3c17.021,6.665,34.138,16.058,39.755,21.323l.189.18c3.458,3.276,3.869,7.647.954,11.1-2.509,2.971-7.194,4.91-13.252,5.549C73.47,49.91,54.217,44.738,32.527,32.29l-.732-.422-.664-.426-.549-.343q-.436-.268-.943-.567c-1.615-.95-3.4-1.9-5.288-2.788a42.373,42.373,0,0,0-11.363-3.7,20.059,20.059,0,0,0-4.9-.188,3,3,0,1,1-.576-5.972,25.98,25.98,0,0,1,6.372.227,48.092,48.092,0,0,1,13.014,4.2c2.07.97,4.014,2.009,5.782,3.048l.748.446c.539.326.975.6,1.3.813l.149.1.635.367c20.437,11.731,38.3,16.6,50.8,15.435l.429-.043c4.66-.492,7.944-1.851,9.3-3.454.762-.9.727-1.653-.368-2.748l-.149-.145c-4.74-4.579-21.442-13.774-37.985-20.252C36.092,7.483,16.864,3.962,3.715,7.186A3,3,0,0,1,2.286,1.358Z" transform="translate(60.399 20.528)"/>
          <path id="Path-15" data-name="Path" class="cls-1" d="M2.36,1.12c14.5-3.17,34.331.552,56.209,9.083l.782.307c16.846,6.643,33.685,15.9,39.224,21.084l.189.179c3.458,3.276,3.869,7.647.954,11.1-2.509,2.971-7.194,4.91-13.252,5.549-13.9,1.467-33.149-3.705-54.838-16.154l-.732-.422-.664-.426-.549-.343q-.436-.268-.943-.567c-1.615-.95-3.4-1.9-5.288-2.788a42.373,42.373,0,0,0-11.363-3.7,20.059,20.059,0,0,0-4.9-.188,3,3,0,1,1-.576-5.972,25.98,25.98,0,0,1,6.372.227A48.092,48.092,0,0,1,26,22.291c2.07.97,4.014,2.009,5.782,3.048l.748.446c.539.326.975.6,1.3.813l.149.1.635.367c20.437,11.731,38.3,16.6,50.8,15.435l.429-.043c4.66-.492,7.944-1.851,9.3-3.454.762-.9.727-1.653-.368-2.747l-.149-.145c-4.665-4.5-21.095-13.562-37.467-20.017l-1.527-.6C35.059,7.571,16.549,4.16,3.641,6.982A3,3,0,0,1,2.36,1.12Z" transform="translate(30.099 20.549)"/>
          <path id="Path-16" data-name="Path" class="cls-1" d="M1.7,3.774C15.694-2.934,37.016-.357,61.862,8.789l1.2.445c18.172,6.827,37,17.008,42.8,22.567,3.458,3.276,3.869,7.647.954,11.1-2.509,2.971-7.194,4.91-13.252,5.549C79.67,49.917,60.417,44.745,38.727,32.3L38,31.874l-.664-.426-.549-.343q-.436-.268-.943-.567c-1.615-.95-3.4-1.9-5.288-2.788a42.373,42.373,0,0,0-11.363-3.7,20.059,20.059,0,0,0-4.9-.188,3,3,0,0,1-.576-5.972,25.98,25.98,0,0,1,6.372.227,48.092,48.092,0,0,1,13.014,4.2c2.07.97,4.014,2.009,5.782,3.048l.748.446c.539.326.975.6,1.3.813l.149.1.635.367c20.437,11.731,38.3,16.6,50.8,15.435l.429-.043c4.66-.492,7.944-1.851,9.3-3.454.8-.942.722-1.718-.508-2.883l-.356-.33c-5.624-5.057-23.73-14.758-41-21.183l-.575-.213C36.348,5.791,16.4,3.38,4.3,9.184A3,3,0,0,1,1.7,3.774Z" transform="translate(-2.701 22.221)"/>
        </g>
      </g>
      <g id="flower_1_" transform="translate(899)">
        <path id="leaves_4_" class="cls-1" d="M42.132.961c27.958-5.236,55.274,11.429,61.405,37.426l.179.791,19.8,91.8a3,3,0,0,1-5.823,1.436l-.042-.171-19.8-91.794C92.8,17.263,68.366,2.153,43.236,6.859,18.35,11.519,2.22,33.675,6.772,56.582l.144.694,29.6,137a3,3,0,0,1-5.822,1.438l-.042-.171-29.6-137C-4.707,31.991,13.766,6.273,42.132.961Z" transform="translate(120.216 43.79)"/>
        <path id="leaves_7_" class="cls-1" d="M4,47.428C4.855,20.416,29.09-.823,57.887.024,86.5.863,109.1,22.856,108.717,49.487L105.5,184.095a3,3,0,0,1-6,.033v-.176l3.2-133.823c.746-23.593-19.3-43.354-44.99-44.106-25.326-.745-46.539,17.616-47.685,40.89L10,47.619l-4,125.3a3,3,0,0,1-6-.015v-.176Z" transform="translate(269.601 -2.023)"/>
        <path id="leaves_10_" class="cls-1" d="M23.569,39.172C29.327,12.73,56.913-4.327,85.153.961c28.055,5.254,46.474,30.591,41.246,56.788l-.166.794-28.1,130.1a3,3,0,0,1-5.9-1.093l.032-.173,28.1-130.1C125.394,34.2,109.156,11.561,84.049,6.859,59.169,2.2,34.969,16.963,29.57,39.836l-.158.7-23.5,94.8a3,3,0,0,1-5.861-1.271l.037-.172Z" transform="translate(397.399 43.59)"/>
        <path id="leaves_12_" class="cls-1" d="M35.258,27.009c12.962-24.118,44.282-33.86,70.1-21.9,25.687,11.9,36.3,40.814,23.866,64.913l-.384.729-123.2,229.4a3,3,0,0,1-5.368-2.675l.082-.164,123.2-229.4c11.363-21.143,2.15-46.767-20.718-57.358C80.082.012,52.533,8.405,40.892,29.214l-.348.634-31.3,58.3a3,3,0,0,1-5.368-2.675l.082-.164Z" transform="translate(510.399 148.97)"/>
        <path id="leaves_3_" class="cls-1" d="M1.582.357A3,3,0,0,1,5.553,1.423l.091.158,27,50.3a3,3,0,0,1-5.2,3l-.091-.158-27-50.3A3,3,0,0,1,1.582.357Z" transform="translate(101.299 394.099)"/>
        <path id="leaves_5_" class="cls-1" d="M29.065,5.107C54.628-6.731,85.58,2.7,98.774,26.291l.394.719,37,68.9a3,3,0,0,1-5.195,3l-.091-.158-37-68.9C82.45,8.577,54.574-.094,31.586,10.552,8.946,21.037-.31,46.255,10.533,67.274l.335.636,79.8,148.5a3,3,0,0,1-5.194,3l-.091-.158L5.583,70.75C-7.446,46.507,3.119,17.123,29.065,5.107Z" transform="translate(0.074 148.97)"/>
        <path id="leaves_11_" class="cls-2" d="M146.874.339c26.836-3.394,51.388,19.055,55.344,50l.114.94,11.042,96.856,21.144-97.345c6.489-30.247,32.942-48.153,59.277-39.975l.8.256c26.1,8.629,41.877,39.658,35.781,69.675l-.191.909-19.28,88.9,35.617-78.173c12.5-27.52,42.06-37.52,66.139-22.439l.728.465c23.644,15.379,32.807,49.554,20.863,76.929l-.368.827-61.4,135a3,3,0,0,1-5.53-2.321l.068-.163,61.4-135c11.3-24.869,3.031-56.367-18.3-70.245-20.833-13.551-46.467-5.286-57.8,18.7l-.339.732-47.2,103.6a3,3,0,0,1-5.7-1.7l.034-.177,25.2-116.2c5.979-27.426-8.306-55.907-31.611-63.613C269.925,9.231,246.7,24.5,240.563,51.239l-.181.814-25,115.1a3,3,0,0,1-5.886-.109l-.026-.187-13.1-114.9c-3.218-28.3-25.188-48.642-48.743-45.663C124.3,9.242,107.643,34.013,110.44,61.926l.091.847,13.6,118.3a3,3,0,0,1-5.707,1.6l-.07-.169-29.8-76.9C78.454,79.55,52.815,67.552,31.31,78.49,9.752,89.455.082,119.222,9.749,145.244l.3.787,52.2,134.6a3,3,0,0,1-5.526,2.332l-.068-.163L4.453,148.2C-6.771,119.249,3.93,85.685,28.59,73.142c24.615-12.52,53.654.829,65.212,29.419l.345.871,21.352,55.1L104.57,63.456C101.031,32.436,119.452,4.328,146.065.45Z" transform="translate(109.65 166.084)"/>
        <path id="pot_2_" class="cls-1" d="M440.5,0A17.511,17.511,0,0,1,458,17.172l0,.328V70.6a17.511,17.511,0,0,1-17.172,17.5l-.328,0H418.575L377.72,261.488a3,3,0,0,1-3.435,2.267l-.173-.035a3,3,0,0,1-2.267-3.435l.035-.173,41.4-175.7a3,3,0,0,1,2.74-2.307l.18-.005h24.3A11.511,11.511,0,0,0,452,70.892l0-.292V17.5A11.511,11.511,0,0,0,440.792,6L440.5,6H17.5A11.511,11.511,0,0,0,6,17.208L6,17.5V70.6A11.511,11.511,0,0,0,17.208,82.1l.292,0h26a3,3,0,0,1,2.873,2.138l.047.174,71.9,305.2a3,3,0,0,1-5.795,1.546l-.045-.17L41.124,88.1H17.5A17.511,17.511,0,0,1,0,70.928L0,70.6V17.5A17.511,17.511,0,0,1,17.172,0L17.5,0Z" transform="translate(92 444.9)"/>
      </g>
      <g id="hand_II_1_" transform="translate(1163 659)">
        <path id="Path-17" data-name="Path" class="cls-1" d="M6.9,1.706C13.643-1.177,18.571-.379,23.386,3.9a41.365,41.365,0,0,1,3.606,3.718l.876,1.012c.82.962,3.387,3.971,4.327,5.035A80.419,80.419,0,0,0,45.51,25.96q1.057.773,2.155,1.521l.962.648c5.5,3.671,10.01,6.169,20.005,11.308l3.761,1.934c4.822,2.492,7.713,4.056,10.993,5.977a111.217,111.217,0,0,1,32.134,27.738,3,3,0,1,1-4.679,3.756A105.037,105.037,0,0,0,81.093,52.96l-1.368-.8c-3.032-1.759-5.877-3.286-10.59-5.717l-4.972-2.558c-9.571-4.944-13.991-7.452-19.871-11.44q-1.186-.808-2.323-1.639A85.377,85.377,0,0,1,28.283,18.292l-1.023-1.158c-1.42-1.632-4.2-4.9-4.187-4.883l-.561-.644A36.259,36.259,0,0,0,19.4,8.383C16.325,5.65,13.868,5.253,9.272,7.218c-3.465,1.5-4.211,5.022-2.16,11.389,1.963,6.095,6.358,13.9,12.731,23.042A3,3,0,1,1,14.92,45.08C8.235,35.488,3.588,27.236,1.4,20.447-1.481,11.5-.044,4.709,6.9,1.706Z" transform="translate(120.018 -2.564)"/>
        <path id="Path-18" data-name="Path" class="cls-1" d="M11.13.127,12.218.084C22.953-.287,40.053.551,56.912,2.89c25.046,3.475,47.565,9.792,65.385,19.5a3,3,0,1,1-2.87,5.269C102.614,18.5,81.182,12.416,57.266,9l-1.178-.166C39.01,6.464,21.676,5.668,11.407,6.121c-5.973.288-7.453,4.709-2.6,11.57a3,3,0,0,1-4.9,3.467C-3.451,10.753-.075.667,11.13.127Z" transform="translate(17.337 18.176)"/>
        <path id="Path-19" data-name="Path" class="cls-1" d="M11.036.113C19.467-.531,38.279,1.6,57.7,5.707c24.275,5.128,47.3,12.673,65.56,22.24a3,3,0,0,1-2.785,5.315C102.76,23.982,80.237,16.6,56.457,11.577l-2-.416C36.27,7.439,18.964,5.525,11.491,6.1c-9.225.7-7.391,13.318,8.649,26.167a3,3,0,0,1-3.751,4.683C6.909,29.351,1.219,21.1.171,13.886-.934,6.278,3.391.691,11.036.113Z" transform="translate(-2.165 34.696)"/>
        <path id="Path-20" data-name="Path" class="cls-1" d="M11.812.046C28.424-.771,72.258,9.4,103.785,23.5a3,3,0,1,1-2.451,5.477A299.976,299.976,0,0,0,49.123,11.626l-1.542-.362C32.176,7.692,18.315,5.733,12.12,6.038c-4.592.245-6.883,3.7-5.913,9.551,1.231,7.424,7.434,16.4,17.991,24.582a3,3,0,1,1-3.675,4.742C8.86,35.876,1.793,25.648.287,16.571-1.23,7.418,3.359.5,11.812.046Z" transform="translate(7.741 65.758)"/>
        <path id="Path-21" data-name="Path" class="cls-1" d="M9.858.156c11.348-1.39,43.4,6.663,72.511,18.706a3,3,0,1,1-2.294,5.544l-1.7-.7c-27.757-11.285-57.968-18.8-67.8-17.6-3.357.4-4.7,1.733-4.568,4.015.19,3.305,3.172,8.15,8.911,13.577C29.745,37.721,58.715,52.387,99.683,64.66a3,3,0,1,1-1.722,5.748C56.171,57.888,26.4,42.818,10.8,28.063,4.054,21.686.315,15.611.019,10.471-.309,4.761,3.572.9,9.858.156Z" transform="translate(27.378 97.167)"/>
        <path id="Path-22" data-name="Path" class="cls-1" d="M16.212,0l.176.006c38.943,2.432,71.672,13.652,95,31.238,21.29,16.051,33.313,36.566,33.252,56-.063,20.025-12.872,36.516-35.942,44.842-25.358,9.152-61.633,8.24-106.484-3.995a3,3,0,0,1,1.579-5.789c43.758,11.936,78.823,12.818,102.869,4.14,20.8-7.506,31.925-21.833,31.979-39.217s-10.98-36.2-30.864-51.193C85.43,19.189,53.829,8.356,16.014,5.994A3,3,0,0,1,16.212,0Z" transform="translate(123.199 39.5)"/>
      </g>
      <path id="line_7_" class="cls-1" d="M1634.667,0a2.948,2.948,0,0,1,2.894,3,2.956,2.956,0,0,1-2.724,2.995l-.17.005H2.894A2.948,2.948,0,0,1,0,3,2.956,2.956,0,0,1,2.724.005L2.894,0Z" transform="translate(0 832.8)"/>
    </g>
  </g>
</svg>
