<svg id="contact_solid_III" data-name="contact/solid_III" xmlns="http://www.w3.org/2000/svg" width="1152.915" height="525.964" viewBox="0 0 1152.915 525.964">
  <defs>
    <style>
      .cls-1 {
        fill: #7456f1;
      }

      .cls-2 {
        fill: #fff;
      }

      .cls-3 {
        fill: #ff8310;
      }

      .cls-4 {
        fill: #5d21d1;
      }
    </style>
  </defs>
  <g id="contact_solid_III-2" data-name="contact/solid_III" transform="translate(-80.273 -0.761)">
    <g id="contact_solid_III-3" data-name="contact_solid_III">
      <path id="line_19_" class="cls-1" d="M644.713,0c.764,0,1.384,1.366,1.384,3.05,0,1.624-.576,2.952-1.3,3.045l-.081.005H1.384C.619,6.1,0,4.735,0,3.05,0,1.426.576.1,1.3.005L1.384,0Z" transform="translate(402.604 520.3)"/>
      <g id="mail" transform="translate(469 163)">
        <path id="Path" class="cls-2" d="M555.4,357.2H17.8A17.839,17.839,0,0,1,0,339.4V17.8A17.839,17.839,0,0,1,17.8,0H555.4a17.839,17.839,0,0,1,17.8,17.8V339.5A17.884,17.884,0,0,1,555.4,357.2Z" transform="translate(3.5 3.2)"/>
        <path id="Path_2_" class="cls-1" d="M558.4,363.2H20.8a20.586,20.586,0,0,1-8.083-1.639A20.957,20.957,0,0,1,1.639,350.483,20.588,20.588,0,0,1,0,342.4V20.8a20.587,20.587,0,0,1,1.639-8.083A20.955,20.955,0,0,1,12.717,1.639,20.587,20.587,0,0,1,20.8,0H558.4a20.589,20.589,0,0,1,8.084,1.639,20.957,20.957,0,0,1,11.078,11.078A20.587,20.587,0,0,1,579.2,20.8V342.531a20.955,20.955,0,0,1-12.756,19.041A20.519,20.519,0,0,1,558.4,363.2ZM20.8,6A14.839,14.839,0,0,0,6,20.8V342.4a14.84,14.84,0,0,0,14.8,14.8H558.4a14.876,14.876,0,0,0,14.8-14.7V20.8A14.839,14.839,0,0,0,558.4,6Z" transform="translate(0.5 0.2)"/>
        <path id="Path-2" data-name="Path" class="cls-1" d="M560.558.632a3,3,0,0,1,3.83,4.615l-.146.121-269.2,209.4a19.827,19.827,0,0,1-24.352.253l-.332-.253L1.158,5.368A3,3,0,0,1,4.689.52l.153.112,269.2,209.4a13.827,13.827,0,0,0,17.03.217l.286-.217Z" transform="translate(7.4 3.9)"/>
        <path id="Path-3" data-name="Path" class="cls-2" d="M0,159.7,164.3,0" transform="translate(9.6 134.4)"/>
        <path id="Path_2_2" data-name="Path_2_" class="cls-1" d="M165.209.849a3,3,0,0,1,4.319,4.16l-.137.142-164.3,159.7a3,3,0,0,1-4.319-4.16l.137-.142Z" transform="translate(6.6 131.4)"/>
        <path id="Path-4" data-name="Path" class="cls-2" d="M0,0,167.4,162.7" transform="translate(407.7 134.4)"/>
        <path id="Path_2_3" data-name="Path_2_" class="cls-1" d="M.849.909a3,3,0,0,1,4.1-.193l.146.133,167.4,162.7a3,3,0,0,1-4.036,4.436l-.146-.133L.909,5.151A3,3,0,0,1,.849.909Z" transform="translate(404.7 131.4)"/>
      </g>
      <g id="headset" transform="translate(80)">
        <g id="soft_parts" transform="translate(207 12)">
          <path id="soft_inside" class="cls-2" d="M5.249,277.024l64.3-11.9s-29-73.2,24.5-159.9c53.5-86.6,148.2-56.6,203.9-17.4,0,0-66.4-107.6-149.7-84.6s-123.9,74.1-140.2,161.8S5.249,277.024,5.249,277.024Z" transform="translate(31.651 0.276)"/>
          <path id="soft_inside_2_" class="cls-1" d="M8.33,283.033a3,3,0,0,1-2.621-1.543,15.981,15.981,0,0,1-.806-1.8l-.2-.538a52.484,52.484,0,0,1-1.92-6.743C.378,261.6-.473,247.69.25,231.072c.789-18.115,3.457-39.509,7.933-63.587,2.113-11.371,4.663-22.209,7.578-32.214A248.931,248.931,0,0,1,25.933,106.7,196,196,0,0,1,38.861,81.62,167.573,167.573,0,0,1,54.708,59.883,159.333,159.333,0,0,1,73.637,41.336,169.994,169.994,0,0,1,95.809,25.831a201.256,201.256,0,0,1,25.578-12.615,257.8,257.8,0,0,1,29.147-9.875l.757-.206A91.751,91.751,0,0,1,174.97,0a95.364,95.364,0,0,1,20.68,2.317,112.932,112.932,0,0,1,20.56,6.788,148.393,148.393,0,0,1,26.1,14.909,207.068,207.068,0,0,1,24.728,20.757,267.322,267.322,0,0,1,26.8,30.533c2.591,3.437,5.018,6.827,7.213,10.075l.266.4c.434.648.837,1.256,1.2,1.806l.415.641.543.851.2.328a2.882,2.882,0,0,1-.025,2.921,3.067,3.067,0,0,1-2.612,1.534,2.958,2.958,0,0,1-1.726-.57A237.674,237.674,0,0,0,275,78.275,219.053,219.053,0,0,0,249.506,66.6a185.793,185.793,0,0,0-25.887-7.816,147.391,147.391,0,0,0-25.488-3.427c-1.818-.077-3.645-.116-5.431-.116a111.515,111.515,0,0,0-27.363,3.29,97.941,97.941,0,0,0-24.8,10.032,104.876,104.876,0,0,0-21.971,17.013,134.783,134.783,0,0,0-18.883,24.234A234.28,234.28,0,0,0,87.861,131.4a213.941,213.941,0,0,0-8.973,21.646,201.112,201.112,0,0,0-6.255,21.632,194.875,194.875,0,0,0-3.668,21.55,185.784,185.784,0,0,0-.955,30.422,165.338,165.338,0,0,0,3.628,27.029c.795,3.586,1.68,6.942,2.631,9.974l.132.415c.254.8.5,1.519.721,2.147l.1.287.2.526a3,3,0,0,1-2.243,4.055l-64.3,11.9A3.011,3.011,0,0,1,8.33,283.033ZM174.968,6a85.837,85.837,0,0,0-22.837,3.122,252.013,252.013,0,0,0-28.317,9.58A195.319,195.319,0,0,0,98.993,30.919,164.139,164.139,0,0,0,77.5,45.93,153.516,153.516,0,0,0,59.169,63.9a161.729,161.729,0,0,0-15.34,21.088,190.108,190.108,0,0,0-12.516,24.369,243.183,243.183,0,0,0-9.86,27.811c-2.828,9.743-5.308,20.312-7.372,31.414-4.4,23.678-7.035,44.686-7.83,62.439-.725,16.213.077,29.7,2.385,40.091a49.572,49.572,0,0,0,1.445,5.277l.088.255,58.489-10.825-.3-.977c-.931-3.033-1.8-6.351-2.576-9.862a171.391,171.391,0,0,1-3.761-27.985A191.844,191.844,0,0,1,63,195.556a200.873,200.873,0,0,1,3.777-22.193A207.1,207.1,0,0,1,73.212,151.1a219.954,219.954,0,0,1,9.223-22.261A240.281,240.281,0,0,1,94.58,106.655a140.636,140.636,0,0,1,19.866-25.442,110.813,110.813,0,0,1,23.2-17.907,103.911,103.911,0,0,1,26.2-10.586A117.517,117.517,0,0,1,192.7,49.24c1.87,0,3.782.041,5.683.121a165.839,165.839,0,0,1,45.656,8.9,224.978,224.978,0,0,1,44.924,21.087l.748.456-.666-.888a261.348,261.348,0,0,0-26.191-29.847C246.747,33.377,230.246,21.781,213.808,14.6a106.924,106.924,0,0,0-19.4-6.415A89.416,89.416,0,0,0,174.968,6Z" transform="translate(28.568 -2.733)"/>
          <g id="soft_part_II" transform="translate(0 259)">
            <path id="Path-5" data-name="Path" class="cls-2" d="M.378,71.828c-2.8-26.8,9.4-52.9,55.3-67.9s92.1,17.1,94.7,26.9,67.3,184.3-4.3,201.5-129.7-42.8-135.6-75.1S.378,71.828.378,71.828Z" transform="translate(0.922 0.972)"/>
            <path id="Path_2_4" data-name="Path_2_" class="cls-1" d="M123.589,241.394h0A112.9,112.9,0,0,1,87.9,235.539,128.882,128.882,0,0,1,54.93,218.822a137.539,137.539,0,0,1-16.393-13.441,128.19,128.19,0,0,1-13.384-14.935,95.58,95.58,0,0,1-9.595-15.256,55.325,55.325,0,0,1-5.026-14.4c-1.366-7.478-2.752-16.677-4.119-27.341l-.428-3.4c-1.418-11.4-2.79-24.114-4.078-37.785C1.622,89.23,1.35,86.248,1.1,83.4L.787,79.817.419,75.4.305,74.2A62.472,62.472,0,0,1,2.076,51.79,54.06,54.06,0,0,1,12,32.437a72.137,72.137,0,0,1,18.439-16A125.476,125.476,0,0,1,57.752,4.1,84.047,84.047,0,0,1,83.907,0a95.8,95.8,0,0,1,19.925,2.149,110.691,110.691,0,0,1,19.6,6.182A104.2,104.2,0,0,1,145.484,20.8c6.087,4.611,9.922,8.971,10.8,12.278.119.445,1.435,4.465,2.708,8.354l0,.013.006.019c.622,1.9,1.265,3.865,1.75,5.355l1.3,4.049c3.311,10.415,6.2,20.205,8.836,29.931a487.05,487.05,0,0,1,11.641,53.816,260.3,260.3,0,0,1,3.15,35.917,129.618,129.618,0,0,1-2.709,29.409c-4.8,21.291-15.961,34.185-33.188,38.323A112.3,112.3,0,0,1,123.589,241.394ZM83.9,6A78.045,78.045,0,0,0,59.616,9.8,120.449,120.449,0,0,0,33.849,21.356,65.9,65.9,0,0,0,16.719,36.13a49.614,49.614,0,0,0-5.482,8.538,47.805,47.805,0,0,0-3.51,9.275A57.469,57.469,0,0,0,6.375,74.612l.465,5.564c.255,2.962.541,6.151.85,9.478l.419,4.452c1.214,12.681,2.5,24.526,3.829,35.2,1.495,12.019,3.007,22.247,4.5,30.4A49.825,49.825,0,0,0,21.11,172.9a90.3,90.3,0,0,0,9.041,14.212A122.89,122.89,0,0,0,42.816,201.17,131.531,131.531,0,0,0,58.362,213.9a122.865,122.865,0,0,0,31.37,15.922,105.544,105.544,0,0,0,58.651,2.609,35.879,35.879,0,0,0,9.779-3.884,33.589,33.589,0,0,0,7.886-6.426,40.8,40.8,0,0,0,6.046-8.873,58.888,58.888,0,0,0,4.26-11.225c2.222-8.12,3.357-17.919,3.374-29.124a251.314,251.314,0,0,0-3.13-37.386,480.907,480.907,0,0,0-11.5-53.144c-2.811-10.377-5.934-20.888-9.547-32.134-.409-1.273-1.18-3.63-2-6.125l-.01-.03-.006-.018c-1.2-3.67-2.563-7.83-2.954-9.106l-.142-.483c-.7-2.218-4.266-5.816-9.549-9.625a102.506,102.506,0,0,0-19.78-10.984A104.6,104.6,0,0,0,102.627,8.03,89.9,89.9,0,0,0,83.9,6Z" transform="translate(-2.084 -2.048)"/>
            <path id="line_7_" class="cls-1" d="M47.151,107.512h0A35.619,35.619,0,0,1,33.3,104.743a40.2,40.2,0,0,1-11.933-7.871,55.791,55.791,0,0,1-9.7-12.323A80.32,80.32,0,0,1,4.519,68.425,89.1,89.1,0,0,1,.363,32.977,53.62,53.62,0,0,1,3.852,18.111,28.787,28.787,0,0,1,11.018,7.394l.34-.3C16.729,2.386,22.611,0,28.841,0,35,0,41.36,2.317,47.744,6.887a63.944,63.944,0,0,1,12.38,12.026A48.237,48.237,0,0,1,67.774,31.8l.257.472.589,1.118c.191.37.4.78.637,1.253l.451.909c1.624,3.309,3.131,6.738,4.481,10.193A95.879,95.879,0,0,1,80.315,68.56c1.293,10.446-.154,18.995-4.3,25.408-4.37,6.761-11.728,11.105-21.867,12.911A40.034,40.034,0,0,1,47.151,107.512ZM28.9,6.019c-4.894,0-9.562,1.965-13.875,5.839-4.758,4.274-7.868,12.249-8.757,22.457a83.781,83.781,0,0,0,3.956,32.262,74.661,74.661,0,0,0,6.38,14.54A50.055,50.055,0,0,0,25.1,92.112a34.785,34.785,0,0,0,10.318,6.958A29.932,29.932,0,0,0,47.278,101.5a33.287,33.287,0,0,0,5.818-.525,33.092,33.092,0,0,0,10.952-3.792,20.494,20.494,0,0,0,7-6.64A23.8,23.8,0,0,0,74.394,81.2a44.208,44.208,0,0,0-.033-11.9A90.018,90.018,0,0,0,68.6,47.933c-1.293-3.307-2.733-6.582-4.28-9.734-.341-.7-.687-1.383-1.029-2.043l-.463-.883-.506-.939A3.072,3.072,0,0,1,62.184,34a41.994,41.994,0,0,0-6.747-11.341,57.952,57.952,0,0,0-11.186-10.89C38.924,7.952,33.76,6.019,28.9,6.019Z" transform="translate(66.777 49.074)"/>
          </g>
          <path id="soft_part" class="cls-2" d="M214.981,23.644c-24.3-13.8-79.8-31.8-111.1-19.6s-89.2,42.2-103,171,139.1,108.3,139.1,108.3Z" transform="translate(120.919 221.556)"/>
          <path id="soft_part_2_" class="cls-1" d="M120.155,290.6h0a188.7,188.7,0,0,1-47.925-5.855,120.6,120.6,0,0,1-30.146-12.15,90.572,90.572,0,0,1-12.452-8.721,81.057,81.057,0,0,1-10.517-10.589A78.348,78.348,0,0,1,9.4,238.245a86.083,86.083,0,0,1-6.36-17.568A107.453,107.453,0,0,1,.165,200.526,145.635,145.635,0,0,1,.9,177.736a400.017,400.017,0,0,1,6.492-41.2,286.709,286.709,0,0,1,9.878-35.328A210.912,210.912,0,0,1,30.357,71.448,164.142,164.142,0,0,1,46.479,46.957,138.567,138.567,0,0,1,61.434,30.991,130.428,130.428,0,0,1,77.888,18.3,147.223,147.223,0,0,1,105.793,4.261C113.047,1.433,121.872,0,132.023,0a154.978,154.978,0,0,1,33.7,4.18c19.2,4.334,39.8,11.947,53.745,19.867a2.993,2.993,0,0,1,1.4,3.442l-75,259.7a3,3,0,0,1-2.483,2.141l-.665.083-1.467.161c-1.284.134-2.684.259-4.161.372l-1.094.081C130.723,290.4,125.394,290.6,120.155,290.6ZM132.016,6.005c-9.407,0-17.5,1.294-24.044,3.846A166.75,166.75,0,0,0,91.789,17.1,121.786,121.786,0,0,0,51.162,50.706,158.316,158.316,0,0,0,35.548,74.46a205.221,205.221,0,0,0-12.71,28.985,281.113,281.113,0,0,0-9.622,34.533,394.663,394.663,0,0,0-6.351,40.4,140.021,140.021,0,0,0-.723,21.631,101.626,101.626,0,0,0,2.663,19,80.251,80.251,0,0,0,5.914,16.458,72.389,72.389,0,0,0,9.028,14,74.99,74.99,0,0,0,9.814,9.862,84.822,84.822,0,0,0,11.69,8.157,114.706,114.706,0,0,0,28.5,11.45,168.609,168.609,0,0,0,23.238,4.335,200.516,200.516,0,0,0,23.191,1.322c5.447,0,10.979-.213,16.445-.632,1.041-.08,2.08-.169,3.088-.266l.937-.1L214.436,28.122l-.624-.334A179.86,179.86,0,0,0,191.4,18a226.681,226.681,0,0,0-26.047-7.753l-.958-.219A149,149,0,0,0,132.016,6.005Z" transform="translate(117.917 218.544)"/>
        </g>
        <path id="shape_4_" class="cls-3" d="M397.917,274.639c1.9-10.1,6.4-33,6.4-33,5.9-28.9,11.4-56,10.3-83.5-2.3-56.6-38.3-106.8-77.7-127.6-85.6-45.3-140.8-26.8-140.8-26.8-183.4,62-150.1,264-146.1,284.9-36.8,17.9-52.5,42.6-49.7,77.2,2.1,18.9-.4,111.1,46.4,137.3,46.7,26.2,93.4,18.7,124,1.3h0c-69.7,14.2-119.8-50.1-125.7-81.9-5.9-32.3-10-80.2-10-80.2-2.3-21.6,7.4-44.4,39.5-60.7l-.2-1.6h.1c-.1-.3-.1-.7-.2-1l-.2-1.7-.1.1c-4.5-29.7-11.8-107.5,24.8-169.4,46.8-79.4,100.8-83.9,100.8-83.9,102.8-15.2,140.5,96.7,138.2,157.6-2.1,54.7-32.8,67.7-39,69.8a40.467,40.467,0,0,0-22.5,4c-22.5,4-59.2,54-81,104,0,.1.1.3.1.4l-.5.5c-10.2,23.6-17,47.2-17.4,65.9h0a58.089,58.089,0,0,0,16.4,55.3l9.7-2a39.377,39.377,0,0,1-3.6,7.1,54.48,54.48,0,0,0,8.1,4.9l50,24.7a43.941,43.941,0,0,0,59.2-20.3l1.5-3c23,3,53.3-20.2,71.9-56.9,19.5-38.5,19.4-78.5.9-93.9,1.2-11.4.8-28.6,3.9-51.6C396.117,285.239,397.017,279.939,397.917,274.639Z" transform="translate(179.883 0.761)"/>
        <g id="microphone" transform="translate(0 338)">
          <path id="shape_5_" class="cls-3" d="M489.627,37.427c-84.3,19.7-233.2,15.6-395.2-13.4l-.9,2.8a25.368,25.368,0,0,0-18.6-16.5l-43.2-9.7a25.626,25.626,0,0,0-30.6,19.4l-.5,2.1a25.626,25.626,0,0,0,19.4,30.6l43.2,9.7a25.383,25.383,0,0,0,19.5-3.5l-.5,1.6s158.3,47.6,387.7,27.7C469.827,88.127,489.927,39.927,489.627,37.427Z" transform="translate(0.273 95.373)"/>
          <path id="line_9_" class="cls-2" d="M114.465.639c18.262-3.311,27.311,6.487,28.733,23.717a74.725,74.725,0,0,1-.786,17.228c-.184,1.2-.38,2.318-.577,3.332l-.188.933c-.1.473-.178.825-.231,1.043a3,3,0,0,1-5.87-1.232l.2-.921q.051-.239.106-.513c.213-1.053.426-2.245.626-3.55a68.964,68.964,0,0,0,.737-15.827c-1.116-13.518-6.96-20.335-20.026-18.57l-.516.073-.167.216c-10.065,12.813-28.561,20.1-53.067,23.112l-.768.093a256.915,256.915,0,0,1-50.4.481l-1.543-.131c-1.764-.155-3.4-.316-4.894-.477l-1.659-.187-1.579-.2A3,3,0,0,1,3.228,23.3l1.965.238.675.076c2.02.225,4.331.45,6.9.661a251.177,251.177,0,0,0,49.205-.459c24.149-2.866,41.895-9.968,50.6-21.984A3,3,0,0,1,114.465.639Z" transform="translate(361.7 115.809)"/>
          <path id="line_8_" class="cls-2" d="M59.2,5.318C68.27-.047,76.535-.947,83.26.825a14.636,14.636,0,0,1,2.552.888,3,3,0,0,1-2.457,5.471l-.167-.075a9.362,9.362,0,0,0-1.458-.482c-5.23-1.378-11.847-.658-19.475,3.855-11.505,6.807-23.012,21.111-33.9,44.739-8.141,17.662-15.668,40.027-22.44,67.508a3,3,0,1,1-5.826-1.436C6.946,93.463,14.593,70.742,22.9,52.709,34.267,28.059,46.529,12.816,59.2,5.318Z" transform="translate(473.599 -2.711)"/>
        </g>
      </g>
      <g id="pen" transform="translate(674 459)">
        <path id="Path-6" data-name="Path" class="cls-4" d="M556.8,26.5,510.3,46.425,8,46.119C3.7,46.119-.1,38.9,0,32.4L.1,11.7C.1,5.2,3.7,0,8,0L510.3,1.3l46.6,19.2C558.9,21.5,558.9,25.7,556.8,26.5Z" transform="translate(0.798 21.3)"/>
        <path id="Path-7" data-name="Path" class="cls-1" d="M3.161,0l123.5,2.5a3,3,0,0,1,.055,6l-.176,0L6.094,6.06,6,65.9a3,3,0,0,1-2.828,2.99L3,68.9A3,3,0,0,1,0,66.071l0-.176.1-62.9A3,3,0,0,1,2.982,0Z" transform="translate(15.6 -2.199)"/>
        <path id="Path-8" data-name="Path" class="cls-2" d="M116.2,0a3,3,0,0,1,.176,5.995L116.2,6H3A3,3,0,0,1,2.824.005L3,0Z" transform="translate(77.4 35.7)"/>
      </g>
    </g>
  </g>
</svg>
