<svg id="developer_outline" data-name="developer/outline" xmlns="http://www.w3.org/2000/svg" width="1371.119" height="769.041" viewBox="0 0 1371.119 769.041">
  <g id="developer_outline-2" data-name="developer/outline" transform="translate(-183.397 -77.959)">
    <g id="developer_outline-3" data-name="developer_outline">
      <path id="chair_1_" d="M255.1,0a3,3,0,0,1,.176,5.995L255.1,6H126.2C51.678,6-1.24,65.289,6.809,139.086l.263,2.241,24.4,194.6a3,3,0,0,1-5.926.921l-.027-.174-24.4-194.6C-8.61,64.445,46.2,1.275,123.836.019L126.2,0Z" transform="translate(290.005 395.8)" fill="#7456f1"/>
      <g id="body_1_" transform="translate(371 333)">
        <path id="hoodie_4_" d="M261.962.033a3,3,0,0,1,3.1,1.58l3.5,6.7a3,3,0,0,1,.278.775l.036.2,4.2,30.2a3,3,0,0,1-.412,1.978l-.115.174-16,22.5a3,3,0,0,1-4.995-3.319l.105-.158,15.309-21.528L263,10.629l-2.268-4.341-.32.05c-38.979,6.1-63.371,17.22-74.549,32.5l-.341.474c-9.717,13.691-8.971,30.882,1.162,51.147a3,3,0,0,1-2.108,4.286C118.725,107.606,65.135,162.832,33.161,242.122,4.354,313.559-2.124,394.893,16.529,447.092l3.03,8.559c6.412,18.026,10.3,26.78,16.089,34.561,7.438,10,16.659,15.068,29.384,15.188a3,3,0,1,1-.056,6c-14.678-.138-25.623-6.154-34.142-17.606l-.483-.657c-5.829-8.018-9.781-16.863-15.923-34.013L11,449.464l-.126-.354c-19.2-53.717-12.6-136.527,16.718-209.231C59.607,160.5,113.1,104.441,179.356,89.706l.29-.064-.2-.443c-9.116-20.225-9.326-38.157.855-52.886l.332-.474C193.015,18.392,219.7,6.319,261.962.033Z" transform="translate(0.596 0)" fill="#7456f1"/>
        <g id="tshirt" transform="translate(234 60)">
          <g id="Group">
            <path id="Path" d="M65.7,82.8v-.6c4.7.5,9.3.5,13.8-3.3,11-9.5,14.9-12.4,14.9-12.4s1,1.2,2.8,3.2c2.2-4,4.4-8.2,6.7-12.4C56.4,20.5,20.1,1.9,20.1,1.9L17.4,0,0,21.3S28.4,40.8,65.7,82.8Z" transform="translate(0.6 0.5)" fill="#ff8310"/>
            <path id="Path-2" data-name="Path" d="M128.6,371.7S52.6,167.3,62.3,104c5.3-34.6-3-73.7-14.4-104L26.1,1.4,0,63a45.909,45.909,0,0,0,5.1,1s-1,6.5-3.5,21.3c-1.7,9.9,1.2,11,3.4,17.9,2.9,4.6,5.1,9.8,2.7,17.9-.8,2.6-2.7,27.4-7,61q12,25.35,22.8,54.1C69.6,359.1,64.8,372.5,64.8,372.5Z" transform="translate(167.3 56.8)" fill="#ff8310"/>
          </g>
        </g>
        <path id="hoodie" d="M.163,2.029A3,3,0,0,1,3.973.163C34.36,10.572,55.57,27.011,69.41,48.475c10.031,15.557,15.37,31.749,18.909,52.211l.144.848,2.025,1.545c96.817,74.146,166,157.75,211.964,245.468l1.4,2.687a577.529,577.529,0,0,1,39.656,96.14,388.277,388.277,0,0,1,12.858,54.075,3,3,0,0,1-5.931.906l-.234-1.5a387.442,387.442,0,0,0-12.43-51.723,571.546,571.546,0,0,0-39.247-95.138C252.5,265.175,182.531,180.5,83.886,105.59a3,3,0,0,1-1.146-1.9C79.327,83,74.2,66.981,64.367,51.727,51.264,31.4,31.149,15.814,2.029,5.839A3,3,0,0,1,.163,2.029Z" transform="translate(433.899 4.899)" fill="#7456f1"/>
        <path id="string" d="M4.316,0A4,4,0,0,1,8.169,3.947l0,.258-.021.662c-.017.607-.035,1.322-.051,2.14A452.833,452.833,0,0,0,12.81,82.879,233.593,233.593,0,0,0,19.9,115.033a4,4,0,0,1-7.652,2.333A241.4,241.4,0,0,1,4.9,84.1,459.5,459.5,0,0,1,.07,8.151L.129,5.3l.043-1.45A4,4,0,0,1,4.117,0Z" transform="translate(477.531 206.1)" fill="#7456f1"/>
        <path id="stripe" d="M13.9,0c.7,4.3,1.3,8.2,1.8,11.6C21.8,51.4,8.7,77.9,0,96.2,23.3,79.7,39.1,48.3,47,24.4,37.5,16.8,24.4,7.8,13.9,0Z" transform="translate(502.7 107.3)" fill="#7456f1"/>
        <path id="stripe_II" d="M62.5,0C46.2,3.3,19.4,11.5,0,24.8c13.5,7.4,80.4,47.4,135,71.4.4-.2,3.4-5.2,4.9-7.2C109.7,65.1,77.9,30.9,62.5,0Z" transform="translate(124.5 90)" fill="#7456f1"/>
      </g>
      <g id="head" transform="translate(565)">
        <path id="ear_3_" d="M27.948.106a3,3,0,0,1,1.745,5.738L29.17,6c-.16.049-.36.113-.6.191-.815.269-1.73.6-2.719,1a45.552,45.552,0,0,0-8.277,4.364C6.535,18.993,2.564,29.18,9.349,43.519c4.258,9.008,10.206,12.831,17.8,12.795,6.047-.029,12.764-2.452,20.108-6.621a3,3,0,1,1,2.963,5.218c-8.159,4.633-15.746,7.368-23.042,7.4C17.231,62.361,9.17,57.18,3.925,46.084-4.255,28.8.912,15.546,14.225,6.581A51.471,51.471,0,0,1,23.6,1.635,41.01,41.01,0,0,1,27.948.106Z" transform="translate(8.264 260.699)" fill="#7456f1"/>
        <path id="face" d="M61.188,198.54h0a3,3,0,0,1-2.66-1.6c-3.419-6.5-10.543-16.844-19.058-27.66-8.247-10.477-15.881-18.948-19.922-22.108l-.14-.107L9.132,150.485a2.993,2.993,0,0,1-3.944-2.667l-.162-.544c-.083-.283-.179-.623-.294-1.039l-.168-.618-.247-.937c-.588-2.271-1.138-4.721-1.634-7.282a140.088,140.088,0,0,1-2.56-32.777,114.252,114.252,0,0,1,6.23-32.936C17.133,41.057,41.009,19.26,77.316,6.9l.6-.2a130.775,130.775,0,0,1,16.02-4.237A119.707,119.707,0,0,1,117.36,0c1.787,0,3.575.048,5.313.144A78.317,78.317,0,0,1,140.93,3.218a58.479,58.479,0,0,1,15.6,7.26,54.111,54.111,0,0,1,12.6,11.717,65.735,65.735,0,0,1,9.243,16.444A399.787,399.787,0,0,1,194.839,91.7a523.3,523.3,0,0,1,10.322,57.063,3,3,0,0,1-2.975,3.372l-.111,0c-.426-.015-.882-.023-1.355-.023a116.143,116.143,0,0,0-15.674,1.456l-2.009.3c-2.858.44-5.955.964-9.205,1.557-3.8.7-7.734,1.468-11.679,2.3l-1.087.23c-.457.1-.995.212-1.513.325l-2.113.465-2.018.542c-12.516,3.4-25.051,7.489-37.255,12.14l-1.884.724a369.619,369.619,0,0,0-39.376,17.857c-3.809,2.017-7.346,3.99-10.514,5.864l-.754.448c-.335.2-.672.4-1.03.622l-.91.559-.882.556A2.989,2.989,0,0,1,61.188,198.54Zm-41.305-57.8a3.02,3.02,0,0,1,1.387.339l.176.1c3.684,2.249,11.058,9.957,19.725,20.619,8.592,10.569,16.442,21.541,21,29.35l.109.189,1.058-.629c2.8-1.657,5.879-3.387,9.149-5.143l1.613-.859a375.463,375.463,0,0,1,40.018-18.15,405.248,405.248,0,0,1,41.794-13.614l.107-.026,1.783-.4c.65-.142,1.328-.288,2.014-.434l2.529-.53c3.541-.732,7.043-1.415,10.409-2.029,3.3-.6,6.448-1.135,9.37-1.585a148.271,148.271,0,0,1,16.573-1.789l.077,0-.247-1.866a514.231,514.231,0,0,0-9.921-52.822,394.556,394.556,0,0,0-15.227-49.124l-.587-1.5a59.643,59.643,0,0,0-8.33-14.861,48.323,48.323,0,0,0-11.346-10.554A52.571,52.571,0,0,0,139,8.9a72.383,72.383,0,0,0-16.652-2.767c-1.627-.09-3.3-.135-4.981-.135A113.76,113.76,0,0,0,95.117,8.34a124.028,124.028,0,0,0-15.859,4.236l-1.077.371a138,138,0,0,0-23.919,10.84A103.943,103.943,0,0,0,35.434,37.671a89.6,89.6,0,0,0-14,16.7,91.494,91.494,0,0,0-9.425,19.3A108.3,108.3,0,0,0,6.12,104.972a134.108,134.108,0,0,0,2.453,31.283c.52,2.676,1.1,5.207,1.711,7.521l8.651-2.884A3,3,0,0,1,19.882,140.74Z" transform="translate(38.717 122.16)" fill="#7456f1"/>
        <path id="beard" d="M23.249.155a3,3,0,0,1,2.516.284C33.6,5.223,56.411,33.363,66.2,49.91l.4.687,1.057-.629,1.255-.736c2.779-1.618,5.954-3.385,9.507-5.266a375.378,375.378,0,0,1,40.018-18.15,404.014,404.014,0,0,1,39.729-13.058l2.065-.556,1.423-.32,2.469-.535,1.1-.233c3.767-.794,7.761-1.589,11.81-2.331,2.788-.511,5.5-.978,8.117-1.393l1.3-.2c8.647-1.332,15.606-1.992,20.385-1.782a3,3,0,0,1,2.81,2.409l.14.735.278,1.553q.1.557.2,1.179l.228,1.405c.38,2.392.756,5.032,1.111,7.886,2.1,16.882,2.7,34.4.884,50.825q-.1.889-.206,1.769a3,3,0,1,1-5.956-.728q.1-.846.2-1.7c1.758-15.9,1.172-32.97-.874-49.425l-.21-1.645c-.318-2.428-.65-4.679-.983-6.728l-.262-1.567-.3.006a132.263,132.263,0,0,0-15.862,1.636l-.668.1c-2.95.454-6.049.982-9.248,1.568-3.493.64-6.949,1.32-10.249,2.006l-3.008.635-2.421.529-.727.163-1.968.531c-12.862,3.5-25.3,7.583-37.254,12.141l-1.884.724A369.4,369.4,0,0,0,81.225,49.268l-1.579.842c-3.1,1.667-5.886,3.231-8.331,4.666l-1.358.8q-.545.326-1.031.622l-1.569.972-.224.143A3,3,0,0,1,62.846,56.2C55.509,42.238,32.888,13.7,24.127,6.635l-.4-.314L7.207,11.854l5.556,11.238,4.263,8.576c3.195,6.412,6.374,12.754,9.462,18.873l4.28,8.446c9.033,17.757,15.868,30.7,19.607,36.971,11.95,19.954,18.992,25.9,46.009,36.544,9.079,3.514,20.649,5.5,32.517,5.5a3,3,0,0,1,0,6c-12.582,0-24.883-2.109-34.7-5.909l-2.49-.991c-25.719-10.349-33.894-17.307-45.734-36.814l-.753-1.249C41.442,92.7,34.707,79.951,25.8,62.447L23.181,57.3C19.114,49.268,14.859,40.781,10.589,32.2l-3.665-7.38L.308,11.421a3,3,0,0,1,1.572-4.1l.169-.062Z" transform="translate(34.399 262.8)" fill="#7456f1"/>
        <path id="Trazado_9" data-name="Trazado 9" d="M62.165,266.152l37.154,54.568,74.659-36.006L237.989,274.1" transform="translate(0 -3.352)" fill="none" stroke="#fff" stroke-width="20"/>
        <path id="hair" d="M39.893,281.691s-19.1-22.2-32.9-48.7c-13-24.9-6.1-64.36,15.4-82.36,18-15.1,209.735-72.98,209.735-72.98s32.966,80.441-15.434,97.841c-53.1,19.2-87.3,18.2-108.2,9.2C123.593,189.291,124.093,273.991,39.893,281.691Z" transform="translate(0.107 0.309)" fill="#7456f1"/>
        <path id="nose" d="M3.09.258A4,4,0,0,1,8.166,2.4l.077.191,18.8,49.9A4,4,0,0,1,23.465,57.9l-.186,0-19.3-.1a4,4,0,0,1-.158-8l.2,0,13.485.07L.757,5.411A4,4,0,0,1,2.9.335Z" transform="translate(188.8 250.399)" fill="#7456f1"/>
        <circle id="mouth" cx="9.5" cy="9.5" r="9.5" transform="translate(173.5 328.5)" fill="#7456f1"/>
        <ellipse id="eye_II" cx="5.4" cy="8.4" rx="5.4" ry="8.4" transform="matrix(0.97, -0.243, 0.243, 0.97, 206.19, 243.444)" fill="#7456f1"/>
        <ellipse id="eye" cx="5.4" cy="8.4" rx="5.4" ry="8.4" transform="matrix(0.97, -0.243, 0.243, 0.97, 155.298, 255.254)" fill="#7456f1"/>
        <path id="brow_II" d="M24.218.019a4,4,0,0,1,.766,7.963,20.481,20.481,0,0,0-13.08,6.1,21.693,21.693,0,0,0-3.285,4.3l-.228.4a12.838,12.838,0,0,0-.62,1.252l-.029.074A4,4,0,0,1,.26,17.283,20.887,20.887,0,0,1,1.7,14.375a29.641,29.641,0,0,1,4.5-5.9A28.442,28.442,0,0,1,24.218.019Z" transform="translate(125.399 211.7)" fill="#7456f1"/>
        <path id="brow" d="M5.562,1.445A22.328,22.328,0,0,1,16.644.26a15.754,15.754,0,0,1,11.073,7.7,4,4,0,0,1-6.832,4.162A7.785,7.785,0,0,0,15.3,8.147,14.715,14.715,0,0,0,8.185,9c-.642.223-1.229.461-1.741.7l-.449.214-.082.043A4,4,0,1,1,2.089,2.928l.344-.181A25.644,25.644,0,0,1,5.562,1.445Z" transform="translate(194.099 196.359)" fill="#7456f1"/>
      </g>
      <path id="laptop" d="M595.008,0h-388.8a11.006,11.006,0,0,0-10.7,8.5l-54.1,228.8H.508s-7.8,40.3,37.7,40.3h496.4a11.006,11.006,0,0,0,10.7-8.5l60.4-255.6A10.99,10.99,0,0,0,595.008,0Z" transform="translate(759.792 563.4)" fill="#7456f1"/>
      <g id="code_lines" transform="translate(1097 206)">
        <path id="Path-3" data-name="Path" d="M8.1,17.9H5a4.951,4.951,0,0,1-5-5V5A4.951,4.951,0,0,1,5,0H8.1a4.951,4.951,0,0,1,5,5v7.9A4.951,4.951,0,0,1,8.1,17.9Z" transform="translate(95.4 0.7)" fill="#ff8310"/>
        <path id="Path-4" data-name="Path" d="M84.8,17.9H5a4.951,4.951,0,0,1-5-5V5A4.951,4.951,0,0,1,5,0H84.8a4.951,4.951,0,0,1,5,5v7.9A4.951,4.951,0,0,1,84.8,17.9Z" transform="translate(0.6 0.7)" fill="#7456f1"/>
        <path id="Path-5" data-name="Path" d="M92.9,17.9H5a4.951,4.951,0,0,1-5-5V5A4.951,4.951,0,0,1,5,0H92.9a4.951,4.951,0,0,1,5,5v7.9A5.015,5.015,0,0,1,92.9,17.9Z" transform="translate(0.7 83.8)" fill="#7456f1"/>
        <path id="Path-6" data-name="Path" d="M146.9,17.9H5a4.951,4.951,0,0,1-5-5V5A4.951,4.951,0,0,1,5,0H146.9a4.951,4.951,0,0,1,5,5v7.9A4.951,4.951,0,0,1,146.9,17.9Z" transform="translate(25.4 56.1)" fill="#ff8310"/>
        <path id="Path-7" data-name="Path" d="M77,17.9H5a4.951,4.951,0,0,1-5-5V5A4.951,4.951,0,0,1,5,0H77a4.951,4.951,0,0,1,5,5v7.9A4.951,4.951,0,0,1,77,17.9Z" transform="translate(185.8 56.1)" fill="#ff8310"/>
        <path id="Path-8" data-name="Path" d="M8.1,17.9H5a4.951,4.951,0,0,1-5-5V5A4.951,4.951,0,0,1,5,0H8.1a4.951,4.951,0,0,1,5,5v7.9A5.015,5.015,0,0,1,8.1,17.9Z" transform="translate(282.5 28.5)" fill="#7456f1"/>
        <path id="Path-9" data-name="Path" d="M152.1,17.9H5a4.951,4.951,0,0,1-5-5V5A4.951,4.951,0,0,1,5,0H152.1a4.951,4.951,0,0,1,5,5v7.9A4.951,4.951,0,0,1,152.1,17.9Z" transform="translate(0.6 28.4)" fill="#7456f1"/>
        <path id="Path-10" data-name="Path" d="M84.8,17.9H5a4.951,4.951,0,0,1-5-5V5A4.951,4.951,0,0,1,5,0H84.8a4.951,4.951,0,0,1,5,5v7.9A5.015,5.015,0,0,1,84.8,17.9Z" transform="translate(114.3 0.7)" fill="#7456f1"/>
        <path id="Path-11" data-name="Path" d="M105.8,18H5a4.951,4.951,0,0,1-5-5V5A4.951,4.951,0,0,1,5,0H105.8a4.951,4.951,0,0,1,5,5v8A5.015,5.015,0,0,1,105.8,18Z" transform="translate(164.7 28.4)" fill="#ff8310"/>
      </g>
      <g id="code_lines_1_" transform="translate(1097 359)">
        <path id="Path-12" data-name="Path" d="M84.8,17.9H5a4.951,4.951,0,0,1-5-5V5A4.951,4.951,0,0,1,5,0H84.8a4.951,4.951,0,0,1,5,5v7.9A4.951,4.951,0,0,1,84.8,17.9Z" transform="translate(0.6 27.1)" fill="#7456f1"/>
        <path id="Path-13" data-name="Path" d="M92.9,17.9H5a4.951,4.951,0,0,1-5-5V5A4.951,4.951,0,0,1,5,0H92.9a4.951,4.951,0,0,1,5,5v7.9A5.081,5.081,0,0,1,92.9,17.9Z" transform="translate(0.7 110.2)" fill="#7456f1"/>
        <path id="Path-14" data-name="Path" d="M146.9,17.9H5a4.951,4.951,0,0,1-5-5V5A4.951,4.951,0,0,1,5,0H146.9a4.951,4.951,0,0,1,5,5v7.9A4.951,4.951,0,0,1,146.9,17.9Z" transform="translate(25.4 82.5)" fill="#ff8310"/>
        <path id="Path-15" data-name="Path" d="M77,17.9H5a4.951,4.951,0,0,1-5-5V5A4.951,4.951,0,0,1,5,0H77a4.951,4.951,0,0,1,5,5v7.9A4.951,4.951,0,0,1,77,17.9Z" transform="translate(185.8 82.5)" fill="#ff8310"/>
        <path id="Path-16" data-name="Path" d="M8.1,17.9H5a4.951,4.951,0,0,1-5-5V5A4.951,4.951,0,0,1,5,0H8.1a4.951,4.951,0,0,1,5,5v7.9A5.015,5.015,0,0,1,8.1,17.9Z" transform="translate(282.5 54.9)" fill="#7456f1"/>
        <path id="Path-17" data-name="Path" d="M8.1,17.9H5a4.951,4.951,0,0,1-5-5V5A4.951,4.951,0,0,1,5,0H8.1a4.951,4.951,0,0,1,5,5v7.9A4.951,4.951,0,0,1,8.1,17.9Z" transform="translate(305.3 27.1)" fill="#7456f1"/>
        <path id="Path-18" data-name="Path" d="M152.1,17.9H5a4.951,4.951,0,0,1-5-5V5A4.951,4.951,0,0,1,5,0H152.1a4.951,4.951,0,0,1,5,5v7.9A4.951,4.951,0,0,1,152.1,17.9Z" transform="translate(0.6 54.8)" fill="#7456f1"/>
        <path id="Path-19" data-name="Path" d="M103.6,17.9H5a4.951,4.951,0,0,1-5-5V5A4.951,4.951,0,0,1,5,0h98.6a4.951,4.951,0,0,1,5,5v7.9A5.015,5.015,0,0,1,103.6,17.9Z" transform="translate(95.5 27.1)" fill="#ff8310"/>
        <path id="Path-20" data-name="Path" d="M84.8,17.9H5a4.951,4.951,0,0,1-5-5V5A4.951,4.951,0,0,1,5,0H84.8a4.951,4.951,0,0,1,5,5v7.9A4.951,4.951,0,0,1,84.8,17.9Z" transform="translate(211 27.1)" fill="#ff8310"/>
        <path id="Path-21" data-name="Path" d="M8.1,17.9H5a4.951,4.951,0,0,1-5-5V5A4.951,4.951,0,0,1,5,0H8.1a4.951,4.951,0,0,1,5,5v7.9A5.015,5.015,0,0,1,8.1,17.9Z" transform="translate(95.4 0.3)" fill="#ff8310"/>
        <path id="Path-22" data-name="Path" d="M84.8,17.9H5a4.951,4.951,0,0,1-5-5V5A4.951,4.951,0,0,1,5,0H84.8a4.951,4.951,0,0,1,5,5v7.9A5.015,5.015,0,0,1,84.8,17.9Z" transform="translate(0.6 0.3)" fill="#7456f1"/>
        <path id="Path-23" data-name="Path" d="M84.8,17.9H5a4.951,4.951,0,0,1-5-5V5A4.951,4.951,0,0,1,5,0H84.8a4.951,4.951,0,0,1,5,5v7.9A5.081,5.081,0,0,1,84.8,17.9Z" transform="translate(114.3 0.3)" fill="#7456f1"/>
        <path id="Path-24" data-name="Path" d="M105.8,18H5a4.951,4.951,0,0,1-5-5V5A4.951,4.951,0,0,1,5,0H105.8a4.951,4.951,0,0,1,5,5v8A5.015,5.015,0,0,1,105.8,18Z" transform="translate(164.7 54.8)" fill="#ff8310"/>
      </g>
      <g id="mug" transform="translate(1379 690)">
        <path id="handle_5_" d="M9.572.086a29.069,29.069,0,1,1,4.178,57.988,32.5,32.5,0,0,1-6.595-.229,3,3,0,0,1,.89-5.934,26.664,26.664,0,0,0,5.347.174A23.069,23.069,0,0,0,10.05,6.067a26.281,26.281,0,0,0-6.1,1.256,3,3,0,1,1-1.9-5.692A32.317,32.317,0,0,1,9.572.086Z" transform="translate(103.099 41.423)" fill="#7456f1"/>
        <path id="spoon" d="M1.1.68A3,3,0,0,1,5.2.955L5.32,1.1l37.3,45.5A3,3,0,0,1,38.1,50.545L37.98,50.4.68,4.9A3,3,0,0,1,1.1.68Z" transform="translate(3 0.8)" fill="#7456f1"/>
        <path id="mug_2_" d="M80.6,115.8H30a29.946,29.946,0,0,1-30-30V0H110.6V85.8a29.945,29.945,0,0,1-30,30ZM55.806,60.633,46.291,88.164A32.411,32.411,0,0,0,55.2,89.378a30.293,30.293,0,0,0,10.526-1.822.264.264,0,0,0-.1-.2.264.264,0,0,1-.1-.2ZM26.454,45.046A34.41,34.41,0,0,0,23.822,58,31.205,31.205,0,0,0,41.636,86.342ZM82.932,42.82h0a16.393,16.393,0,0,1,.2,3.238A29.669,29.669,0,0,1,80.7,57.395L71.191,85.127A31.546,31.546,0,0,0,82.932,42.82ZM35.563,40.39,47.709,77.233l6.882-20.648-5.668-16.4H59.247L70.988,77.03,74.227,66.5a29.039,29.039,0,0,0,2.429-10.121,16.449,16.449,0,0,0-2.632-8.7l-.141-.228c-1.554-2.522-2.9-4.7-2.9-7.059a5.985,5.985,0,0,1,1.493-3.9,5,5,0,0,1,3.77-1.771h.4a31.12,31.12,0,0,0-21.255-8.3,31.608,31.608,0,0,0-26.316,14.17l.009,0c.834,0,6.413-.2,6.469-.2Z" transform="translate(0.5 35.2)" fill="#7456f1"/>
      </g>
      <g id="tea" transform="translate(215 725)">
        <path id="handle_2_" d="M26.978.072a27.129,27.129,0,0,1,5.284.12,3,3,0,0,1-.793,5.947,21.306,21.306,0,0,0-4.1-.081,23.069,23.069,0,0,0,3.364,46.016,3,3,0,1,1,.457,5.983A29.069,29.069,0,1,1,26.978.072Z" transform="translate(0.035 6.434)" fill="#7456f1"/>
        <path id="ug" d="M80.6,115.8H30a29.946,29.946,0,0,1-30-30V0H110.6V85.8a29.945,29.945,0,0,1-30,30ZM27.355,26.26l5.14,57.015L55.3,89.539l22.806-6.264L83.245,26.26ZM55.3,77.654h0L41.007,73.639,40.043,62.4H47.11l.482,5.782,7.87,2.088,7.87-2.088.8-9.155H39.882l-1.927-21.2H72.967l-.643,7.066H45.343l.643,7.228H71.521L69.594,73.639,55.3,77.654Z" transform="translate(27.6 0.2)" fill="#7456f1"/>
      </g>
      <g id="hand" transform="translate(509 337)">
        <path id="thumb_2_" d="M2.405,3.576c4.357-5.94,12.153-4.363,20.1,3.853C30.245,15.44,35.218,26.07,37.968,37.618a3,3,0,0,1-5.837,1.39C29.609,28.416,25.075,18.723,18.193,11.6,12.47,5.684,8.839,4.95,7.243,7.125,5.3,9.775,5.557,15.8,8.435,21.582l.18.353c4.175,8.077,5.344,23.986,4.733,43.67a3,3,0,0,1-6-.186l.058-2.1c.422-17.373-.716-31.714-3.992-38.367l-.132-.262C-.708,16.979-1.133,8.4,2.405,3.576Z" transform="translate(209.651 11.187)" fill="#7456f1"/>
        <path id="Oval" d="M29.1,58.2A29.108,29.108,0,0,1,17.773,2.287,29.108,29.108,0,0,1,40.427,55.913,28.919,28.919,0,0,1,29.1,58.2ZM29.1,6a23.028,23.028,0,1,0,8.992,1.815A22.955,22.955,0,0,0,29.1,6Z" transform="translate(316.8 0.8)" fill="#7456f1"/>
        <path id="sleeve" d="M140.444.568a3,3,0,0,1,4.014.457l.544.685c.364.457.8.99,1.291,1.592,1.423,1.727,3.075,3.654,4.934,5.731A204.1,204.1,0,0,0,168.78,26.449c15.2,13.3,30.338,22.112,44.4,24.39a3,3,0,0,1,2.413,2.168l.065.257c.1.43.218,1.06.329,1.9.587,4.43.492,10.534-.715,18.413l-.109.7c-.624,3.914.326,6.659,3.481,11.5l1.578,2.383a30.056,30.056,0,0,1,4.269,8.49,22.453,22.453,0,0,1-.311,13.3l-.019.09c-.36,2-3.339,30.97-4.762,43.423l-.13,1.129c-3.779,32.51-8.316,62.855-14.169,91.6-7.716,37.89-17.075,69.45-28.394,93.013-13.645,28.4-29.866,44.555-49.182,46a3,3,0,1,1-.448-5.983c16.48-1.233,31.113-15.651,43.836-41.818l.385-.8c11.067-23.037,20.3-54.165,27.923-91.612C204.878,217.2,209.3,187.876,213,156.51l.553-4.779c1.384-12.308,4.388-41.428,4.861-43.449l.014-.056c2.025-6.648,1-10.353-3.486-17.178l-1.052-1.584c-4.113-6.221-5.59-10.268-4.655-16.136a65.15,65.15,0,0,0,.886-16.682l-.032-.273-.554-.114c-14.343-3.042-29.2-11.856-44.013-24.69l-.694-.6a210.034,210.034,0,0,1-18.073-17.93c-1.567-1.751-2.993-3.4-4.267-4.922l-.784-.943-1.359,1.087c-2.619,2.11-5.96,4.889-10.1,8.425a15.823,15.823,0,0,1-8.774,3.82l-.493.051a32.471,32.471,0,0,1-7.217-.319l-.424-.049c-8.177-.96-11.546-.31-15.956,4.635l-.229.26c-2.833,3.233-17.313,26.43-39.415,62.851l-7,11.555-2.861,4.734c-6.714,11.116-13.687,22.706-20.714,34.42L9.98,167.355l-4.4,7.38a3,3,0,0,1-5.244-2.91l5.047-8.471,9.1-15.216c9.054-15.124,18.14-30.248,26.823-44.632L52,85.827c22.952-37.841,37.429-61.034,40.642-64.7A19.952,19.952,0,0,1,103.806,14.2a25.88,25.88,0,0,1,8.848-.131l2.21.25c6.143.672,8.553.309,11.488-2.2l2.51-2.135c3.051-2.582,5.613-4.7,7.725-6.4l1.569-1.252q.573-.453,1.048-.82l1.035-.789Z" transform="translate(49.7 124.8)" fill="#7456f1"/>
        <path id="welt" d="M102.812,75.2c2.5-14.9,3.5-21.3,3.5-21.3C68.112,48,28.812,0,28.812,0s-3.9,2.9-14.9,12.4c-4.4,3.8-9,3.8-13.8,3.3-3.4,41.7,71.5,78.8,106.9,80.6C104.812,86.3,100.912,86.5,102.812,75.2Z" transform="translate(162.188 123)" fill="#7456f1"/>
        <path id="line" d="M47.415.372c11.2-1.418,21.067,1.182,28.934,8.538a3,3,0,0,1-4.1,4.382C65.786,7.246,57.7,5.117,48.169,6.324c-8.654,1.1-18.062,4.878-27.6,10.51A126.087,126.087,0,0,0,9.248,24.388l-.877.662q-.851.649-1.6,1.241l-.718.575q-.384.31-.685.561l-.41.345a3,3,0,1,1-3.919-4.543l.415-.35c.175-.146.387-.32.634-.521l.954-.766c.79-.626,1.662-1.3,2.612-2.009a132.037,132.037,0,0,1,11.865-7.914C27.7,5.656,37.821,1.586,47.415.372Z" transform="translate(0.2 248.899)" fill="#7456f1"/>
        <path id="hand_1_" d="M78.6,190.326a2.959,2.959,0,0,1-1.339-.318l-.163-.088-75.6-43.9a2.994,2.994,0,0,1-1.151-3.986l2.675-5.08c1.38-2.611,2.757-5.207,4.091-7.716l3.978-7.453c4.758-8.886,9.354-17.363,13.658-25.2l2.426-4.4c.845-1.528,1.666-3.008,2.441-4.4l.861-1.547c7.132-12.788,12.753-22.493,17.184-29.671,4.7-7.621,7.982-12.258,10.021-14.176l.253-.229c4.586-3.994,18.364-13.705,32.761-23.091L93.884,17C110.473,6.308,120.8.61,124.581.067l.264-.031c.281-.024.568-.036.853-.036a11.838,11.838,0,0,1,6.508,2.075,12.424,12.424,0,0,1,4.48,5.338c2.357,5.534-.086,11.373-6.536,15.619-2.354,1.549-5.362,3.39-8.941,5.471l-.549.319,1.208-.341c10.064-2.819,17.082-4.249,20.859-4.249a8.572,8.572,0,0,1,1.774.154l.165.04a9.184,9.184,0,0,1,5.914,4.776,12.022,12.022,0,0,1,.834,8.119c-1.072,4.693-4.383,8.77-9.324,11.479l-.2.107.544-.094a45.372,45.372,0,0,1,6.755-.8c.169,0,.327,0,.47.012l.13.009a7.865,7.865,0,0,1,6,3.585,11.3,11.3,0,0,1,1.351,9.7,15.941,15.941,0,0,1-5.385,7.57,34.184,34.184,0,0,1-10.9,5.636l-.111.036.919-.039c.7-.026,1.338-.039,1.9-.039.607,0,1.142.015,1.592.045l.179.013a6.931,6.931,0,0,1,5.961,4.088,9.661,9.661,0,0,1,.745,5.314,12.886,12.886,0,0,1-2.305,5.783c-2.393,3.383-6.2,6.061-11.32,7.961a60.7,60.7,0,0,1-19.512,3.22l-.509.01L81.364,188.493A3,3,0,0,1,78.6,190.326ZM125.7,6c-.117,0-.233,0-.346.015-1.232.106-4.9,1.907-10.611,5.208C109.573,14.214,103,18.27,95.73,22.953,83.086,31.1,67.712,41.6,61.871,46.688c-1.507,1.313-4.45,5.5-8.746,12.452-4.162,6.733-9.488,15.883-15.83,27.194L34.854,90.7l-2.432,4.385C27.46,104.066,22.061,114,16.376,124.618l-2.491,4.661q-.937,1.756-1.831,3.437l-.129.243-4.931,9.316L77.162,183.02l36.475-86.263a2.984,2.984,0,0,1,2.571-1.826l.2-.005h.265a60.569,60.569,0,0,0,18.389-2.406,25.523,25.523,0,0,0,5.967-2.739,13.731,13.731,0,0,0,3.809-3.525,7.491,7.491,0,0,0,1.285-2.827,3.434,3.434,0,0,0-.155-2.065,1.344,1.344,0,0,0-1.1-.849c-.353-.028-.8-.042-1.321-.042-3.129,0-9.326.505-17.922,1.461l-4.725.542-2.114.252c-3.977.48-8.121,1-12.316,1.56l-5.418.727c-.088.007-.176.011-.263.011a2.98,2.98,0,0,1-2.5-1.37,2.949,2.949,0,0,1-.224-2.851c.617-1.387,2.971-2.7,7.41-4.137a207.548,207.548,0,0,1,22.338-5.236l3.993-.762a43.814,43.814,0,0,0,13.735-4.718c3.16-1.873,5.137-4.031,5.875-6.415a5.28,5.28,0,0,0-.522-4.49,2.141,2.141,0,0,0-1.521-1.032c-.09-.007-.194-.011-.311-.011-2.473,0-10.69,1.538-23.136,4.331l-3.359.761-2.365.543c-5.075,1.172-10.611,2.49-16.457,3.916l-1.407.344-5.657,1.4-.321.076a3.345,3.345,0,0,1-.655.067A2.946,2.946,0,0,1,92.835,62.9a2.874,2.874,0,0,1,1.958-3.3l40.7-14.5.49-.161a17.216,17.216,0,0,0,6.506-3.77,10.52,10.52,0,0,0,3.073-5.185,6.094,6.094,0,0,0-.2-3.787,3.338,3.338,0,0,0-2.215-1.967,3.734,3.734,0,0,0-.9-.086c-2.553,0-8.8,1.353-17.6,3.81-8.662,2.42-19.44,5.809-30.346,9.542l-2.223.765a3.281,3.281,0,0,1-1.072.189,2.982,2.982,0,0,1-2.841-2.365,2.861,2.861,0,0,1,1.565-3.329l.728-.374,4.733-2.464,3-1.584c4.751-2.515,9.2-4.925,13.212-7.163L113,26.277l2.174-1.229c4.437-2.525,8.1-4.716,10.879-6.512l.792-.516c5.056-3.329,5.137-6.327,4.315-8.257A6.431,6.431,0,0,0,125.7,6Z" transform="translate(173.2 15.775)" fill="#7456f1"/>
      </g>
      <g id="coffe" transform="translate(527 725)">
        <path id="handle_6_" d="M8.572.086a29.069,29.069,0,1,1,4.21,57.986,28.5,28.5,0,0,1-10.73-1.248,3,3,0,1,1,1.9-5.692,22.545,22.545,0,0,0,8.443.953A23.069,23.069,0,0,0,9.015,6.07a27.341,27.341,0,0,0-3.785.541A3,3,0,1,1,3.972.744,33.284,33.284,0,0,1,8.572.086Z" transform="translate(104.399 6.423)" fill="#7456f1"/>
        <path id="mug_5_" d="M80.6,115.8H30a29.946,29.946,0,0,1-30-30V0H110.6V85.8a29.945,29.945,0,0,1-30,30ZM26.992,25.547l5.156,58.234L55.3,90.251l23.139-6.47,5.169-58.234ZM55.3,77.891h-.012l-14.66-4.056L39.6,62.36h7.178l.53,5.953,7.975,2.148.013-.013L63.274,68.3l1.087-9.908-25.111.063-.707-6.786,26.425-.3.53-7.254-27.663.076-.467-6.748H73.22l-.632,7.153-.658,7.317L69.971,73.848,55.3,77.891Z" transform="translate(0.9 0.2)" fill="#7456f1"/>
      </g>
      <path id="line_3_" d="M1368.614,0a2.786,2.786,0,0,1,2.5,3,2.823,2.823,0,0,1-2.357,2.995l-.147.005H2.5A2.786,2.786,0,0,1,0,3,2.823,2.823,0,0,1,2.357.005L2.5,0Z" transform="translate(183.397 840.5)" fill="#7456f1"/>
      <path id="Path-25" data-name="Path" d="M115.9,85.6,110.4,0,0,7.1,3.8,65c9.8-8.4,58-40.6,65-41.2s15.4,9.6,3.4,17.5S34.8,62.2,34.8,62.2c21.1-7.4,47.8-15.4,52.8-14.1,7.6,2,7.1,16-7.4,20.6L39.5,83.2S86.9,71.3,93.3,71.8s12,17.1-17.8,22.7c-29.8,5.7-31,8.3-31,8.3s36.7-5.2,44.3-4.5,7.8,20.5-28.7,20.4l-.2.5L88,117.4A29.9,29.9,0,0,0,115.9,85.6Z" transform="translate(738.6 331.9)" fill="#7456f1"/>
    </g>
  </g>
</svg>
