<svg id="FAQ_outline" data-name="FAQ/outline" xmlns="http://www.w3.org/2000/svg" width="1519.5" height="828.312" viewBox="0 0 1519.5 828.312">
  <defs>
    <style>
      .cls-1, .cls-3 {
        fill: #7456f1;
      }

      .cls-2 {
        fill: #ff8310;
      }

      .cls-3 {
        stroke: rgba(0,0,0,0);
      }

      .cls-3, .cls-4 {
        stroke-miterlimit: 10;
      }

      .cls-4 {
        fill: none;
        stroke: #fff;
        stroke-width: 30px;
      }
    </style>
  </defs>
  <g id="FAQ_outline-2" data-name="FAQ/outline" transform="translate(-0.7 -0.188)">
    <g id="FAQ_3_">
      <path id="chair_4_" class="cls-1" d="M251,0a3,3,0,0,1,.176,5.995L251,6H142.1A136.131,136.131,0,0,0,6.018,139.85L6,142.1V497.3a3,3,0,0,1-5.995.176L0,497.3V142.1A142.131,142.131,0,0,1,139.751.019L142.1,0Z" transform="translate(145.8 328.2)"/>
      <g id="man_1_" transform="translate(219 26)">
        <g id="hoodie_1_" transform="translate(0 145)">
          <path id="Path" class="cls-1" d="M2.733.207A4,4,0,0,1,7.795,2.733l.6,1.833L9.349,7.52q.3.949.624,1.967c1.629,5.17,3.257,10.577,4.778,15.962q1.031,3.65,1.946,7.118l.36,1.376a158.6,158.6,0,0,1,4.525,22.465,4,4,0,0,1-7.961.787A148.607,148.607,0,0,0,9.5,36.684l-.189-.734c-.694-2.676-1.451-5.46-2.261-8.327-1.311-4.639-2.7-9.3-4.108-13.811l-.6-1.922c-.351-1.115-.687-2.169-1-3.153L.207,5.269A4,4,0,0,1,2.733.207Z" transform="translate(330.699 340.699)"/>
          <path id="Path-2" data-name="Path" class="cls-1" d="M4.844.008A4,4,0,0,1,8.609,4.037l-.1,1.958c-.061,1.292-.122,2.768-.18,4.414l-.022.625A509.724,509.724,0,0,0,9.694,70.758a4,4,0,1,1-7.971.685A515.827,515.827,0,0,1,.259,12.474L.359,9.5Q.415,7.971.474,6.643L.616,3.765A4,4,0,0,1,4.645,0Z" transform="translate(476.191 327.799)"/>
          <path id="Path-3" data-name="Path" class="cls-1" d="M.9.854A3,3,0,0,1,5.146.9,7.2,7.2,0,0,1,6.685,3.67l.15.443c.3.92.6,2.05.947,3.542l.428,1.9c.39,1.791,1.181,5.49,1.363,6.324a152.15,152.15,0,0,0,4.67,17.373C20.812,52.4,30.7,62.947,46.052,62.7a3,3,0,1,1,.1,6C27.584,69,15.883,56.525,8.568,35.2a153.784,153.784,0,0,1-4.663-17.16L2.2,10.153,1.952,9.077a34.612,34.612,0,0,0-.927-3.415C.943,5.43.868,5.242.8,5.1l-.046-.1c-.017-.034,0-.008.1.09A3,3,0,0,1,.9.854Z" transform="translate(589.6 215.9)"/>
          <path id="shape_6_" class="cls-1" d="M59,0C42.6,7.2,19,21.3,0,50.4c26.8-11,118.9,71.4,184.2,52.7C153.9,99.9,88.8,52.1,59,0Z" transform="translate(129.4 237.1)"/>
          <path id="Path-4" data-name="Path" class="cls-1" d="M242.977.291a3,3,0,0,1,2.576,5.419c-36.8,17.5-57.927,38.962-64.929,63.416-6.13,21.409-1.338,44.979,12.832,69.262a3,3,0,0,1-2.129,4.476c-8.368,1.306-20.556,8.463-36.966,23.6l-1.314,1.221c-21.572,20.19-48.253,52.132-80.535,97.746C19.431,340.351-3.414,410.018,9.559,460.9c13.991,54.867,68.787,86.26,164.057,87.9a3,3,0,1,1-.1,6c-97.7-1.686-155-34.516-169.768-92.421-13.5-52.934,9.873-124.2,63.871-200.412l1.983-2.794c31.943-44.9,58.443-76.44,80.028-96.5l.666-.617c14.678-13.542,26.411-21.156,35.593-24.044l.395-.122-.173-.314C173,113.569,168.647,89.983,174.66,68.17l.2-.7C182.383,41.185,204.735,18.472,242.977.291Z" transform="translate(-2.665 102.599)"/>
          <path id="Path-5" data-name="Path" class="cls-1" d="M202.761.711a3,3,0,0,1,4.543.8l.1.2L208,2.89q.711,1.4,1.73,3.369l1.308,2.507q3.08,5.873,7.484,13.977c.453.815.887,1.051,2.793,1.416l.246.046c3.98.739,5.788,1.32,8.446,3.246,3.511,2.545,6.655,6.787,9.623,13.3l.077.185.064.19,62.7,207.5.046.17.57,2.4c7.133,30.2,10.837,52.943,11.294,73.8l.016.823c.475,26.659-4.732,48.52-16.866,66.112-27.9,40.448-91.774,56.872-201.866,46.857l-1.5-.14-.1.06a2.983,2.983,0,0,1-1.29.377l-.176.005a3,3,0,0,1-2.995-2.824L89.6,436.1v-.6a3,3,0,0,1,3.284-2.987c110.208,10.472,173.074-5.365,199.709-43.979,11.341-16.441,16.26-37.1,15.806-62.6-.362-20.3-3.921-42.56-10.877-72.195l-.82-3.461L234.089,43.07l-.153-.332c-2.412-5.175-4.8-8.408-7.215-10.252l-.234-.174a11.229,11.229,0,0,0-5.327-2.073l-.694-.132c-3.715-.69-5.616-1.619-7.2-4.471l-2.326-4.292q-3.335-6.182-5.769-10.85l-1.21-2.329-.281-.545-.185.136c-8.861,6.428-20.148,10.564-33.305,12.758l-.808.132c-14.522,2.322-29.959,2.17-44.556.524q-1.954-.22-3.694-.455l-1.658-.233-.086,1.6c-.077,1.511-.154,3.227-.229,5.159L119,31.588l-.131,4.425q-.038,1.391-.074,2.86c-.165,6.746-2.359,10.517-7.835,15.774l-1.493,1.406c-6.1,5.723-8.053,9.467-7.326,17.816l.029.315L129.649,221.35a3,3,0,0,1-3.406,3.516l-.169-.031-76.4-16.3a3,3,0,0,1-2.325-2.392,203.894,203.894,0,0,0-14.062-46.191c-8.147-18.2-18.816-33.535-32.242-45.076a3,3,0,0,1,3.911-4.55C19.11,122.491,30.278,138.544,38.763,157.5a208.276,208.276,0,0,1,13.945,44.7l.169.882,70.047,14.944L96.24,75.086l-.026-.2c-.572-5.939.211-10.693,2.249-14.722,1.5-2.973,3.244-5.026,6.52-8.127l1.178-1.1c4.819-4.515,6.445-7.047,6.63-11.875l.11-4.136q.039-1.375.079-2.673l.133-3.928c.121-3.311.248-6.055.375-8.277l.123-1.981.1-1.342a3,3,0,0,1,3.363-2.7l1.3.22q.473.077,1.032.163c1.783.273,3.824.546,6.089.8,14.1,1.59,29.029,1.737,42.937-.487C182.565,12.461,194.27,7.9,202.761.711Z" transform="translate(465.9 -3.001)"/>
          <path id="Path-6" data-name="Path" class="cls-1" d="M2.954,0A3,3,0,0,1,5.992,2.778L6,2.954l1.3,85.5a3,3,0,0,1-5.992.267L1.3,88.546,0,3.046A3,3,0,0,1,2.954,0Z" transform="translate(565.4 565.3)"/>
          <path id="shape_7_" class="cls-1" d="M63.9,8.6C51.8,3.6,35.8,1.7,25.2,0a142.748,142.748,0,0,1,2.6,30.5C25.5,83.2,4.9,103.7,0,123.1,63.4,99.8,68.3,38,63.9,8.6Z" transform="translate(487.9 201.6)"/>
        </g>
        <g id="shirt_2_" transform="translate(278 331)">
          <path id="Path-7" data-name="Path" class="cls-2" d="M69.3,28.1C68,39.2,65.4,43.9,39.4,57.3,32.7,60.7,18.7,68.1,0,77.5,3.9,125.6,6.1,161,6.1,161l78.1,1.1S82,81.7,80.4,0C75.8,8.9,70.1,21.4,69.3,28.1Z" transform="translate(109.6 304)"/>
          <path id="Path-8" data-name="Path" class="cls-2" d="M187.7,145.6c1-43.1-15.5-85.4-31.5-113.6-2.6,39.3-10.9,84.9-19.9,99.8C94.3,102.7,62.8,86,37.6,72.7,21.7,47.1,8.3,24.2,2.5,7.6c.1-2.5.2-5.1.2-7.6Q1.2.15,0,.3c7,23.1,22.1,55.9,53.4,99.9a215.785,215.785,0,0,1,17.5,23.6h0c7.5,11.7,14.3,44.8,20.2,86,34.8-4.8,61.7-5.8,66.6,1.6l30.2,5.8C186.8,159.6,187.2,169.2,187.7,145.6Z" transform="translate(0.3 0.6)"/>
        </g>
        <g id="hand_II_4_" transform="translate(167 537)">
          <g id="hand_II_5_" transform="translate(258 6)">
            <path id="Path-9" data-name="Path" class="cls-1" d="M48.8.062A3,3,0,0,1,50.174,5.9L50,5.94,3.6,15.44A3,3,0,0,1,2.227,9.6l.172-.04Z" transform="translate(31.799 77.099)"/>
            <path id="Path-10" data-name="Path" class="cls-1" d="M48.408,4.557c28.88-9.572,53.506-3.651,73.5,13.878,14.125,12.386,24.848,29.877,30.127,44.861l.333.963c4.916,14.431,11.242,42.42,12,52.476l.646,8.665c.172,2.338.323,4.465.47,6.624l.182,2.744c.412,6.336.725,12.208.933,17.807l.063,1.8a217.2,217.2,0,0,1-.367,26.243l-.09.912c-.966,9.288-2.912,14.349-7.621,14.656-5.054.311-8.891-5.909-13.462-17.9a279.556,279.556,0,0,1-8.625-27.839,3,3,0,0,1,5.807-1.51,274.05,274.05,0,0,0,8.425,27.211l.445,1.152a63.923,63.923,0,0,0,4.617,9.8,13.917,13.917,0,0,0,1.957,2.6l.2.181.148.124.073-.115a7.1,7.1,0,0,0,.52-1.114l.088-.24a37.7,37.7,0,0,0,1.548-8.478A221.365,221.365,0,0,0,160.6,152.8l-.094-2.391c-.2-4.819-.48-9.865-.83-15.252l-.181-2.723c-.109-1.61-.221-3.2-.343-4.882l-.8-10.709c-.859-10.024-7.25-38.071-11.987-51.552-4.961-14.08-15.153-30.7-28.423-42.341C99.313,6.606,76.615,1.266,49.47,10.53l-.128.041-.13.035-45.5,11.1A3,3,0,0,1,2.12,15.923l.17-.047L47.665,4.806Z" transform="translate(-3.001 -2.891)"/>
            <path id="Path-11" data-name="Path" class="cls-1" d="M3.16,2.708a3,3,0,1,1,5.971.585l-.059.569c-.085.776-.2,1.627-.34,2.619L8.373,8.828C8.146,10.26,7.722,12.9,7.6,13.65L7.381,15.1A102.672,102.672,0,0,0,6,29.956c-.057,7.08,1.052,12.91,3.573,17.5a3,3,0,1,1-5.259,2.889C1.231,44.728-.062,37.927,0,29.908A110.852,110.852,0,0,1,1.558,13.487l1-6.321L2.79,5.648C2.959,4.481,3.078,3.538,3.16,2.708Z" transform="translate(77.554 65.3)"/>
            <path id="Path-12" data-name="Path" class="cls-1" d="M37.049.021A3,3,0,0,1,39.7,3.174l-.024.245-.059.471c-.055.426-.121.919-.2,1.472l-.177,1.214c-.186,1.246-.4,2.585-.648,4A153.269,153.269,0,0,1,35.02,26.424l-.321,1.1c-3.937,13.26-9.006,21.749-16.231,23.4-7.988,1.826-13.549-.445-16.519-5.409A14.364,14.364,0,0,1,.335,41.543,11.9,11.9,0,0,1,.007,39.6a3,3,0,0,1,5.969-.581l.017.176a6.447,6.447,0,0,0,.17.92A8.437,8.437,0,0,0,7.1,42.435c1.616,2.7,4.543,3.9,10.033,2.64,4.407-1.007,8.74-8.511,12.121-20.305A147.431,147.431,0,0,0,32.677,9.548L32.9,8.208c.182-1.1.343-2.136.485-3.109l.167-1.18.164-1.267A3,3,0,0,1,37.049.021Z" transform="translate(108 110.3)"/>
            <path id="Path-13" data-name="Path" class="cls-1" d="M39.5.061A3,3,0,0,1,41.84,3.6l-.1.475c-.08.371-.176.8-.288,1.282-.317,1.369-.695,2.892-1.134,4.53a126.658,126.658,0,0,1-4.5,13.77L35.4,24.716C30.608,36.408,24.937,43.838,17.659,44.965,9.779,46.186,4.442,43.71,1.73,38.784a14.2,14.2,0,0,1-1.511-4.3A12.023,12.023,0,0,1,0,32.4a3,3,0,0,1,5.995-.176l.01.3a7.77,7.77,0,0,0,.116.877,8.276,8.276,0,0,0,.866,2.489c1.468,2.668,4.314,3.988,9.754,3.145,4.6-.713,9.38-7.188,13.5-17.59A120.8,120.8,0,0,0,34.522,8.334l.3-1.155c.244-.944.466-1.84.663-2.678l.235-1.015L35.96,2.4A3,3,0,0,1,39.5.061Z" transform="translate(89 108.799)"/>
            <path id="Path-14" data-name="Path" class="cls-1" d="M2.813,2.675C9.087-2.62,17.239-.4,25.292,12.446a3,3,0,0,1-5.084,3.187C16.6,9.876,13.4,6.98,10.765,6.263a4.228,4.228,0,0,0-4.082,1,7.227,7.227,0,0,0-.588.555L6.013,7.9l.007.114c.013.184.035.393.068.627l.036.242a19.339,19.339,0,0,0,1.3,4.309c1.972,4.734,5.785,10.371,11.913,16.89,3.164,3.366,5.418,3.574,7.988,1.482,2.623-2.135,5.251-6.5,7.641-12.37A101.008,101.008,0,0,0,38.5,8.792l.292-1.045c.187-.681.357-1.33.512-1.94l.238-.959.178-.758a3,3,0,0,1,5.89,1.128l-.045.223-.192.815q-.062.257-.134.547L45,7.773c-.215.831-.456,1.721-.722,2.658A106.863,106.863,0,0,1,40.523,21.46c-2.74,6.728-5.812,11.831-9.41,14.76-5.065,4.123-10.872,3.587-16.148-2.025C8.367,27.176,4.151,20.944,1.884,15.5A19.685,19.685,0,0,1,.022,6.978l.019-.232c.017-.183.038-.335.061-.455A3,3,0,0,1,.51,5.244,11.511,11.511,0,0,1,2.813,2.675Z" transform="translate(64.549 104.86)"/>
          </g>
          <path id="welt_II_1_" class="cls-1" d="M38.686,118.279c-35.4-28.7-47.3-100.9-32.4-116.7.6-5,12.1,3.4,19,4.2,16.7,1.9,23.9,2.4,23.9,2.4-6.8,20.8.8,46,8.5,63.9a196.858,196.858,0,0,0,11.5,23c-1.3.7-6.7,3.3-19.5,8.9C42.386,107.279,40.886,112.779,38.686,118.279Z" transform="translate(251.814 0.821)"/>
          <path id="Path-15" data-name="Path" class="cls-1" d="M2.052,4.85A98.017,98.017,0,0,1,39.534.309C56.883,1.882,69.942,9.322,76.251,23.8a3,3,0,0,1-5.5,2.4C65.432,13.99,54.35,7.677,38.992,6.284A92.133,92.133,0,0,0,3.949,10.542a3,3,0,1,1-1.9-5.692Z" transform="translate(7.799 2.904)"/>
          <path id="lines_3_" class="cls-1" d="M142.617,14.579C220.06-.724,266.576-5.069,274.4,6.8a3,3,0,0,1,.164.282l.071.147,36.8,82.4a3,3,0,0,1-.022,2.5l-.112.217-.656,1.206-.481.9c-.413.774-.856,1.612-1.323,2.505-1.868,3.576-3.735,7.308-5.476,11.006-.88,1.87-1.707,3.687-2.469,5.435-2.891,6.628-4.729,11.962-5.185,15.334l-.035.276c-1.543,13.175-6.393,18.465-30.038,30.758l-2.358,1.226c-5.3,2.8-28.106,15.067-37.814,20.175-22.741,11.963-44.566,22.895-66.825,33.251-25.634,11.927-50.209,22.3-73.526,30.841-30.26,11.078-57.648,18.776-81.65,22.564a3,3,0,1,1-.935-5.927c23.571-3.719,50.6-11.317,80.523-22.271,23.145-8.474,47.568-18.786,73.058-30.647,21.2-9.863,42.011-20.254,63.612-31.572l5.344-2.812c11.474-6.074,33.81-18.093,36.357-19.4l2.046-1.06c21.049-10.965,24.844-14.967,26.168-25.167l.08-.653c.477-4.111,2.482-9.985,5.68-17.314q1.18-2.7,2.54-5.592c1.779-3.78,3.683-7.584,5.587-11.229l.829-1.577,1-1.873L269.278,9.939l-.054-.071c-2.989-3.708-17.288-4.858-40.116-2.824l-1.416.129C206.041,9.2,177.507,13.8,143.78,20.465c-11.556,2.284-23.576,4.781-35.952,7.458C86.953,32.439,66,37.259,45.882,42.1l-6.219,1.5c-6.079,1.475-11.691,2.858-16.757,4.123l-3.4.852-5.057,1.282a3,3,0,0,1-1.662-5.762l.23-.064,7.428-1.876,6.267-1.559c3.985-.986,8.249-2.03,12.762-3.123l1.237-.3c21.308-5.152,43.619-10.3,65.85-15.113C118.969,19.374,131.024,16.87,142.617,14.579Z" transform="translate(-2.9 -2.451)"/>
        </g>
        <g id="head_4_" transform="translate(239)">
          <path id="neck_3_" class="cls-3" d="M4.721,0H4.9A3,3,0,0,1,7.8,3.1L6.088,56l-.071,2.23.124.348c5.041,14,15.234,32.52,33.381,61.821l.7,1.126L45,124.056c34.4,18.275,57.342,31.681,87.539,52.276l3.206,2.195.229-.485c7.535-16.163,14.905-55.379,17.574-92.778l.162-2.362a3,3,0,1,1,5.987.4c-2.771,41.892-11.4,86.374-20.326,101.153a3,3,0,0,1-4.274.917l-2.373-1.636C99.337,160.773,75.429,146.892,36.7,126.452a3,3,0,0,1-1.148-1.07L32.7,120.767C15.021,92.1,5.132,73.892.169,59.689A3,3,0,0,1,0,58.6L1.8,2.9A3,3,0,0,1,4.721,0Z" transform="translate(38.899 280.501)"/>
          <path id="ear_4_" class="cls-3" d="M33.257.013a3,3,0,0,1,.558,5.974c-6.456.6-13.162,2.437-18.5,6.079C7.676,17.277,4.342,25.316,6.779,37.417c1.924,9.7,6.872,14.959,14.4,16.918,6.03,1.569,13.422.944,21.256-1.225a3,3,0,0,1,1.6,5.782c-8.76,2.426-17.129,3.134-24.369,1.25C9.911,57.6,3.264,50.54.9,38.592c-2.914-14.47,1.42-24.922,11.038-31.483C18.277,2.781,25.88.7,33.257.013Z" transform="translate(-2.636 207.2)"/>
          <path id="face_3_" class="cls-3" d="M3.913.025A3,3,0,0,1,7.275,2.613c4.745,36.441,3.778,78.481-1.3,117.772a3,3,0,1,1-5.951-.769C5.041,80.8,6,39.262,1.325,3.388A3,3,0,0,1,3.913.025Z" transform="translate(225 151.4)"/>
          <path id="face_6_" class="cls-3" d="M5.726,2.61a3,3,0,0,1,5.949.782l-.419,3.13C9.608,18.583,7.765,29.343,5.932,37.74A3,3,0,0,1,.07,36.46l.308-1.434C2.229,26.282,4.087,15.089,5.726,2.61Z" transform="translate(219.299 268.3)"/>
          <path id="beard_1_" class="cls-3" d="M119.419,168.563c-1.078,0-2.167-.018-3.236-.051a114.577,114.577,0,0,1-30.459-5.231,91.436,91.436,0,0,1-25.573-12.344c-13.163-9.46-20.311-15.824-25.493-22.7a59.178,59.178,0,0,1-6.9-11.859,126.058,126.058,0,0,1-5.429-15.209l-.271-.909c-1.952-6.653-4.985-18.895-9.013-36.383l-1.6-6.988-1.3-5.759C8.053,41.859,5.806,31.709,3.465,20.96L2.59,16.933.129,5.515.035,5.053A3,3,0,0,1,.655,2.731,2.968,2.968,0,0,1,2.784,1.608l22-1.6C24.856,0,24.929,0,25,0a3.014,3.014,0,0,1,2.137.9c3,3.042,8.245,12.294,14.043,24.749,5.739,12.328,10.687,24.9,13.234,33.617l.065.228,1.051-.317c1.043-.312,2.19-.644,3.409-.987l1.516-.42c6.681-1.833,13.936-3.541,21.565-5.078A397.075,397.075,0,0,1,154.256,45h.112l2.4.068c1.145.036,2.345.079,3.565.128l1.786.075c3.767.165,7.456.372,10.963.614,12.939.894,22.316,2.186,27.87,3.84a2.994,2.994,0,0,1,2.141,3.013l-.059,1.034-.1,1.5c-.031.431-.067.89-.105,1.363l-.082.981c-.349,4.062-.833,8.333-1.439,12.7a226.463,226.463,0,0,1-8.619,38.563,142.679,142.679,0,0,1-8.584,21,90.205,90.205,0,0,1-11.014,16.865,57.865,57.865,0,0,1-23.152,16.4,82.209,82.209,0,0,1-30.521,5.423h0ZM23.728,6.1h0L6.656,7.342l1.587,7.347,2.63,12.058C12.655,34.879,14.379,42.638,16,49.808l1,4.439,1.179,5.169c4.426,19.331,7.7,32.6,9.721,39.437l.574,1.9c6.492,21.181,12.176,28.635,33.787,44.305l1.391,1c13.293,9.552,33.493,15.856,52.717,16.45,1.019.031,2.046.047,3.052.048,21.239,0,38.212-6.809,49.085-19.693,7.389-8.782,13.606-20.844,18.48-35.851a220.435,220.435,0,0,0,8.383-37.536c.5-3.623.923-7.2,1.246-10.629l.158-1.753q.042-.489.079-.95l.1-1.277-.558-.127a162.317,162.317,0,0,0-21.525-2.717l-2.194-.158c-4.014-.277-8.245-.505-12.576-.679-1.352-.055-2.713-.1-4.045-.143L154.273,51l-1.652.029A391.311,391.311,0,0,0,84.7,58.271l-1.495.3c-7.149,1.439-13.969,3.034-20.27,4.738l-1.769.485c-2.129.592-4.09,1.168-5.83,1.712l-.651.2L53.2,66.19a3,3,0,0,1-3.715-2.175C45.564,48.039,30.2,14.435,23.833,6.233L23.728,6.1Z" transform="translate(27.999 214.4)"/>
          <path id="Trazado_19" data-name="Trazado 19" class="cls-4" d="M23.141-6.072l29.594,69.36L109.148,50.8l52.747-2.4,35.372,4.053" transform="translate(27.999 214.4)"/>
          <path id="hair" class="cls-3" d="M39.893,281.691s-19.1-22.2-32.9-48.7c-13-24.9-6.1-64.36,15.4-82.36,18-15.1,209.735-72.98,209.735-72.98a170.622,170.622,0,0,1,6.67,21.16c1.191,4.767-46.784,36.64-45.754,46.035s42.954-17.208,42.451-9.8c-.279,4.108.722,6.316-.393,10.459-1.168,4.342,7.06,6.861,4.45,10.853-3.932,6.019-14.163,16.008-22.858,19.134-53.1,19.2-87.3,18.2-108.2,9.2C123.593,189.291,124.093,273.991,39.893,281.691Z" transform="translate(53.329 -62.653) rotate(13)"/>
          <path id="mouth_3_" class="cls-3" d="M0,.825s16.3-3.3,23,3.3" transform="translate(165.8 314.075)"/>
          <path id="mouth_4_" class="cls-3" d="M5.276.44A48.3,48.3,0,0,1,16.225.214c4.976.521,9.056,2,11.881,4.777A3,3,0,1,1,23.9,9.266c-1.682-1.657-4.547-2.692-8.3-3.084a42.551,42.551,0,0,0-9.572.211c-.538.068-1.035.139-1.486.211l-.813.139L3.6,6.769A3,3,0,0,1,2.405.888L3.053.767C3.622.669,4.374.554,5.276.44Z" transform="translate(162.799 311.072)"/>
          <path id="nose_3_" class="cls-3" d="M15.263.019a3,3,0,0,1,3.294,2.469l.025.175,6,53a3,3,0,0,1-3.561,3.281l-.169-.039-18.6-4.8a3,3,0,0,1,1.327-5.849l.172.039L18.13,52.006,12.62,3.338A3,3,0,0,1,15.089.044Z" transform="translate(170.999 236)"/>
          <ellipse id="eye_3_" class="cls-3" cx="5.4" cy="8.4" rx="5.4" ry="8.4" transform="translate(200.7 236.6)"/>
          <ellipse id="eye_II_3_" class="cls-3" cx="5.4" cy="8.4" rx="5.4" ry="8.4" transform="translate(148.5 235.6)"/>
          <path id="brow_II_3_" class="cls-3" d="M6.181,5.387A27.3,27.3,0,0,1,26.943.341a3,3,0,1,1-.886,5.934A21.356,21.356,0,0,0,9.726,10.227,22.64,22.64,0,0,0,6.455,13.14l-.292.324c-.269.3-.469.55-.6.719l-.105.143A3,3,0,1,1,.541,10.891a18.548,18.548,0,0,1,1.5-1.815A28.608,28.608,0,0,1,6.181,5.387Z" transform="translate(127.4 187.592)"/>
          <path id="brow_3_" class="cls-3" d="M4.04.338A24.2,24.2,0,0,1,13.554.62,14.793,14.793,0,0,1,24.667,11.11a3,3,0,0,1-5.733,1.771,8.844,8.844,0,0,0-6.82-6.436,18.445,18.445,0,0,0-7.147-.179l-.373.062c-.288.05-.517.1-.678.133L3.756,6.5A3,3,0,1,1,2.246.692C2.62.595,3.233.464,4.04.338Z" transform="translate(200.699 186.505)"/>
        </g>
        <g id="hand_4_" transform="translate(446 69)">
          <path id="welt_1_" class="cls-1" d="M0,51.5c14.2,18.8,110.3,4.6,126.1-19.7-7.6-10.4-13.6-4.5-17-10.6C101.1,6.5,97.9,0,97.9,0,81.2,14.2,55,16.7,35.5,16.3A207.684,207.684,0,0,1,9.8,14.4c-.1,1.5-.5,7.5-.9,21.4C8.8,43.9,4.3,47.5,0,51.5Z" transform="translate(126.6 75.9)"/>
        </g>
      </g>
      <path id="laptop_1_" class="cls-1" d="M595.008,0h-388.8a11.006,11.006,0,0,0-10.7,8.5l-54.1,228.8H.508s-7.8,40.3,37.7,40.3h496.4a11.006,11.006,0,0,0,10.7-8.5l60.4-255.6A10.99,10.99,0,0,0,595.008,0Z" transform="translate(721.292 546.2)"/>
      <g id="Question_marks_1_" transform="translate(243)">
        <path id="Shape" class="cls-2" d="M149.69,445.7h-3.8a48.4,48.4,0,1,1,0-96.8h3.8a48.4,48.4,0,1,1,0,96.8Zm-5.7-125.3a41.784,41.784,0,0,1-24.576-7.922,42.2,42.2,0,0,1-15.075-20.117A41.821,41.821,0,0,1,102.09,274.9c.455-5.485.792-10.363,1.089-14.668.689-9.975,1.187-17.178,2.511-23.032,1.135-5.065,6.029-11.227,15.4-19.391,8.457-7.367,19.846-15.735,31.9-24.594l.154-.113,3.541-2.6c13.6-9.927,23.188-19.381,28.5-28.1a52.2,52.2,0,0,0,5.988-14.562A73.144,73.144,0,0,0,193.19,130.2a56.642,56.642,0,0,0-3.763-21.213,43.7,43.7,0,0,0-4.717-8.727,44.17,44.17,0,0,0-6.62-7.461,51.136,51.136,0,0,0-16.638-10.212A56.849,56.849,0,0,0,141.59,79.2a64.786,64.786,0,0,0-19.54,2.814,50.275,50.275,0,0,0-16.034,8.448,56.662,56.662,0,0,0-12.547,14.092A86.368,86.368,0,0,0,84.39,124.3a42.653,42.653,0,0,1-15.9,21.624,43.827,43.827,0,0,1-25.394,8.1,44.351,44.351,0,0,1-6.1-.424,43.477,43.477,0,0,1-9.787-2.558A42.416,42.416,0,0,1,11.47,140.272a43.2,43.2,0,0,1-11.024-35.5A44.036,44.036,0,0,1,3.09,94.9,159.466,159.466,0,0,1,20.04,62.862,139.865,139.865,0,0,1,30.765,49.239,135.948,135.948,0,0,1,42.99,37.2,151.633,151.633,0,0,1,65.729,20.925,147.892,147.892,0,0,1,90.878,9.3a159.521,159.521,0,0,1,27.53-6.975A187.593,187.593,0,0,1,148.29,0a197.471,197.471,0,0,1,30.448,2.286,164.658,164.658,0,0,1,27.889,6.852A147.6,147.6,0,0,1,254.69,36.5a133.531,133.531,0,0,1,18.785,19.519,112.306,112.306,0,0,1,21.519,46.35,130.6,130.6,0,0,1,2.7,26.831,129.047,129.047,0,0,1-1.116,17.044,119.94,119.94,0,0,1-3.348,16.331,118.05,118.05,0,0,1-5.582,15.619,123.309,123.309,0,0,1-7.817,14.906,135.987,135.987,0,0,1-10.053,14.194,156.8,156.8,0,0,1-12.29,13.481,205.818,205.818,0,0,1-31.3,24.825,266.613,266.613,0,0,0-24.962,18.3c-6.266,5.332-10.552,9.975-12.738,13.8a38.145,38.145,0,0,0-3.7,10,42.464,42.464,0,0,1-5.475,13.167,42.01,42.01,0,0,1-9.225,10.345,41.541,41.541,0,0,1-26.1,9.187Z" transform="translate(897.21 323)"/>
        <path id="Shape-2" data-name="Shape" class="cls-2" d="M60.811,103.982a11.841,11.841,0,0,1-10.788-7.073,11.462,11.462,0,0,1-.138-8.938,11.8,11.8,0,0,1,6.238-6.462l.9-.4a11.371,11.371,0,0,1,4.613-.974,11.84,11.84,0,0,1,10.787,7.074,11.521,11.521,0,0,1,.186,8.91,11.68,11.68,0,0,1-6.286,6.49l-.9.4A11.369,11.369,0,0,1,60.811,103.982ZM48.931,76.17a10.119,10.119,0,0,1-9.609-6.961c-.433-1.3-.829-2.441-1.179-3.447a43.843,43.843,0,0,1-1.621-5.254c-.472-2.644,2.6-7.989,6.156-14.178l0-.009.64-1.114a24.108,24.108,0,0,0,3.6-9,14.259,14.259,0,0,0-1.3-7.9c-1.509-3.522-3.83-5.809-6.9-6.8a11.975,11.975,0,0,0-4.01-.706,13.461,13.461,0,0,0-5.391,1.205A13.48,13.48,0,0,0,22.5,27.92a16.71,16.71,0,0,0-1.575,9.588A10.341,10.341,0,0,1,19.1,44.445a10.809,10.809,0,0,1-5.875,4.163,10.451,10.451,0,0,1-13.2-9.8,35.5,35.5,0,0,1,3.3-16.7A35.989,35.989,0,0,1,11.273,11.3a41.837,41.837,0,0,1,11.85-7.588,46.451,46.451,0,0,1,8.4-2.781A37.763,37.763,0,0,1,39.734,0a36.085,36.085,0,0,1,10.59,1.608,30.23,30.23,0,0,1,11.162,6.1,28.9,28.9,0,0,1,7.337,10.3,29.7,29.7,0,0,1,2.233,7.837,28.886,28.886,0,0,1-.045,8.063,41.655,41.655,0,0,1-6.887,16.8c-3.149,4.772-4.982,8.472-5.3,10.7a10.98,10.98,0,0,0,.084,2.443l.016.158a10.311,10.311,0,0,1-.963,6.738,9.945,9.945,0,0,1-4.937,4.563A10.179,10.179,0,0,1,48.931,76.17Z" transform="translate(0.577 158.592)"/>
        <path id="Shape-3" data-name="Shape" class="cls-2" d="M44.249,147.138c-.3,0-.608-.009-.91-.026l-1.3-.1A16.048,16.048,0,0,1,31,141.724a15.745,15.745,0,0,1-4.062-11.512,15.981,15.981,0,0,1,15.888-15.126c.3,0,.609.009.911.026l1.3.1a15.992,15.992,0,0,1,15.1,16.8,15.922,15.922,0,0,1-15.89,15.126Zm.157-41.41c-.221,0-.446-.005-.667-.015a13.738,13.738,0,0,1-9.932-4.979,13.8,13.8,0,0,1-3.067-10.721c.215-1.582.4-3.024.555-4.3a57.854,57.854,0,0,1,1.345-8.1c.477-1.649,2.189-3.58,5.387-6.076,2.891-2.256,6.77-4.8,10.877-7.483l1.437-.941c4.678-3.086,8.009-6.012,9.9-8.7a19.8,19.8,0,0,0,3.2-10.5,18.58,18.58,0,0,0-.837-7.05,14.277,14.277,0,0,0-3.462-5.55,17.41,17.41,0,0,0-11.8-5.2c-.458-.024-.916-.037-1.36-.037a20.154,20.154,0,0,0-6.015.865,16.524,16.524,0,0,0-5.051,2.594c-3.025,2.288-5.472,5.779-7.273,10.377A13.93,13.93,0,0,1,22.3,46.548a14.576,14.576,0,0,1-8.085,2.427,14.821,14.821,0,0,1-2.778-.264,14.266,14.266,0,0,1-10.1-20A52.944,52.944,0,0,1,7.5,18.437a44.225,44.225,0,0,1,8.038-8.025A49.536,49.536,0,0,1,30.176,2.622,54.028,54.028,0,0,1,47.156,0c1.239,0,2.512.038,3.782.112A59.77,59.77,0,0,1,69.976,4.187a48.508,48.508,0,0,1,15.363,9.925,40.745,40.745,0,0,1,9.887,14.262,39.469,39.469,0,0,1,2.613,17.038,40.485,40.485,0,0,1-2.061,10.916A39.5,39.5,0,0,1,90.8,66.137a48.446,48.446,0,0,1-7.883,8.722,69.283,69.283,0,0,1-10.78,7.653c-7.015,4.05-11.388,7.381-13,9.9a13.8,13.8,0,0,0-1.4,3.2,13.5,13.5,0,0,1-4.947,7.339A13.828,13.828,0,0,1,44.406,105.728Z" transform="translate(63.061 0.188)"/>
      </g>
      <path id="line_3_" class="cls-1" d="M1516.5,0a3,3,0,0,1,.176,5.995L1516.5,6H3A3,3,0,0,1,2.824.005L3,0Z" transform="translate(0.7 822.3)"/>
    </g>
  </g>
</svg>
