<svg xmlns="http://www.w3.org/2000/svg" width="1479.998" height="744.975" viewBox="0 0 1479.998 744.975">
  <defs>
    <style>
      .cls-1 {
        fill: #feba91;
      }

      .cls-2 {
        fill: #7456f1;
      }

      .cls-3 {
        fill: #fff;
      }

      .cls-4 {
        fill: #5d21d1;
      }

      .cls-5 {
        fill: #ff8310;
      }
    </style>
  </defs>
  <g id="workspace_solid_III" data-name="workspace/solid_III" transform="translate(-0.602)">
    <g id="workspace_solid_III-2" data-name="workspace_solid_III">
      <g id="notes" transform="translate(0 174)">
        <g id="post_it_II" transform="translate(60)">
          <rect id="Rectangle" class="cls-1" width="131.196" height="131.196" transform="matrix(0.982, 0.191, -0.191, 0.982, 25.611, 0.364)"/>
          <g id="lines_2_" transform="translate(29 42)">
            <path id="Path" class="cls-2" d="M.067,2.371A3,3,0,0,1,3.457.035L3.63.067l91.3,19.6a3,3,0,0,1-1.086,5.9l-.173-.032-91.3-19.6A3,3,0,0,1,.067,2.371Z" transform="translate(6.699 -2.401)"/>
            <path id="Path-2" data-name="Path" class="cls-2" d="M.067,2.371A3,3,0,0,1,3.456.035L3.63.067l88.1,18.9a3,3,0,0,1-1.085,5.9l-.173-.032-88.1-18.9A3,3,0,0,1,.067,2.371Z" transform="translate(3.399 14.699)"/>
            <path id="Path-3" data-name="Path" class="cls-2" d="M.068,2.371A3,3,0,0,1,3.457.035l.173.032,67.5,14.5a3,3,0,0,1-1.087,5.9l-.173-.032-67.5-14.5A3,3,0,0,1,.068,2.371Z" transform="translate(-2.301 32.199)"/>
          </g>
        </g>
        <g id="post_it_1_" transform="translate(0 58)">
          <rect id="Rectangle-2" data-name="Rectangle" class="cls-1" width="131.2" height="131.2" transform="translate(0.602 56.769) rotate(-23.609)"/>
          <g id="lines_3_" transform="translate(46 65)">
            <path id="Path-4" data-name="Path" class="cls-2" d="M58.561.226A3,3,0,0,1,61,5.7l-.161.072-56.7,23.3A3,3,0,0,1,1.7,23.6l.161-.072Z" transform="translate(-2.301 -3.001)"/>
            <path id="Path-5" data-name="Path" class="cls-2" d="M28.463.225A3,3,0,0,1,30.9,5.705l-.161.072-26.6,10.9A3,3,0,0,1,1.7,11.2l.161-.072Z" transform="translate(9.199 29.899)"/>
          </g>
          <path id="Path-6" data-name="Path" class="cls-3" d="M1.4,19.4,0,26.6,50.3,7.9l39.1,82,7.1,1.3L53.4,0Z" transform="translate(69 0.3)"/>
        </g>
      </g>
      <g id="laptop_1_" transform="translate(65)">
        <path id="shape_11_" class="cls-4" d="M580.9,432.5H63.6A63.632,63.632,0,0,1,0,368.9V0H644.5V368.9A63.568,63.568,0,0,1,580.9,432.5Z" transform="translate(771.1)"/>
        <g id="logo" transform="translate(1053 151)">
          <path id="leaf" class="cls-3" d="M29.3,17.4S5.3,23.6,0,1.3C0,1.3,18.6-6.8,29.3,17.4Z" transform="translate(42.9 109.398)"/>
          <path id="Path-7" data-name="Path" class="cls-3" d="M16.858,68.507a39.934,39.934,0,0,0,8.7,3.9,18.585,18.585,0,0,0-3.3,14.5,17.909,17.909,0,0,0,9.1,13.1c-1.2,7.3-3.3,17.8-5.7,21.5-1.2,1.8-.5,4.5,1.5,6.1,2,1.5,4.6,1.3,5.8-.5,3.5-5.4,5.9-18.6,7-25.7a.9.9,0,0,0,.5-.1c8.4-1.6,13.9-10.7,12.3-20.4a18.946,18.946,0,0,0-3.5-8.2,43.2,43.2,0,0,0,23.9-15.7c12.9-17.3,8.7-40.2-9.4-51.2s-43.3-5.9-56.2,11.3C-5.442,34.507-1.242,57.407,16.858,68.507Z" transform="translate(0.042 0.893)"/>
        </g>
        <g id="post-it" transform="translate(859 234)">
          <path id="Path-8" data-name="Path" class="cls-1" d="M119.4,153.8,27.6,136,0,79.9,15.6,0,144.4,25Z" transform="translate(0.8 0.9)"/>
          <g id="lines" transform="translate(4 36)">
            <path id="Path-9" data-name="Path" class="cls-3" d="M.047,2.475A3,3,0,0,1,3.352.021l.174.026,75.3,13.4a3,3,0,0,1-.877,5.933l-.174-.026-75.3-13.4A3,3,0,0,1,.047,2.475Z" transform="translate(29.399 -2.101)"/>
            <path id="Path-10" data-name="Path" class="cls-3" d="M.047,2.475A3,3,0,0,1,3.352.021l.174.026,75.3,13.4a3,3,0,0,1-.877,5.933l-.174-.026-75.3-13.4A3,3,0,0,1,.047,2.475Z" transform="translate(27.099 11.099)"/>
            <path id="Path-11" data-name="Path" class="cls-3" d="M.047,2.472A3,3,0,0,1,3.355.021l.174.026,44.7,8a3,3,0,0,1-.883,5.932l-.174-.026-44.7-8A3,3,0,0,1,.047,2.472Z" transform="translate(24.999 24.999)"/>
            <path id="Path-12" data-name="Path" class="cls-3" d="M.06,2.4A3,3,0,0,1,3.423.03L3.6.06l37,7.5a3,3,0,0,1,2.367,3.414l-.034.175-10.5,47.4a3,3,0,0,1-5.891-1.124l.033-.173,9.839-44.418L2.4,5.941A3,3,0,0,1,.03,2.578Z" transform="translate(-2.801 40.899)"/>
          </g>
        </g>
        <g id="earphones" transform="translate(0 61)">
          <path id="cable" class="cls-4" d="M773.205,0a3,3,0,0,1,.176,5.995L773.205,6H752.983l-.215,1.724q-.246,1.92-.559,4.141L752,13.3c-1.15,7.9-2.679,16.707-4.636,26.185-5.594,27.084-13.5,54.173-24.137,79.483-15.618,37.174-35.785,67.262-61.142,87.7-30.515,24.6-67.379,34.2-110.925,26.183l-5.52-1.013c-58.425-10.683-102.433-17.584-149.535-22.62l-1.473-.157c-65.9-6.982-124.89-8.381-176.7-2.953-61.017,6.392-110.2,22.136-145.84,48.561C32.055,284.351,9.578,327.189,6.6,384.856c-3.054,58.67,5.6,98.356,24.019,121.306,15.234,18.978,36.87,26.14,63.545,23.569,18.3-1.763,38-8.011,57.9-17.333,8.368-3.919,16.2-8.119,23.278-12.317l1.322-.79q2.265-1.363,4.185-2.58l1.065-.679q.827-.531,1.473-.959l.822-.549a3,3,0,0,1,3.39,4.951l-.641.43q-.64.425-1.465.958l-.337.217c-1.957,1.257-4.217,2.656-6.753,4.16-7.235,4.293-15.24,8.584-23.795,12.591-20.474,9.589-40.788,16.033-59.869,17.872-28.541,2.75-52.173-5.072-68.8-25.786C6.439,485.622-2.514,444.549.609,384.545c3.068-59.435,26.417-103.935,67.908-134.7,36.626-27.154,86.794-43.214,148.788-49.708,52.287-5.477,111.672-4.069,177.961,2.953l2.955.316c48.2,5.2,93.312,12.366,154.027,23.539,41.813,7.695,76.909-1.444,106.074-24.954,24.479-19.732,44.111-49.022,59.376-85.354C728.166,91.726,735.97,65,741.49,38.27c1.841-8.912,3.3-17.215,4.41-24.716l.164-1.119c.33-2.269.608-4.324.837-6.149l.252-2.083.166-1.5a3,3,0,0,1,2.809-2.7L750.305,0Z" transform="translate(-2.105 6)"/>
          <path id="shape_6_" class="cls-5" d="M21.1,17.7H4.5A4.481,4.481,0,0,1,0,13.2V4.5A4.481,4.481,0,0,1,4.5,0H21.1a4.481,4.481,0,0,1,4.5,4.5v8.7A4.546,4.546,0,0,1,21.1,17.7Z" transform="translate(745.5 0.3)"/>
          <path id="shape_8_" class="cls-5" d="M42.025,36.372c8.5-7,11.4-50.8-24.3-31.5s-9.3,47.1,8.2,39.9C43.325,37.572,42.025,36.372,42.025,36.372Z" transform="translate(157.675 463.628)"/>
          <path id="cable_1_" class="cls-4" d="M281.918,2.158a3.666,3.666,0,0,1-1.652,4.762l-.32.151-1.2.553-1.691.794C274.562,9.6,271.665,11,268.4,12.626L266.3,13.672c-8.446,4.238-17.724,9.126-27.645,14.64L237.416,29a766.339,766.339,0,0,0-94.032,61.568C83.56,136.692,40.064,186.559,19.812,239.095c-24.939,64.695-13.285,130.33,42.077,196.52a3.666,3.666,0,1,1-5.624,4.7c-57.052-68.21-69.2-136.65-43.294-203.862C33.79,182.449,78.115,131.631,138.907,84.765A773.56,773.56,0,0,1,233.843,22.6l2.5-1.391c9.96-5.513,19.268-10.4,27.734-14.625l1.054-.525q3.9-1.939,7.1-3.468l2.769-1.312,2.063-.954A3.666,3.666,0,0,1,281.918,2.158Z" transform="translate(22.923 202.233)"/>
          <path id="shape_9_" class="cls-5" d="M16.627,43.671c9.2,6,51.8-4.3,22.8-32.6-29-28.4-47.8,5.1-35.7,19.7C15.927,45.271,16.627,43.671,16.627,43.671Z" transform="translate(69.373 604.029)"/>
          <path id="shape_10_" class="cls-5" d="M53.6,26.6H13.3A13.294,13.294,0,0,1,0,13.3H0A13.294,13.294,0,0,1,13.3,0H53.6A13.294,13.294,0,0,1,66.9,13.3h0A13.294,13.294,0,0,1,53.6,26.6Z" transform="translate(286.7 194.9)"/>
        </g>
      </g>
      <g id="mouse" transform="translate(1236 470)">
        <path id="shape_5_" class="cls-3" d="M68.016,217.416l-40.5-12.7a39.119,39.119,0,0,1-25.7-49.1l40.1-128.1a39.119,39.119,0,0,1,49.1-25.7l40.5,12.7a39.119,39.119,0,0,1,25.7,49.1l-40.1,128.1A39.077,39.077,0,0,1,68.016,217.416Z" transform="translate(0.484 0.884)"/>
        <path id="shape_6_2" data-name="shape_6_" class="cls-2" d="M82.8,225.233h0a42.3,42.3,0,0,1-12.681-1.954l-40.5-12.7A42.077,42.077,0,0,1,1.954,157.721l40.1-128.1A42.18,42.18,0,0,1,69.2,2.086a41.951,41.951,0,0,1,25.72-.132l40.5,12.7A42.078,42.078,0,0,1,163.08,67.513l-40.1,128.09A42.091,42.091,0,0,1,82.8,225.233ZM82.246,6A36.149,36.149,0,0,0,53.057,20.9,36.422,36.422,0,0,0,47.78,31.413l-40.1,128.1a36.128,36.128,0,0,0,23.736,45.338l40.5,12.7a36.125,36.125,0,0,0,32.094-5.217,35.873,35.873,0,0,0,13.244-18.517l40.1-128.1a36.129,36.129,0,0,0-23.735-45.339l-40.5-12.7A36.249,36.249,0,0,0,82.246,6Z" transform="translate(-2.517 -2.116)"/>
        <g id="icon" transform="translate(45 142)">
          <g id="logo_1_">
            <path id="leaf_1_" class="cls-2" d="M0,0S9-.2,9,8.1C9,8.1,1.7,9.5,0,0Z" transform="translate(10.8 0.9)"/>
            <path id="Path-13" data-name="Path" class="cls-2" d="M25.376,22.455a17.826,17.826,0,0,0-2.7-2.1,7,7,0,0,0,2.4-4.9,6.672,6.672,0,0,0-2.1-5.4c1-2.5,2.6-6,3.8-7.1a1.69,1.69,0,0,0,0-2.3,1.4,1.4,0,0,0-2.1-.3c-1.7,1.6-3.6,6.1-4.6,8.5h-.2c-3.1-.1-5.8,2.6-6,6.2a6.783,6.783,0,0,0,.6,3.2,15.682,15.682,0,0,0-9.7,3.6,12.529,12.529,0,0,0-.9,18.9,15.7,15.7,0,0,0,20.8.6A12.668,12.668,0,0,0,25.376,22.455Z" transform="translate(0.224 3.345)"/>
          </g>
        </g>
      </g>
      <g id="notepad" transform="translate(368 364)">
        <g id="notepad_1_">
          <rect id="Rectangle-3" data-name="Rectangle" class="cls-2" width="267.306" height="315.507" transform="translate(81.089 69.734) rotate(-9.433)"/>
          <rect id="Rectangle-4" data-name="Rectangle" class="cls-3" width="245.897" height="290.197" transform="translate(16.352 90.495) rotate(-21.439)"/>
          <path id="Rectangle_2_" class="cls-2" d="M248.9,296.2H3a3,3,0,0,1-3-3V3A3,3,0,0,1,3,0H248.9a3,3,0,0,1,3,3V293.2A3,3,0,0,1,248.9,296.2ZM6,6V290.2H245.9V6Z" transform="translate(12.463 88.799) rotate(-21.439)"/>
          <path id="Path-14" data-name="Path" class="cls-2" d="M45.183.315A4.54,4.54,0,0,1,48.7,8.682l-.2.085L6.2,25.367A4.54,4.54,0,0,1,2.68,17l.2-.085Z" transform="translate(0.659 122.359)"/>
          <path id="Path-15" data-name="Path" class="cls-2" d="M45.174.318a4.54,4.54,0,0,1,3.537,8.36l-.2.086-42.3,16.7A4.54,4.54,0,0,1,2.671,17.1l.2-.086Z" transform="translate(18.259 167.159)"/>
          <path id="Path-16" data-name="Path" class="cls-2" d="M45.183.315A4.54,4.54,0,0,1,48.7,8.682l-.2.085L6.2,25.367A4.54,4.54,0,0,1,2.68,17l.2-.085Z" transform="translate(35.859 212.059)"/>
          <path id="Path-17" data-name="Path" class="cls-2" d="M45.183.315A4.54,4.54,0,0,1,48.7,8.682l-.2.085L6.2,25.367A4.54,4.54,0,0,1,2.68,17l.2-.085Z" transform="translate(53.459 256.859)"/>
          <path id="Path-18" data-name="Path" class="cls-2" d="M45.277.317a4.54,4.54,0,0,1,3.53,8.363l-.2.085L6.2,25.465A4.54,4.54,0,0,1,2.675,17.1l.2-.085Z" transform="translate(71.059 301.659)"/>
        </g>
        <g id="lines_1_" transform="translate(94 114)">
          <path id="Path-19" data-name="Path" class="cls-5" d="M82.9.208a3,3,0,0,1,2.355,5.516l-.162.069-81,31.8a3,3,0,0,1-2.355-5.516l.162-.069Z" transform="translate(-2.601 -2.401)"/>
          <path id="Path-20" data-name="Path" class="cls-5" d="M83.006.208a3,3,0,0,1,2.353,5.517l-.162.069L4.1,37.594a3,3,0,0,1-2.353-5.517l.162-.069Z" transform="translate(35.399 -0.901)"/>
          <path id="Path-21" data-name="Path" class="cls-5" d="M18.4.21a3,3,0,0,1,2.361,5.513l-.162.069-16.5,6.5A3,3,0,0,1,1.739,6.779L1.9,6.71Z" transform="translate(3.299 36.999)"/>
          <path id="Path-22" data-name="Path" class="cls-5" d="M30,.211a3,3,0,0,1,2.366,5.511l-.162.069L4.1,16.891A3,3,0,0,1,1.737,11.38l.162-.069Z" transform="translate(23.199 83.199)"/>
          <path id="Path-23" data-name="Path" class="cls-5" d="M52,.209a3,3,0,0,1,2.358,5.515l-.162.069L4.1,25.493a3,3,0,0,1-2.358-5.515l.162-.069Z" transform="translate(16.799 58.399)"/>
          <path id="Path-24" data-name="Path" class="cls-5" d="M30.007.207a3,3,0,0,1,2.349,5.518l-.162.069-28.1,11a3,3,0,0,1-2.349-5.518l.162-.069Z" transform="translate(9.699 48.899)"/>
          <path id="Path-25" data-name="Path" class="cls-5" d="M48.7.209a3,3,0,0,1,2.358,5.515l-.162.069L4.1,24.193a3,3,0,0,1-2.358-5.515l.162-.069Z" transform="translate(50.199 25.599)"/>
        </g>
        <g id="pens" transform="translate(199 48)">
          <g id="pen" transform="translate(48 42)">
            <path id="Path-26" data-name="Path" class="cls-5" d="M5.2,0,0,19.2.5,200.3H11L10.5,19.1Z" transform="translate(2)"/>
            <path id="Path-27" data-name="Path" class="cls-4" d="M21.065,0a3.027,3.027,0,0,1,3.079,2.786l.009.178.9,43.9A3.027,3.027,0,0,1,22.2,49.948l-.174,0h-19a3.027,3.027,0,0,1-.178-6.048l.178-.005h15.91L18.1,3.089A3.027,3.027,0,0,1,20.887.009Z" transform="translate(-0.527 147.073)"/>
            <path id="Path-28" data-name="Path" class="cls-4" d="M4.4,52.8h5.8a4.461,4.461,0,0,0,4.5-4.4L15,4.5A4.461,4.461,0,0,0,10.6,0H4.8A4.461,4.461,0,0,0,.3,4.4L0,48.3A4.461,4.461,0,0,0,4.4,52.8Z" transform="translate(0.1 28.8)"/>
            <path id="Path-29" data-name="Path" class="cls-4" d="M3.7,0A3.027,3.027,0,0,1,6.651,2.926V3.1l-.6,23.4A3.027,3.027,0,0,1,0,26.527v-.178l.6-23.4A3.027,3.027,0,0,1,3.7,0Z" transform="translate(4.374 128.873)"/>
          </g>
          <path id="pencil" class="cls-5" d="M2.6,0,0,19.6,24.6,199.1,35,197.7,10.4,18.2Z" transform="translate(0.8 0.4)"/>
        </g>
      </g>
      <g id="cup" transform="translate(452 36)">
        <path id="handle" class="cls-3" d="M91.357,37.1l-70.9,9.4A17.908,17.908,0,0,1,.357,31.1l-.2-1.6a17.908,17.908,0,0,1,15.4-20.1L86.457,0Z" transform="translate(0.443 93.8)"/>
        <path id="handle_2_" class="cls-2" d="M21.081,52.658h0A20.923,20.923,0,0,1,.381,34.473L.14,32.549A20.908,20.908,0,0,1,18.164,9.427l70.9-9.4a3.039,3.039,0,0,1,.4-.026,3.007,3.007,0,0,1,2.971,2.608l4.9,37.1a3,3,0,0,1-2.579,3.367l-70.9,9.4A21.147,21.147,0,0,1,21.081,52.658ZM86.875,6.368,18.952,15.375A14.913,14.913,0,0,0,6.134,32.128l.2,1.578A14.915,14.915,0,0,0,21.088,46.657a15.075,15.075,0,0,0,1.975-.131L90.99,37.52Z" transform="translate(-2.558 90.8)"/>
        <circle id="mug" class="cls-3" cx="93.5" cy="93.5" r="93.5" transform="translate(73.2 3.3)"/>
        <path id="mug_2_" class="cls-2" d="M96.5,193a97.211,97.211,0,0,1-19.448-1.961,95.971,95.971,0,0,1-34.506-14.52A96.782,96.782,0,0,1,7.583,134.062a96.014,96.014,0,0,1-5.623-18.114,97.44,97.44,0,0,1,0-38.9,95.971,95.971,0,0,1,14.52-34.506A96.782,96.782,0,0,1,58.938,7.583,96.015,96.015,0,0,1,77.052,1.961a97.44,97.44,0,0,1,38.9,0,95.971,95.971,0,0,1,34.506,14.52,96.782,96.782,0,0,1,34.962,42.457,96.015,96.015,0,0,1,5.623,18.114,97.439,97.439,0,0,1,0,38.9,95.971,95.971,0,0,1-14.52,34.506,96.782,96.782,0,0,1-42.457,34.962,96.014,96.014,0,0,1-18.114,5.623A97.211,97.211,0,0,1,96.5,193Zm0-187A91.169,91.169,0,0,0,78.261,7.839,90,90,0,0,0,45.9,21.456,90.764,90.764,0,0,0,13.112,61.273,90.044,90.044,0,0,0,7.839,78.261a91.384,91.384,0,0,0,0,36.478A90.005,90.005,0,0,0,21.456,147.1a90.764,90.764,0,0,0,39.817,32.789,90.044,90.044,0,0,0,16.988,5.273,91.384,91.384,0,0,0,36.478,0A90.005,90.005,0,0,0,147.1,171.544a90.764,90.764,0,0,0,32.789-39.817,90.046,90.046,0,0,0,5.273-16.988,91.384,91.384,0,0,0,0-36.478A90,90,0,0,0,171.544,45.9a90.764,90.764,0,0,0-39.817-32.788,90.046,90.046,0,0,0-16.988-5.273A91.172,91.172,0,0,0,96.5,6Z" transform="translate(70.2 0.3)"/>
        <circle id="juice" class="cls-5" cx="66.1" cy="66.1" r="66.1" transform="translate(100.6 30.7)"/>
      </g>
      <g id="smartphone" transform="translate(842 483)">
        <path id="shape_7_" class="cls-5" d="M.2,117,0,16.1A15.535,15.535,0,0,1,15.5.5L271.9,0a15.535,15.535,0,0,1,15.6,15.5l.2,100.9A15.535,15.535,0,0,1,272.2,132l-256.4.5A15.535,15.535,0,0,1,.2,117Z" transform="translate(0.3)"/>
        <path id="screen_2_" class="cls-3" d="M14.5,120.9a14.055,14.055,0,0,1-10.107-4.288A14.646,14.646,0,0,1,.2,106.306L0,15.2A14.815,14.815,0,0,1,4.186,4.809,14.012,14.012,0,0,1,14.3.5L259.2,0a14.053,14.053,0,0,1,10.107,4.289A14.656,14.656,0,0,1,273.5,14.6V36.8a3,3,0,0,1-3,3H266l.1,40.8,4.5,0a3,3,0,0,1,2.994,2.823l.005.176v22.2a14.855,14.855,0,0,1-4.08,10.327,13.585,13.585,0,0,1-9.891,4.274l-.223,0ZM259.206,6l-244.9.5A8.516,8.516,0,0,0,6,15.194L6.2,106.3a8.692,8.692,0,0,0,2.447,6.08,8.093,8.093,0,0,0,5.846,2.52l245.2-.5a7.737,7.737,0,0,0,5.592-2.534A8.875,8.875,0,0,0,267.6,105.8V86.6h-1.7a5.713,5.713,0,0,1-4.023-1.667,5.909,5.909,0,0,1-1.773-4.007l0-.219L260,39.7a5.932,5.932,0,0,1,1.673-4.166A5.709,5.709,0,0,1,265.8,33.8h1.7V14.6a8.705,8.705,0,0,0-2.365-5.994A8.122,8.122,0,0,0,259.453,6Z" transform="translate(7.1 4.7)"/>
      </g>
    </g>
  </g>
</svg>
